<?xml version="1.0" encoding="UTF-8" standalone="no"?>
<svg
   version="1.1"
   viewBox="0.00 0.00 1024.00 1024.00"
   id="svg173"
   sodipodi:docname="piggy-icon.svg"
   inkscape:version="1.4.3 (0d15f75, 2025-12-25)"
   xmlns:inkscape="http://www.inkscape.org/namespaces/inkscape"
   xmlns:sodipodi="http://sodipodi.sourceforge.net/DTD/sodipodi-0.dtd"
   xmlns="http://www.w3.org/2000/svg"
   xmlns:svg="http://www.w3.org/2000/svg">
  <defs
     id="defs173" />
  <sodipodi:namedview
     id="namedview173"
     pagecolor="#ffffff"
     bordercolor="#000000"
     borderopacity="0.25"
     inkscape:showpageshadow="2"
     inkscape:pageopacity="0.0"
     inkscape:pagecheckerboard="0"
     inkscape:deskcolor="#d1d1d1"
     inkscape:zoom="0.30383495"
     inkscape:cx="571.03372"
     inkscape:cy="501.91725"
     inkscape:window-width="1024"
     inkscape:window-height="1186"
     inkscape:window-x="1851"
     inkscape:window-y="149"
     inkscape:window-maximized="0"
     inkscape:current-layer="svg173" />
  <g
     stroke-width="2"
     fill="none"
     stroke-linecap="butt"
     id="g103"
     transform="matrix(1.8070717,0,0,1.8154449,-412.42349,-343.71147)">
    <path
       stroke="#ecdbbf"
       vector-effect="non-scaling-stroke"
       d="m 742.61,723.61 q 4.94,-3.59 7.58,-6.42 c 6.95,-7.44 14.7,-15.43 20.24,-24.29 q 12.26,-19.6 16.71,-42.11 2.13,-10.78 2.15,-25.29 0.12,-138.61 0.05,-276.55 -0.02,-30.96 -0.97,-43.17 -0.76,-9.85 -3.62,-22.76 -2.34,-10.57 -8.04,-21.51 c -5.18,-9.93 -10.08,-18.21 -17.01,-25.96 q -5.8,-6.47 -6.57,-7.22 -4.71,-4.58 -14.21,-11.8 c -5.26,-4 -11.48,-7.23 -16.74,-9.97 q -14.43,-7.53 -32.99,-11.21 c -4.36,-0.86 -8.12,-0.81 -13.25,-1.06 q -4.35,-0.21 -9.97,-0.21 -187.86,0.05 -303.37,-0.05 c -9.72,-0.01 -18.64,0.45 -27.28,1.82 q -15.7,2.51 -32.17,9.82 c -4.33,1.92 -8.14,4.84 -11.97,7.01 -11.6,6.56 -18.37,14.19 -29.37,25.27 a 15.19,15.09 82.1 0 0 -2.5,3.33 q -1.56,2.79 -5.94,9.41 -3.26,4.92 -6.04,10.64 -4.41,9.06 -5.12,11.12 -3.39,9.9 -5.85,23.29 c -1.97,10.69 -1.58,24.35 -1.58,35.26 q 0.01,226.44 -0.08,293 -0.02,13.51 0.16,15.85 0.11,1.43 1.64,9.67 1.05,5.71 2.33,9.52 c 1.78,5.33 2.79,10.52 5.35,15.78 q 4.03,8.25 7.14,13.89 c 6.21,11.28 14.71,21.97 24.89,30.25 8.8,7.16 16.82,13.12 23.91,16.65 6.78,3.38 16.53,7.53 25.55,9.63 10.74,2.51 21,3.95 31.5,3.52 6.11,-0.25 16.3,-0.47 20.84,-0.42 q 46.28,0.46 107.01,0.59 64.9,0.14 174.93,0.03 11.57,-0.02 18.11,-0.65 c 9.22,-0.88 21.32,-2.22 30.95,-6.29 q 13.79,-5.83 14.68,-6.33 9.88,-5.51 18.92,-12.08"
       id="path1" />
    <path
       stroke="#998296"
       vector-effect="non-scaling-stroke"
       d="m 342.53,579.32 c -1.41,-3.38 -7.1,-3.8 -10.21,-4.13 a 6.86,6.77 -30.7 0 1 -1.74,-0.43 q -7.21,-2.82 -8.71,-3.13 c -11.76,-2.51 -22.27,3.55 -27.41,14.03 -3.06,6.25 -2.01,12.69 5.2,14.7 q 5.17,1.44 8.39,0.9 10.6,-1.77 19.62,-7.65 c 3.82,-2.48 9.32,-5.4 13.08,-8.89 q 1.21,-1.12 2.13,-3.59 a 0.25,0.25 0 0 1 0.48,0.05 l 1.3,11.57 a 0.41,0.41 0 0 1 -0.37,0.46 q -1.24,0.14 -2.75,0.19 -10.17,0.35 -12.22,10.08 c -0.97,4.61 -2.24,8.56 -7.31,9.59 q -10.35,2.09 -11.12,2.26 -8.49,1.83 -15.14,8.12 c -5.8,5.47 -6.31,12.64 1.38,16.46 11.63,5.76 26.68,9.04 39.56,5.54 q 16.32,-4.43 18.08,-4.92 3.34,-0.92 5.7,-1.24 a 0.63,0.63 0 0 1 0.69,0.76 c -1.23,5.27 -3.03,9.85 -2.55,15.34 0.87,9.76 10.3,15.05 19.41,15.38 q 5.63,0.21 12.31,-0.67 17.58,-2.29 37.2,-7.8 c 6.98,-1.96 14.04,-4.95 20.53,-7.24 7.97,-2.82 17.31,-5.17 24.82,-1.82 5.27,2.34 4.09,12.74 4.01,17.63 a 7.5,7.45 -50.5 0 0 0.16,1.72 q 1.62,7.96 9.15,12.81 c 5.42,3.49 13.62,2.09 19.32,0.11 q 8.52,-2.97 12.12,-4.87 c 21.33,-11.26 44.07,-21.28 67.22,-28.02 16.22,-4.72 34.67,-1.17 51.83,2.05 14.09,2.65 30.65,-0.99 43.63,-6.31 8.07,-3.31 15.94,-7.56 16.83,-16.83 0.24,-2.5 -0.79,-6.9 -1.17,-9.07 q -0.62,-3.61 3.56,-4.67 21.76,-5.55 28.96,-7.28 c 7.39,-1.76 16.38,-5.63 15.95,-14.79 -0.44,-9.22 -7.9,-14.67 -16.55,-15.63 q -7.39,-0.82 -18.15,-0.25 -3.42,0.18 -23,1.19 -8.91,0.47 -17.99,2.79 a 0.53,0.52 -87.4 0 1 -0.62,-0.69 q 4.06,-11.56 2.08,-24.59 -1.21,-7.98 -4.43,-13.36 c -6.66,-11.12 -17.47,-20.08 -29.71,-24.56 a 0.21,0.2 42.2 0 1 -0.02,-0.38 q 2.35,-1.09 3.41,-2.51 1.22,-1.63 7.24,-8.52 3.91,-4.47 4.69,-6.53 c 2.3,-6.04 0.82,-13.22 -6.33,-14.75 q -6.42,-1.37 -11.4,3 c -8.81,7.73 -6.93,19.72 -1.03,28.44 a 0.25,0.25 0 0 1 -0.26,0.38 q -10.93,-2.22 -21.86,-0.68 -8.72,1.23 -12.84,1.82 -3.15,0.46 -5.13,0.28 a 0.48,0.47 -81.9 0 1 -0.42,-0.57 q 0.31,-1.39 1.66,-2.81 c 14.1,-14.77 31.4,-33.91 45.53,-47.97 q 1.78,-1.76 4.62,-5.04 c 3.69,-4.25 6.64,-7.17 3.42,-12.37 q -2.23,-3.6 -4.06,-6.21 c -1.94,-2.76 -3.31,-1.79 -6.36,-0.68 q -1.81,0.66 -4.15,1.77 a 0.49,0.49 0 0 1 -0.69,-0.52 q 0.55,-3.83 2.54,-8.12 1.16,-2.51 -0.1,-4.41 -2.26,-3.42 -6.28,-8.6 c -3.29,-4.23 -7.54,-2.21 -11,0.08 q -2.56,1.7 -24.18,16.31 a 0.26,0.26 0 0 1 -0.38,-0.33 c 2.87,-5.3 4.48,-11.19 6.03,-16.75 q 5.96,-21.36 1.74,-43.61 a 0.67,0.67 0 0 1 0.73,-0.79 q 8.31,0.78 14.88,-0.36 c 9.59,-1.66 10.4,-11.02 8.7,-18.95 q -4.9,-22.93 -17.96,-45.11 c -4.06,-6.89 -11.03,-15.55 -17.47,-18.9 -10.77,-5.61 -19.41,-1.13 -27.18,7.59 q -4.85,5.44 -8.95,10.87 a 0.75,0.75 0 0 1 -1.01,0.18 q -3.9,-2.5 -7.9,-4.18 c -10.17,-4.27 -20.84,-8.35 -31.94,-9.79 q -32.58,-4.23 -62.59,9.42 c -4.48,2.04 -8.07,4.28 -13.06,7.04 a 0.92,0.92 0 0 1 -1.18,-0.25 q -4.99,-6.65 -10.07,-11.57 c -5.48,-5.29 -11.2,-8.11 -18.97,-5.8 -8.69,2.59 -17.51,13.65 -22.23,21.53 q -10.3,17.19 -16.04,36.68 -2.44,8.29 -1.88,16.18 c 0.74,10.5 9.69,12.09 18.71,11.63 q 0.27,-0.01 6.61,-0.44 a 0.49,0.48 -89 0 1 0.51,0.54 c -3.62,32.1 6.46,59.02 28.54,81.99 a 0.46,0.46 0 0 1 -0.2,0.76 q -14.06,4.25 -26.37,9.3 -12.38,5.06 -26.67,13.57 -16.45,9.78 -29.13,18.35 -4.33,2.92 -2.63,7.71 0.53,1.49 3.71,8.33 1.85,3.99 3.18,4.4 2.44,0.76 5.51,-1.19 a 0.34,0.34 0 0 1 0.5,0.39 c -0.46,1.35 -3.96,5.16 -2,7.49 q 2.42,2.88 5.8,4.93 a 0.62,0.62 0 0 1 0.16,0.92 c -2.61,3.32 -4.84,6.56 -6.26,10.55 -2.22,6.24 -3.43,12.67 -3.25,19.19 q 0.15,5.77 0.14,5.8 a 0.38,0.37 -42.1 0 1 -0.68,-0.03"
       id="path8" />
    <path
       stroke="#998296"
       vector-effect="non-scaling-stroke"
       d="m 665.41,534.35 c 4.12,1 7.31,-1.68 10.07,-4.38 6.85,-6.72 11.67,-10.86 16.62,-16.56 q 0.97,-1.12 4.21,-3.38 c 4.58,-3.2 8.45,-6.68 9.02,-12.24 0.97,-9.38 -3.82,-17.46 -14.22,-16.66 -6.1,0.47 -12.42,4.71 -16.91,9.05 q -2.77,2.67 -5.39,8.78 c -2.3,5.39 -11.95,33.31 -3.4,35.39"
       id="path9" />
    <path
       stroke="#998296"
       vector-effect="non-scaling-stroke"
       d="m 333.13,554.52 c 1.37,-5.91 -10.15,-12.82 -14.62,-14.78 -14.88,-6.55 -36.23,-7.88 -44.8,9.2 q -1.73,3.46 -1.91,6.69 c -0.41,7.26 0.44,16.69 10.47,15.75 9.55,-0.89 17.52,-4.45 27.68,-8.7 5.23,-2.18 11.3,-2.58 18.28,-3.64 q 3.99,-0.61 4.9,-4.52"
       id="path10" />
    <path
       stroke="#998296"
       vector-effect="non-scaling-stroke"
       d="m 671.56,574.48 c 0.67,4.66 4.95,4.48 8.14,2.39 2.96,-1.93 6.28,-5.62 10.05,-7.79 q 4.46,-2.57 14.07,-6.26 c 9.27,-3.57 8.78,-12.9 4.97,-20.34 -4.14,-8.06 -11.06,-7.78 -18.66,-4.38 -9.47,4.24 -16.28,13.15 -17.93,23.63 q -1.29,8.25 -0.64,12.75"
       id="path11" />
    <path
       stroke="#7c4d8d"
       vector-effect="non-scaling-stroke"
       d="m 540.66,358.07 q 11.55,2.03 20.61,7.21 4.32,2.47 6.61,3.02 c 13.03,3.14 26.13,5.19 39.36,5.35 q 5.95,0.08 10.05,-1.35"
       id="path12" />
    <path
       stroke="#8a5e9b"
       vector-effect="non-scaling-stroke"
       d="m 617.29,372.3 q 1.76,-2.97 0.96,-7.57 -3.13,-17.96 -9.11,-29.35 -7.76,-14.77 -9.83,-18.16 -3.38,-5.54 -9.79,-11.53 c -6.71,-6.28 -13.75,-4.72 -19.87,1.22 q -5.51,5.36 -9.88,11.36 -10.94,15.05 -22.38,32.62 -1.46,2.24 -3.29,5.83 a 0.55,0.55 0 0 0 0.44,0.8 l 6.12,0.55"
       id="path13" />
    <path
       stroke="#bd79ad"
       vector-effect="non-scaling-stroke"
       d="m 617.29,372.3 c -2.14,-5.58 -4.15,-11.12 -6.62,-16.37 -2.42,-5.16 -5.45,-12.23 -8.04,-19.56 -2.32,-6.55 -5.79,-12.08 -9.46,-17.79 -1.93,-3.01 -4.06,-4 -7.35,-2.94 q -2.58,0.83 -8.03,3.15 a 11.77,11.7 16.4 0 0 -2.03,1.1 q -6.47,4.37 -12.91,8.45 -1.6,1.01 -2.88,2.39 -11.43,12.28 -19.31,27.34"
       id="path14" />
    <path
       stroke="#7c4d8d"
       vector-effect="non-scaling-stroke"
       d="m 373.24,372.23 q -0.89,1.7 -0.08,4.39 c 1.07,3.52 8.07,3.19 11.1,3.02 15,-0.84 27.1,-3.14 41.84,-6.57 a 9.05,8.93 23.6 0 0 2.24,-0.86 c 3.48,-1.92 7.33,-4.54 10.92,-6 q 8.17,-3.33 17,-3.59 a 0.39,0.39 0 0 0 0.36,-0.5 q -0.66,-2.04 -2.04,-3.9"
       id="path15" />
    <path
       stroke="#8a5e9b"
       vector-effect="non-scaling-stroke"
       d="m 454.58,358.22 c -2.96,-5.58 -6.58,-10.02 -9.52,-15.16 -1.44,-2.53 -3.48,-5.34 -4.72,-6.9 q -6.78,-8.45 -13,-17.26 -3.34,-4.74 -7.84,-8.61 c -12.14,-10.43 -25.03,7.82 -29.66,16.7 -3.12,6.01 -6.12,11.24 -9.51,18.32 q -3.71,7.75 -6.11,16.21 -1.41,4.98 -0.98,10.71"
       id="path16" />
    <path
       stroke="#bd79ad"
       vector-effect="non-scaling-stroke"
       d="m 454.58,358.22 q 0.19,0.83 -0.5,1.1 a 0.55,0.55 0 0 1 -0.69,-0.29 c -1.32,-3.11 -4.41,-7.9 -6.85,-10.44 -7.98,-8.29 -14.69,-19.44 -25.26,-26.33 q -4.31,-2.8 -7.49,-2.72 -4.46,0.12 -7.6,2.39 -3.69,2.67 -11.18,9.89 c -7.65,7.37 -10.53,15.62 -14.15,25.22 a 8.82,8.76 72.6 0 1 -0.89,1.72 q -3.95,5.9 -6.73,13.47"
       id="path17" />
    <path
       stroke="#986eab"
       vector-effect="non-scaling-stroke"
       d="m 441.51,326.34 23.9,35.88 a 2.25,2.25 0 0 0 1.56,0.98 c 9.46,1.36 21.76,6.33 27.22,14.71 a 0.32,0.32 0 0 0 0.56,-0.04 c 5.68,-11.77 16.77,-17.02 28.97,-19.19 a 3.47,3.42 -78.5 0 0 2.31,-1.55 l 11.82,-18.83"
       id="path18" />
    <path
       stroke="#9b7cb1"
       vector-effect="non-scaling-stroke"
       d="m 537.85,338.3 10.95,-15.94 a 0.6,0.59 -57.8 0 0 -0.19,-0.85 c -11.82,-6.93 -24.55,-10.8 -37.87,-12.71 -23.47,-3.37 -50.11,2.13 -69.84,15.38 a 0.82,0.82 0 0 0 -0.34,0.88 q 0.18,0.73 0.95,1.28"
       id="path19" />
    <path
       stroke="#eab8e2"
       vector-effect="non-scaling-stroke"
       d="m 537.85,338.3 c -6.34,-5.54 -14.5,-7.23 -21.31,-9.68 -20.43,-7.37 -41.12,-6.58 -61.39,-4.9 q -6.98,0.58 -13.64,2.62"
       id="path20" />
    <path
       stroke="#5067b2"
       vector-effect="non-scaling-stroke"
       d="m 501.56,378 a 34.15,22.82 0.2 0 0 0,16.96 34.13,22.81 0.2 0 0 11.38,9.87 34.12,22.81 0.1 0 0 21.31,4.49 34.14,22.8 0.2 0 0 19.9,-4.73"
       id="path21" />
    <path
       stroke="#7781b8"
       vector-effect="non-scaling-stroke"
       d="m 554.15,404.59 a 34.13,22.8 0.2 0 0 10.27,-8.73 34.14,22.82 0.2 0 0 2.9,-10.6 34.23,22.87 0.2 0 0 -6.09,-11.74 34.12,22.81 0.2 0 0 -25.72,-9.74 34.11,22.79 0.2 0 0 -20.14,3.3 34.09,22.74 0.1 0 0 -13.81,10.92"
       id="path22" />
    <path
       stroke="#7db6f0"
       vector-effect="non-scaling-stroke"
       d="m 554.15,404.59 q -0.65,-0.29 -0.58,-0.61 c 2.27,-9.68 -1.1,-20.31 -10.27,-25.47 q -6.76,-3.8 -12.92,-4.08 -11.13,-0.5 -22.85,1.97 -0.61,0.13 -2.93,0.99 -1.54,0.57 -3.04,0.61"
       id="path23" />
    <path
       stroke="#5067b2"
       vector-effect="non-scaling-stroke"
       d="m 427.17,382.73 a 34.05,22.73 0.3 0 0 -2.55,10.25 34.18,22.82 0 0 0 5.7,11.2 34.2,22.8 0.1 0 0 16.94,8.81 34.17,22.79 0.2 0 0 27.78,-1.42"
       id="path24" />
    <path
       stroke="#7781b8"
       vector-effect="non-scaling-stroke"
       d="m 475.04,411.57 a 34.22,22.79 0.1 0 0 14.02,-9.52 34.19,22.81 0.1 0 0 -1.21,-22.43 34.17,22.81 0.1 0 0 -32.36,-10.8 34.17,22.81 0.1 0 0 -28.32,13.91"
       id="path25" />
    <path
       stroke="#7db6f0"
       vector-effect="non-scaling-stroke"
       d="m 475.04,411.57 q 3.98,-6.66 6.53,-12.45 1.89,-4.28 0.71,-8.38 c -1.09,-3.74 -4.79,-5.78 -8.02,-7.51 -5.2,-2.79 -10.6,-5.09 -16.96,-5.62 q -15.17,-1.26 -30.13,5.12"
       id="path26" />
    <path
       stroke="#5067b2"
       vector-effect="non-scaling-stroke"
       d="m 573.32,385.15 -0.8,8.48 a 0.68,0.67 0.7 0 0 0.72,0.73 l 20.82,-1.32 a 0.65,0.65 0 0 0 0.61,-0.69 l -0.27,-4.96"
       id="path27" />
    <path
       stroke="#7781b8"
       vector-effect="non-scaling-stroke"
       d="m 594.4,387.39 -1.08,-7.03 a 0.67,0.66 -89.5 0 0 -0.54,-0.56 l -21.31,-3.78 a 0.29,0.28 -1.9 0 0 -0.33,0.35 l 2.18,8.78"
       id="path28" />
    <path
       stroke="#7db6f0"
       vector-effect="non-scaling-stroke"
       d="m 594.4,387.39 c -7.21,-1.66 -13.26,-2.02 -21.08,-2.24"
       id="path29" />
    <path
       stroke="#5067b2"
       vector-effect="non-scaling-stroke"
       d="m 398.89,393.01 -0.24,13.54 a 0.64,0.63 86.9 0 0 0.71,0.64 l 22.07,-2.49 a 0.64,0.63 -18.5 0 0 0.48,-0.95 q -4.86,-8.22 -2.69,-18.16"
       id="path30" />
    <path
       stroke="#7781b8"
       vector-effect="non-scaling-stroke"
       d="m 419.22,385.59 1.54,-3.68 a 0.64,0.64 0 0 0 -0.71,-0.87 l -19.72,3.95 a 0.84,0.83 87.2 0 0 -0.67,0.74 l -0.77,7.28"
       id="path31" />
    <path
       stroke="#7db6f0"
       vector-effect="non-scaling-stroke"
       d="m 419.22,385.59 q -6.85,1.69 -13.26,4.11 -3.43,1.29 -7.07,3.31"
       id="path32" />
    <path
       stroke="#986eab"
       vector-effect="non-scaling-stroke"
       d="m 579.71,400.85 -11.04,0.13 a 1.56,1.53 18.6 0 0 -1.22,0.59 C 561.1,409.6 550.57,413.25 540.3,415 a 0.25,0.25 0 0 0 -0.07,0.47 c 13.22,6.56 22.39,19.42 21.79,34.55"
       id="path33" />
    <path
       stroke="#9b7cb1"
       vector-effect="non-scaling-stroke"
       d="m 562.02,450.02 c -1.15,11.67 -9.9,22.08 -19.38,28.51"
       id="path34" />
    <path
       stroke="#986eab"
       vector-effect="non-scaling-stroke"
       d="M 542.64,478.53 Q 519.08,492.85 491,489.39 c -15.06,-1.86 -31.22,-8.9 -39.81,-21.76 q -10.89,-16.29 -1.25,-33.15 4.82,-8.43 12.35,-13.85 a 0.17,0.17 0 0 0 -0.11,-0.31 q -18.93,1.27 -33.62,-9.81 a 1.75,1.74 -32 0 0 -1.41,-0.32 q -12.67,2.65 -26.99,3.59 a 0.57,0.56 -3.6 0 0 -0.53,0.59 q 0.06,1.27 0.53,3.22 c 3.19,13.27 7.75,23.95 15.85,34.83 21.61,29.02 58.43,43.82 94.48,38.79 q 16.58,-2.31 32.54,-9.87"
       id="path35" />
    <path
       stroke="#9b7cb1"
       vector-effect="non-scaling-stroke"
       d="m 543.03,481.34 q 10.78,-4.84 19.96,-12.85 20.26,-17.67 28.59,-42.63 3.95,-11.85 3.71,-25.44 a 0.48,0.48 0 0 0 -0.51,-0.47 l -15.07,0.9"
       id="path36" />
    <path
       stroke="#eab8e2"
       vector-effect="non-scaling-stroke"
       d="m 543.03,481.34 -0.39,-2.81"
       id="path37" />
    <path
       stroke="#eab8e2"
       vector-effect="non-scaling-stroke"
       d="m 562.02,450.02 q 2.34,-1.98 3.89,-4.61 c 3.47,-5.91 8,-13.61 10.14,-20.77 q 2.96,-9.9 4.23,-18.81 0.23,-1.62 -0.57,-4.98"
       id="path38" />
    <path
       stroke="#5067b2"
       vector-effect="non-scaling-stroke"
       d="m 492.14,408.5 12.49,-0.79 a 0.31,0.31 0 0 0 0.14,-0.57 q -4.62,-2.82 -7.11,-7.09 a 0.47,0.47 0 0 0 -0.81,0 l -4.79,8.31 a 0.09,0.09 0 0 0 0.08,0.14"
       id="path39" />
    <path
       stroke="#7c4d8d"
       vector-effect="non-scaling-stroke"
       d="m 474.72,420.46 a 51,33.68 -4.2 0 0 -13.84,9.44 51.02,33.71 -4.2 0 0 -8.73,14.99 51.03,33.71 -4.1 0 0 3.99,18.48 51.07,33.77 -4.2 0 0 20.11,14.2 51.02,33.76 -4.1 0 0 24.74,3.83 51.02,33.74 -4.2 0 0 35.61,-10.05"
       id="path40" />
    <path
       stroke="#8a5e9b"
       vector-effect="non-scaling-stroke"
       d="m 536.6,471.35 a 51.14,33.75 -4.2 0 0 7.69,-6.06 50.72,33.42 -4.3 0 0 5.91,-7.59 51.1,33.76 -4.2 0 0 3.19,-14.97 51.14,33.81 -4.3 0 0 -5.47,-12.44 51,33.63 -4.1 0 0 -17.73,-12.22 51.03,33.72 -4.2 0 0 -55.47,2.39"
       id="path41" />
    <path
       stroke="#bd79ad"
       vector-effect="non-scaling-stroke"
       d="m 536.6,471.35 6.4,-12.11 a 2.79,1.72 -49.9 0 0 0.14,-0.34 q 2.28,-7.56 2.21,-10.91 c -0.22,-11.29 -6.13,-18.4 -15.91,-22.93 -7.03,-3.26 -13.78,-5.93 -21.82,-6.18 -4.89,-0.14 -10.33,-0.6 -14.85,0.08 q -2.6,0.39 -5.23,0.37 -1.56,-0.02 -5.18,0.53 -3.78,0.57 -7.64,0.6"
       id="path42" />
    <path
       stroke="#7c4d8d"
       vector-effect="non-scaling-stroke"
       d="m 608.8,440.99 22.83,26.07 a 0.84,0.83 45.4 0 0 1.25,0.01 l 8.75,-9.69 a 1.4,1.39 -39.7 0 0 0.16,-1.65 c -1.2,-1.98 -3.06,-3.77 -5.65,-2.29 -6.21,3.54 -12.9,-0.4 -10.91,-7.72 q 0.22,-0.79 2.7,-7.32 a 3.18,3.16 34.9 0 0 -0.58,-3.22 l -3.44,-3.93 a 0.78,0.78 0 0 0 -0.93,-0.19 q -8.11,3.93 -14.12,9.1 a 0.59,0.58 49.4 0 0 -0.06,0.83"
       id="path43" />
    <path
       stroke="#9b7cb1"
       vector-effect="non-scaling-stroke"
       d="m 581.2,502.8 6,10.34 a 0.62,0.62 0 0 0 0.96,0.13 q 14.92,-14.6 28.88,-30.23 4.59,-5.14 9.77,-10.37 a 0.68,0.68 0 0 0 0.04,-0.92 l -4.86,-5.82"
       id="path44" />
    <path
       stroke="#986eab"
       vector-effect="non-scaling-stroke"
       d="m 621.99,465.93 -19.26,-21.64 a 0.67,0.66 -38.9 0 0 -0.89,-0.09 q -6.63,4.95 -10.1,6.77 -1.45,0.76 -3.03,0.22 a 1.34,1.33 -61.1 0 0 -1.48,0.43 q -4.71,5.87 -9.37,11.75 -4.99,6.3 -13.27,12.54 a 1.21,1.21 0 0 0 -0.27,1.63 l 16.88,25.26"
       id="path45" />
    <path
       stroke="#eab8e2"
       vector-effect="non-scaling-stroke"
       d="m 621.99,465.93 c -2.86,2.77 -5.57,5.39 -8.77,7.96 q -15.19,12.13 -28.8,26.04 -1.42,1.45 -3.22,2.87"
       id="path46" />
    <path
       stroke="#986eab"
       vector-effect="non-scaling-stroke"
       d="m 372.29,513.6 8.31,10.36 a 1.04,1.03 -25.5 0 0 1.03,0.36 c 5.79,-1.23 11.79,-2.2 18.22,-1.96 q 8.79,0.32 18.38,1.14 a 0.52,0.52 0 0 0 0.56,-0.44 c 0.82,-5.41 2.2,-10.92 4.29,-16.12 q 4.71,-11.72 10.99,-23.95"
       id="path47" />
    <path
       stroke="#9b7cb1"
       vector-effect="non-scaling-stroke"
       d="m 434.07,482.99 1.36,-2.1 a 0.63,0.62 -54.8 0 0 -0.14,-0.84 l -7.52,-5.63 a 0.94,0.94 0 0 0 -0.99,-0.08 q -0.99,0.48 -17.06,6.17 -11.36,4.02 -22.6,9.26 c -8.28,3.86 -15.24,8.51 -22.94,13 a 0.35,0.35 0 0 0 -0.1,0.52 l 8.21,10.31"
       id="path48" />
    <path
       stroke="#eab8e2"
       vector-effect="non-scaling-stroke"
       d="m 434.07,482.99 q -4.23,0.48 -8.32,2.6 -4.66,2.41 -6.41,3.08 -12.09,4.56 -23.57,11.73 c -4.2,2.62 -8.2,4.76 -12.42,6.87 -3.27,1.64 -7.19,4.45 -11.06,6.33"
       id="path49" />
    <path
       stroke="#5067b2"
       vector-effect="non-scaling-stroke"
       d="m 546.5,486.86 q -8.18,15.41 -16.36,26.28 -7.29,9.69 -19.13,9.33"
       id="path50" />
    <path
       stroke="#7781b8"
       vector-effect="non-scaling-stroke"
       d="m 511.01,522.47 q -11.14,0.24 -17.25,-0.73 -7.55,-1.18 -13.05,-6.67 -9.12,-9.1 -15.75,-19.79 a 4.28,4.27 -5.7 0 0 -2.14,-1.75 l -13.92,-5.18"
       id="path51" />
    <path
       stroke="#5067b2"
       vector-effect="non-scaling-stroke"
       d="m 448.9,488.35 -7.62,-4.15 a 0.49,0.48 28.5 0 0 -0.65,0.19 q -9.81,18.01 -15.57,38.85 a 0.76,0.76 0 0 0 0.66,0.96 q 19.28,1.79 38.98,1.35"
       id="path52" />
    <path
       stroke="#7781b8"
       vector-effect="non-scaling-stroke"
       d="m 464.7,525.55 49.12,-0.78"
       id="path53" />
    <path
       stroke="#5067b2"
       vector-effect="non-scaling-stroke"
       d="m 513.82,524.77 48.96,-1.84"
       id="path54" />
    <path
       stroke="#7781b8"
       vector-effect="non-scaling-stroke"
       d="m 562.78,522.93 21.78,-0.61 a 0.51,0.5 -17.4 0 0 0.41,-0.78 l -26.05,-40.51 a 0.71,0.71 0 0 0 -1.04,-0.17 q -5.13,4.05 -11.38,6"
       id="path55" />
    <path
       stroke="#7db6f0"
       vector-effect="non-scaling-stroke"
       d="m 562.78,522.93 q -1.93,-4.02 -4.01,-7.93 -2.02,-3.8 -3.58,-8.09 -3.53,-9.72 -8.69,-20.05"
       id="path56" />
    <path
       stroke="#7db6f0"
       vector-effect="non-scaling-stroke"
       d="m 513.82,524.77 q -0.82,0.24 -2.81,-2.3"
       id="path57" />
    <path
       stroke="#7db6f0"
       vector-effect="non-scaling-stroke"
       d="m 448.9,488.35 q 1.47,5.42 2.96,10.66 c 2.78,9.79 7.18,18.25 12.84,26.54"
       id="path58" />
    <path
       stroke="#986eab"
       vector-effect="non-scaling-stroke"
       d="m 474.92,496.5 a 0.36,0.35 -10.8 0 0 -0.38,0.55 q 4.81,6.41 9.86,12.06 c 6.22,6.95 14.71,7.04 23.29,6.91 7.2,-0.12 10.52,0.12 15.91,-6.08 q 7.02,-8.08 11.75,-17.14 a 0.45,0.45 0 0 0 -0.56,-0.63 q -12.13,4.8 -24.7,6.02 c -11.76,1.15 -24.18,1.22 -35.17,-1.69"
       id="path59" />
    <path
       stroke="#5d425a"
       vector-effect="non-scaling-stroke"
       d="m 636.49,510.96 c 2.1,-2.75 5.52,-5.38 7.25,-8.18 q 2.1,-3.39 2.07,-4.02 -0.16,-4.68 -4.03,-4.41 c -8,0.57 -8.41,10.55 -6.66,16.36 a 0.78,0.78 0 0 0 1.37,0.25"
       id="path60" />
    <path
       stroke="#7c4d8d"
       vector-effect="non-scaling-stroke"
       d="m 356.68,519.2 q 4.1,2.38 2.12,6.8 -1.57,3.49 -4.59,8.62 a 1.25,1.24 -53.8 0 0 0.24,1.56 l 1.84,1.67 a 1.01,1 49.5 0 0 1.21,0.1 l 16.71,-10.75 a 0.33,0.33 0 0 0 0.07,-0.48 l -9.19,-11.22"
       id="path61" />
    <path
       stroke="#8a5e9b"
       vector-effect="non-scaling-stroke"
       d="m 365.09,515.5 -6.47,-8.5 a 0.93,0.93 0 0 0 -1.24,-0.22 l -13.74,8.84 a 1.8,1.8 0 0 0 -0.69,2.22 l 1.73,4.1 a 1.54,1.54 0 0 0 2.17,0.75 q 4.49,-2.52 9.83,-3.49"
       id="path62" />
    <path
       stroke="#bd79ad"
       vector-effect="non-scaling-stroke"
       d="m 365.09,515.5 -8.41,3.7"
       id="path63" />
    <path
       stroke="#a498bc"
       vector-effect="non-scaling-stroke"
       d="M 602.27,619.21 620,615 a 3.83,3.81 19.3 0 0 1.4,-0.67 q 0.89,-0.63 2.44,-2.99 c 5.2,-7.88 10.39,-14.71 12.39,-21.5 3.17,-10.8 2.71,-23.09 0.2,-34.05 -2.65,-11.56 -10.57,-20.6 -18.91,-28.64 -1.54,-1.48 -2.98,-1.87 -5.03,-1.53 q -9.94,1.66 -18.15,2.24 a 0.33,0.33 0 0 0 -0.21,0.57 c 5.96,5.77 13.36,15.03 16.18,23.65 2.42,7.39 3.6,17.72 3.72,26.89 0.12,9.18 -2.33,17.92 -6.15,26.46 q -5.04,11.27 -6.05,13.22 a 0.39,0.39 0 0 0 0.44,0.56"
       id="path64" />
    <path
       stroke="#987459"
       vector-effect="non-scaling-stroke"
       d="m 644.45,560.4 c 1.14,11.58 1.32,23.91 -2.77,34.81 -1.84,4.89 -4.35,8.17 -7.82,13.73 a 0.39,0.39 0 0 0 0.45,0.58 c 13.93,-4.25 22.09,-14.99 27.5,-28.48"
       id="path65" />
    <path
       stroke="#9f887b"
       vector-effect="non-scaling-stroke"
       d="m 661.81,581.04 q 3.79,-12.69 0.81,-25.43 c -1.07,-4.55 -2.92,-7.82 -5.73,-11.33 q -11.91,-14.89 -30.14,-18.73 a 0.35,0.35 0 0 0 -0.34,0.58 c 4.13,4.75 7.84,8.43 10.74,13.43 q 5.65,9.75 7.3,20.84"
       id="path66" />
    <path
       stroke="#eec95a"
       vector-effect="non-scaling-stroke"
       d="m 661.81,581.04 q -1.78,0.8 -2.06,-1.09 -1.16,-7.96 -5.95,-13.25 -2.66,-2.94 -9.35,-6.3"
       id="path67" />
    <path
       stroke="#a498bc"
       vector-effect="non-scaling-stroke"
       d="m 409.24,529.64 c -6.33,-0.59 -14.13,-1.29 -19.81,0.55 a 2.58,2.56 8.7 0 0 -1.29,0.94 c -9.22,12.84 -18.38,29.02 -17.77,45.37 q 0.32,8.66 2.04,13.83 2.9,8.69 12.67,27.11 1.38,2.61 4.72,3.56 9.27,2.62 17.26,4.36 a 0.4,0.4 0 0 0 0.39,-0.64 q -9.68,-12.21 -14.79,-26.76 c -8.39,-23.91 -0.48,-49.84 16.81,-67.7 a 0.37,0.37 0 0 0 -0.23,-0.62"
       id="path68" />
    <path
       stroke="#987459"
       vector-effect="non-scaling-stroke"
       d="m 528.02,544.75 q 2.63,6.11 3.77,11.23 c 4.6,20.59 6.23,42.31 -0.41,62.4 q -2.8,8.47 -3.69,11.33 a 0.74,0.74 0 0 0 0.77,0.95 q 32.28,-2.69 62.73,-8.77 a 2.56,2.52 7.9 0 0 1.75,-1.3 q 5.19,-9.84 10.8,-22.84 c 5.77,-13.38 4.09,-32.41 -1.03,-45.88"
       id="path69" />
    <path
       stroke="#9f887b"
       vector-effect="non-scaling-stroke"
       d="m 602.71,551.87 q -4.33,-9.22 -11.34,-16.25 -4.29,-4.31 -6.1,-6.34 a 1.16,1.15 -22 0 0 -0.9,-0.38 l -63.7,2.41 a 0.26,0.25 -18.7 0 0 -0.2,0.4 q 4.7,6.63 7.55,13.04"
       id="path70" />
    <path
       stroke="#eec95a"
       vector-effect="non-scaling-stroke"
       d="m 602.71,551.87 q -0.34,0.85 -2.49,-0.56 -0.27,-0.18 -0.75,-1.9 -0.65,-2.33 -2.98,-2.53 c -9.57,-0.85 -18.3,-0.82 -26.99,-1.28 q -20.49,-1.06 -41.48,-0.85"
       id="path71" />
    <path
       stroke="#987459"
       vector-effect="non-scaling-stroke"
       d="m 406.34,545.78 c -11.82,16.92 -11.89,35.67 -5.17,54.69 3.16,8.95 10.29,18.17 15.58,25.27 a 4.14,4.12 75.6 0 0 2.73,1.62 q 12.85,1.8 23.52,2.59 28.76,2.14 56.2,1.92 a 0.44,0.44 0 0 0 0.42,-0.56 c -0.71,-2.5 -3.54,-5.91 -6.34,-10.09 q -12.2,-18.22 -13.98,-41 -0.94,-12.12 1.09,-20.8 1.34,-5.77 5.31,-14.16"
       id="path72" />
    <path
       stroke="#9f887b"
       vector-effect="non-scaling-stroke"
       d="m 485.7,545.26 5.55,-12.38 a 0.42,0.42 0 0 0 -0.4,-0.59 c -22.37,0.78 -48.1,0.93 -71.64,-1.91 a 1.33,1.32 22.6 0 0 -1.2,0.49 l -11.67,14.91"
       id="path73" />
    <path
       stroke="#eec95a"
       vector-effect="non-scaling-stroke"
       d="m 485.7,545.26 q -7.03,-0.69 -11.7,-0.57 -33.77,0.84 -67.66,1.09"
       id="path74" />
    <path
       stroke="#a498bc"
       vector-effect="non-scaling-stroke"
       d="m 511.25,531.63 -11.07,0.42 a 1.26,1.25 -78.1 0 0 -1.08,0.71 c -7.69,15.89 -14.06,26.81 -13.68,41.49 q 0.59,22.65 12.79,41.82 4.64,7.29 9.96,15.06 a 0.85,0.82 -17.1 0 0 0.71,0.36 l 10.46,-0.4 a 1.04,1.04 0 0 0 0.93,-0.68 q 3.91,-10.94 6.8,-22.08 c 3.98,-15.34 1.99,-33.76 -1.55,-49.34 -2.35,-10.33 -7,-17.4 -13.13,-26.77 a 1.33,1.31 -17.1 0 0 -1.14,-0.59"
       id="path75" />
    <path
       stroke="#987459"
       vector-effect="non-scaling-stroke"
       d="m 356.39,550.25 c -4.96,7.76 -6.94,18.78 -6.29,27.55 0.9,11.97 3.1,21.94 12.92,28.9 q 5.96,4.23 11.42,7.14 a 0.42,0.42 0 0 0 0.58,-0.56 c -4.86,-9.89 -9.15,-18.96 -11.07,-30.65 -2.12,-12.87 1.34,-23.94 6.75,-35.61"
       id="path76" />
    <path
       stroke="#9f887b"
       vector-effect="non-scaling-stroke"
       d="m 370.7,547.02 6.89,-13.12 a 0.39,0.38 -89.1 0 0 -0.51,-0.53 q -12.16,6.15 -20.69,16.88"
       id="path77" />
    <path
       stroke="#eec95a"
       vector-effect="non-scaling-stroke"
       d="m 370.7,547.02 q -5.64,-0.42 -10.94,1.45 a 0.82,0.75 5 0 0 -0.39,0.3 l -1.63,2.29 a 0.65,0.65 0 0 1 -1.14,-0.17 l -0.21,-0.64"
       id="path78" />
    <path
       stroke="#7f5f6e"
       vector-effect="non-scaling-stroke"
       d="m 303.85,584.93 q -1.83,1.53 -2.68,3.93"
       id="path79" />
    <path
       stroke="#5d425a"
       vector-effect="non-scaling-stroke"
       d="m 301.17,588.86 q -2.21,1.7 -1.03,4.31 a 1.18,1.16 -1.7 0 0 0.66,0.61 c 10.31,3.7 21.59,-4.79 30.71,-10.23 a 0.86,0.8 -34.7 0 0 0.27,-1.22 q -0.17,-0.23 -0.82,-0.5 c -5.9,-2.5 -12.59,-4.47 -19.15,-3.22 q -5.76,1.09 -7.96,6.32"
       id="path80" />
    <path
       stroke="#936f4e"
       vector-effect="non-scaling-stroke"
       d="m 301.17,588.86 c 2.31,6.19 14.08,-2.46 8.53,-6.41 -1.59,-1.13 -5.02,1.58 -5.85,2.48"
       id="path81" />
    <path
       stroke="#5d425a"
       vector-effect="non-scaling-stroke"
       d="m 648.58,610.63 q -6.56,3.47 -8.38,4.07 -8.01,2.67 -14.83,6.1 a 7.59,7.24 24.6 0 1 -1.88,0.65 c -5.23,1.03 -10.9,2.39 -15.9,4.89 a 2.78,2.62 27.3 0 1 -0.94,0.27 q -10.55,0.94 -19.58,2.96 c -6.38,1.44 -11.45,2.13 -16.61,3.22 q -6.33,1.35 -12.51,1.96 -8.97,0.89 -32.19,2.92 -12.86,1.13 -30.69,0.83 -32.12,-0.53 -40.07,-0.86 -18.32,-0.75 -25.25,-1.66 -13.8,-1.83 -16.28,-2.06 -8.88,-0.86 -16.04,-3.09 -17.42,-5.42 -32.09,-13.66 -3.98,-2.23 -11.46,-9.55"
       id="path82" />
    <path
       stroke="#7f5f6e"
       vector-effect="non-scaling-stroke"
       d="m 353.88,607.62 c -3.21,-3.43 -5.72,-8.5 -10.85,-8 -2.75,0.27 -5.79,1.35 -6.54,4.15 -2,7.43 -5.04,13.82 -12.97,15.75 q -2.68,0.65 -10.21,1.81 c -5.46,0.83 -11.07,5.35 -14.76,9.43 a 1.31,1.3 -49.4 0 0 0.14,1.9 q 1.4,1.14 3.29,1.73"
       id="path83" />
    <path
       stroke="#5d425a"
       vector-effect="non-scaling-stroke"
       d="m 301.98,634.39 q 1.61,1.82 3.24,2.18 5.04,1.08 13.39,3 6.03,1.38 14.86,-0.22 5.56,-1 18.03,-5.02 2.92,-0.94 9.69,-1.68 c 3.07,-0.34 5.36,0.74 6,3.85 q 0.4,2 0.09,3.77 -0.74,4.25 -1.87,11.98 c -0.83,5.68 2.16,7.86 6.96,10.54 3.4,1.91 8.62,1.67 12.4,1.26 q 8.29,-0.89 14.71,-2.11 7.87,-1.49 23.4,-5.61 c 9.2,-2.43 20.95,-7.55 31.14,-10.06 4.99,-1.23 10.14,-1.93 14.87,-0.37 a 3.35,3.2 -34.2 0 0 0.95,0.16 q 4.89,0.16 8.8,2.91 a 3.32,3.22 1.2 0 1 0.78,0.79 q 4.35,6.32 4.29,12.24 -0.08,7.73 0.22,10.46"
       id="path84" />
    <path
       stroke="#7f5f6e"
       vector-effect="non-scaling-stroke"
       d="m 483.93,672.46 c 1.26,4.5 4.69,7.85 9.48,8.02 7.24,0.25 14.78,-2.43 21.56,-6.03 q 8.89,-4.73 17.53,-9.09 c 6.52,-3.29 16.01,-6.33 24,-9.83"
       id="path85" />
    <path
       stroke="#5d425a"
       vector-effect="non-scaling-stroke"
       d="m 556.5,655.53 q 5.8,-2.3 11.94,-4.76 6.67,-2.67 12.18,-4.01 13.23,-3.22 26.63,-3.01 8.2,0.12 24.58,3.29 9.23,1.78 12.89,1.75 8.21,-0.08 13.02,-0.92 1.57,-0.27 9.56,-2.21 c 6.21,-1.5 11.27,-4.62 17.07,-7.12 4.19,-1.8 7.28,-4.67 5.96,-9.42 q -1.53,-5.5 0.1,-11.02 1.29,-4.37 6.52,-6.4 4.71,-1.82 9.11,-2.67 4.02,-0.77 7.07,-1.57 7.89,-2.06 15.79,-4.02"
       id="path86" />
    <path
       stroke="#7f5f6e"
       vector-effect="non-scaling-stroke"
       d="m 728.92,603.44 q 3.87,-0.41 6.64,-2.86 c 4.41,-3.89 1.79,-10.11 -2.87,-12.27 q -2.85,-1.32 -6.76,-1.66 -8.01,-0.7 -19.92,-0.02 c -9.03,0.51 -18.06,0.75 -26.9,2.18 q -6.78,1.09 -12.69,2.35 -1.81,0.39 -3.07,2.19 c -4.38,6.28 -7.55,13 -14.77,17.28"
       id="path87" />
    <path
       stroke="#936f4e"
       vector-effect="non-scaling-stroke"
       d="m 728.92,603.44 q -1.51,0.5 -3.03,-0.15 a 2.01,2.01 0 0 0 -0.96,-0.16 q -1.41,0.12 -2.14,0.09 -21.22,-0.84 -35.3,0.57 -4.8,0.48 -12.91,1.95 c -6.42,1.16 -13.01,1.91 -19.46,3.47 q -3.19,0.77 -6.54,1.42"
       id="path88" />
    <path
       stroke="#936f4e"
       vector-effect="non-scaling-stroke"
       d="m 556.5,655.53 q -6.34,0.21 -9.51,1.07 c -5.45,1.49 -12.46,3.28 -18.52,5.66 q -14.96,5.87 -30.1,10.04 a 3.84,3.73 -53 0 1 -0.77,0.12 q -6.51,0.29 -12.82,-3.15 a 0.49,0.48 23.6 0 0 -0.7,0.27 q -0.45,1.39 -0.15,2.92"
       id="path89" />
    <path
       stroke="#936f4e"
       vector-effect="non-scaling-stroke"
       d="m 353.88,607.62 q -7.67,-0.36 -10.63,0.61 -3.84,1.26 -6.26,4.51 -4.16,5.57 -8.39,9.11 -5.38,4.51 -5.74,4.82 c -5.4,4.64 -14.26,6.3 -20.88,7.72"
       id="path90" />
    <path
       stroke="#5067b2"
       vector-effect="non-scaling-stroke"
       d="m 550.27,393.55 q -0.11,-2.48 -1.42,-4.67 c -4.11,-6.79 -12.81,-15.28 -20.84,-10.32 q -6.08,3.75 -9.95,10.02 a 2.68,2.32 -53.9 0 0 0.27,3.21 q 2.36,2.1 5,-0.36 2.41,-2.27 5.62,-5.58 c 4.05,-4.19 6.58,-1.07 9.89,2.22 q 3.35,3.32 6.41,6.4 1.45,1.46 3.15,1.25 a 2.13,2.09 -4.7 0 0 1.87,-2.17"
       id="path91" />
    <path
       stroke="#5067b2"
       vector-effect="non-scaling-stroke"
       d="m 442.44,397.7 a 2.58,2.58 0 0 0 4.04,0.38 q 3.71,-3.89 7.7,-8.56 c 3.67,-4.31 7.33,-2.86 10.75,0.97 1.41,1.58 4.43,5.41 6.91,5.03 a 2.49,2.21 -7.2 0 0 2.13,-2.44 c -0.4,-4.25 -3.87,-7.2 -7.19,-10.21 -3.76,-3.4 -8.13,-4.32 -12.27,-1.83 q -5.7,3.42 -11.95,11.58 a 4.32,4.32 0 0 0 -0.2,4.96 l 0.08,0.12"
       id="path92" />
    <path
       stroke="#7c4d8d"
       vector-effect="non-scaling-stroke"
       d="m 487.48,425.68 a 20.89,10.11 -90 0 0 -10.11,20.89 20.89,10.11 -90 0 0 10.11,20.89 20.89,10.11 -90 0 0 10.11,-20.89 20.89,10.11 -90 0 0 -10.11,-20.89"
       id="path93" />
    <path
       stroke="#7c4d8d"
       vector-effect="non-scaling-stroke"
       d="m 518.6564,425.5415 a 20.76,10.06 -90.7 0 0 -9.8056,20.8814 20.76,10.06 -90.7 0 0 10.3128,20.6356 20.76,10.06 -90.7 0 0 9.8056,-20.8814 20.76,10.06 -90.7 0 0 -10.3128,-20.6356"
       id="path94" />
    <path
       stroke="#7f5f6e"
       vector-effect="non-scaling-stroke"
       d="m 690.12,489.08 q -7.57,1.63 -12.6,7.96"
       id="path95" />
    <path
       stroke="#5d425a"
       vector-effect="non-scaling-stroke"
       d="m 677.52,497.04 q -1.14,0.85 -1.5,1.72 -5.3,12.61 -7.3,26.14 a 0.88,0.87 -18.5 0 0 1.49,0.74 q 4.98,-5.08 14.81,-14.75 c 6.23,-6.14 18.73,-10.99 11.99,-21.26 a 2.94,2.92 2.3 0 0 -0.66,-0.71 q -3.5,-2.62 -6.23,0.16"
       id="path96" />
    <path
       stroke="#936f4e"
       vector-effect="non-scaling-stroke"
       d="m 677.52,497.04 q 1.12,4.07 5.77,2.44 3.92,-1.37 7.09,-3.23 c 3.25,-1.92 4.1,-5.72 -0.26,-7.17"
       id="path97" />
    <path
       stroke="#7f5f6e"
       vector-effect="non-scaling-stroke"
       d="m 288.89,543.74 q -6.01,2.28 -8.55,8.12"
       id="path98" />
    <path
       stroke="#5d425a"
       vector-effect="non-scaling-stroke"
       d="m 280.34,551.86 q -3,3.85 -2.19,10.56 a 1.92,1.91 -89.4 0 0 1.62,1.66 q 5.61,0.84 11.36,-1.2 9.58,-3.41 14.78,-5.67 c 6.52,-2.84 12.55,-3.68 19.01,-3.84 a 0.73,0.73 0 0 0 0.51,-1.23 c -2.48,-2.63 -4.67,-3.7 -8.39,-5.56 q -12.34,-6.16 -26,-3.78 a 1.27,1.12 -59.9 0 0 -0.33,0.11 l -1.82,0.83"
       id="path99" />
    <path
       stroke="#936f4e"
       vector-effect="non-scaling-stroke"
       d="m 280.34,551.86 q 0.07,2.83 1.46,3.7 c 2.88,1.79 11.23,-4.4 10.18,-7.75 q -0.87,-2.77 -3.09,-4.07"
       id="path100" />
    <path
       stroke="#5d425a"
       vector-effect="non-scaling-stroke"
       d="m 677.66,568.27 a 0.38,0.38 0 0 0 0.6,0.36 q 8.35,-5.71 18.05,-9.86 3.58,-1.53 6.84,-3.34 a 3.38,3.37 -16 0 0 1.73,-3.11 c -0.21,-4.62 -2.38,-12 -8.95,-9.43 -3.19,1.25 -5.03,2.71 -9.04,5.49 a 8.39,8.17 -86.4 0 0 -1.58,1.43 q -6.4,7.57 -7.65,18.46"
       id="path101" />
  </g>
  <g
     fill="#49327a"
     id="g117"
     transform="matrix(1.8070717,0,0,1.8154449,-412.42349,-343.71147)">
    <path
       d="m 343.21,579.35 q 0.01,-0.03 -0.14,-5.8 c -0.18,-6.52 1.03,-12.95 3.25,-19.19 1.42,-3.99 3.65,-7.23 6.26,-10.55 a 0.62,0.62 0 0 0 -0.16,-0.92 q -3.38,-2.05 -5.8,-4.93 c -1.96,-2.33 1.54,-6.14 2,-7.49 a 0.34,0.34 0 0 0 -0.5,-0.39 q -3.07,1.95 -5.51,1.19 -1.33,-0.41 -3.18,-4.4 -3.18,-6.84 -3.71,-8.33 -1.7,-4.79 2.63,-7.71 12.68,-8.57 29.13,-18.35 14.29,-8.51 26.67,-13.57 12.31,-5.05 26.37,-9.3 a 0.46,0.46 0 0 0 0.2,-0.76 c -22.08,-22.97 -32.16,-49.89 -28.54,-81.99 a 0.49,0.48 -89 0 0 -0.51,-0.54 q -6.34,0.43 -6.61,0.44 c -9.02,0.46 -17.97,-1.13 -18.71,-11.63 q -0.56,-7.89 1.88,-16.18 5.74,-19.49 16.04,-36.68 c 4.72,-7.88 13.54,-18.94 22.23,-21.53 7.77,-2.31 13.49,0.51 18.97,5.8 q 5.08,4.92 10.07,11.57 a 0.92,0.92 0 0 0 1.18,0.25 c 4.99,-2.76 8.58,-5 13.06,-7.04 q 30.01,-13.65 62.59,-9.42 c 11.1,1.44 21.77,5.52 31.94,9.79 q 4,1.68 7.9,4.18 a 0.75,0.75 0 0 0 1.01,-0.18 q 4.1,-5.43 8.95,-10.87 c 7.77,-8.72 16.41,-13.2 27.18,-7.59 6.44,3.35 13.41,12.01 17.47,18.9 q 13.06,22.18 17.96,45.11 c 1.7,7.93 0.89,17.29 -8.7,18.95 q -6.57,1.14 -14.88,0.36 a 0.67,0.67 0 0 0 -0.73,0.79 q 4.22,22.25 -1.74,43.61 c -1.55,5.56 -3.16,11.45 -6.03,16.75 a 0.26,0.26 0 0 0 0.38,0.33 q 21.62,-14.61 24.18,-16.31 c 3.46,-2.29 7.71,-4.31 11,-0.08 q 4.02,5.18 6.28,8.6 1.26,1.9 0.1,4.41 -1.99,4.29 -2.54,8.12 a 0.49,0.49 0 0 0 0.69,0.52 q 2.34,-1.11 4.15,-1.77 c 3.05,-1.11 4.42,-2.08 6.36,0.68 q 1.83,2.61 4.06,6.21 c 3.22,5.2 0.27,8.12 -3.42,12.37 q -2.84,3.28 -4.62,5.04 c -14.13,14.06 -31.43,33.2 -45.53,47.97 q -1.35,1.42 -1.66,2.81 a 0.48,0.47 -81.9 0 0 0.42,0.57 q 1.98,0.18 5.13,-0.28 4.12,-0.59 12.84,-1.82 10.93,-1.54 21.86,0.68 a 0.25,0.25 0 0 0 0.26,-0.38 c -5.9,-8.72 -7.78,-20.71 1.03,-28.44 q 4.98,-4.37 11.4,-3 c 7.15,1.53 8.63,8.71 6.33,14.75 q -0.78,2.06 -4.69,6.53 -6.02,6.89 -7.24,8.52 -1.06,1.42 -3.41,2.51 a 0.21,0.2 42.2 0 0 0.02,0.38 c 12.24,4.48 23.05,13.44 29.71,24.56 q 3.22,5.38 4.43,13.36 1.98,13.03 -2.08,24.59 a 0.53,0.52 -87.4 0 0 0.62,0.69 q 9.08,-2.32 17.99,-2.79 19.58,-1.01 23,-1.19 10.76,-0.57 18.15,0.25 c 8.65,0.96 16.11,6.41 16.55,15.63 0.43,9.16 -8.56,13.03 -15.95,14.79 q -7.2,1.73 -28.96,7.28 -4.18,1.06 -3.56,4.67 c 0.38,2.17 1.41,6.57 1.17,9.07 -0.89,9.27 -8.76,13.52 -16.83,16.83 -12.98,5.32 -29.54,8.96 -43.63,6.31 -17.16,-3.22 -35.61,-6.77 -51.83,-2.05 -23.15,6.74 -45.89,16.76 -67.22,28.02 q -3.6,1.9 -12.12,4.87 c -5.7,1.98 -13.9,3.38 -19.32,-0.11 q -7.53,-4.85 -9.15,-12.81 a 7.5,7.45 -50.5 0 1 -0.16,-1.72 c 0.08,-4.89 1.26,-15.29 -4.01,-17.63 -7.51,-3.35 -16.85,-1 -24.82,1.82 -6.49,2.29 -13.55,5.28 -20.53,7.24 q -19.62,5.51 -37.2,7.8 -6.68,0.88 -12.31,0.67 c -9.11,-0.33 -18.54,-5.62 -19.41,-15.38 -0.48,-5.49 1.32,-10.07 2.55,-15.34 a 0.63,0.63 0 0 0 -0.69,-0.76 q -2.36,0.32 -5.7,1.24 -1.76,0.49 -18.08,4.92 c -12.88,3.5 -27.93,0.22 -39.56,-5.54 -7.69,-3.82 -7.18,-10.99 -1.38,-16.46 q 6.65,-6.29 15.14,-8.12 0.77,-0.17 11.12,-2.26 c 5.07,-1.03 6.34,-4.98 7.31,-9.59 q 2.05,-9.73 12.22,-10.08 1.51,-0.05 2.75,-0.19 a 0.41,0.41 0 0 0 0.37,-0.46 l -1.3,-11.57 a 0.25,0.25 0 0 0 -0.48,-0.05 q -0.92,2.47 -2.13,3.59 c -3.76,3.49 -9.26,6.41 -13.08,8.89 q -9.02,5.88 -19.62,7.65 -3.22,0.54 -8.39,-0.9 c -7.21,-2.01 -8.26,-8.45 -5.2,-14.7 5.14,-10.48 15.65,-16.54 27.41,-14.03 q 1.5,0.31 8.71,3.13 a 6.86,6.77 -30.7 0 0 1.74,0.43 c 3.11,0.33 8.8,0.75 10.21,4.13 a 0.38,0.37 -42.1 0 0 0.68,0.03 z M 540.66,358.07 q 11.55,2.03 20.61,7.21 4.32,2.47 6.61,3.02 c 13.03,3.14 26.13,5.19 39.36,5.35 q 5.95,0.08 10.05,-1.35 1.76,-2.97 0.96,-7.57 -3.13,-17.96 -9.11,-29.35 -7.76,-14.77 -9.83,-18.16 -3.38,-5.54 -9.79,-11.53 c -6.71,-6.28 -13.75,-4.72 -19.87,1.22 q -5.51,5.36 -9.88,11.36 -10.94,15.05 -22.38,32.62 -1.46,2.24 -3.29,5.83 a 0.55,0.55 0 0 0 0.44,0.8 z m -167.42,14.16 q -0.89,1.7 -0.08,4.39 c 1.07,3.52 8.07,3.19 11.1,3.02 15,-0.84 27.1,-3.14 41.84,-6.57 a 9.05,8.93 23.6 0 0 2.24,-0.86 c 3.48,-1.92 7.33,-4.54 10.92,-6 q 8.17,-3.33 17,-3.59 a 0.39,0.39 0 0 0 0.36,-0.5 q -0.66,-2.04 -2.04,-3.9 c -2.96,-5.58 -6.58,-10.02 -9.52,-15.16 -1.44,-2.53 -3.48,-5.34 -4.72,-6.9 q -6.78,-8.45 -13,-17.26 -3.34,-4.74 -7.84,-8.61 c -12.14,-10.43 -25.03,7.82 -29.66,16.7 -3.12,6.01 -6.12,11.24 -9.51,18.32 q -3.71,7.75 -6.11,16.21 -1.41,4.98 -0.98,10.71 z m 68.27,-45.89 23.9,35.88 a 2.25,2.25 0 0 0 1.56,0.98 c 9.46,1.36 21.76,6.33 27.22,14.71 a 0.32,0.32 0 0 0 0.56,-0.04 c 5.68,-11.77 16.77,-17.02 28.97,-19.19 a 3.47,3.42 -78.5 0 0 2.31,-1.55 l 11.82,-18.83 10.95,-15.94 a 0.6,0.59 -57.8 0 0 -0.19,-0.85 c -11.82,-6.93 -24.55,-10.8 -37.87,-12.71 -23.47,-3.37 -50.11,2.13 -69.84,15.38 a 0.82,0.82 0 0 0 -0.34,0.88 q 0.18,0.73 0.95,1.28 z M 501.56,378 a 34.15,22.82 0.2 0 0 0,16.96 34.13,22.81 0.2 0 0 11.38,9.87 34.12,22.81 0.1 0 0 21.31,4.49 34.14,22.8 0.2 0 0 19.9,-4.73 34.13,22.8 0.2 0 0 10.27,-8.73 34.14,22.82 0.2 0 0 2.9,-10.6 34.23,22.87 0.2 0 0 -6.09,-11.74 34.12,22.81 0.2 0 0 -25.72,-9.74 34.11,22.79 0.2 0 0 -20.14,3.3 34.09,22.74 0.1 0 0 -13.81,10.92 z m -74.39,4.73 a 34.05,22.73 0.3 0 0 -2.55,10.25 34.18,22.82 0 0 0 5.7,11.2 34.2,22.8 0.1 0 0 16.94,8.81 34.17,22.79 0.2 0 0 27.78,-1.42 34.22,22.79 0.1 0 0 14.02,-9.52 34.19,22.81 0.1 0 0 -1.21,-22.43 34.17,22.81 0.1 0 0 -32.36,-10.8 34.17,22.81 0.1 0 0 -28.32,13.91 z m 146.15,2.42 -0.8,8.48 a 0.68,0.67 0.7 0 0 0.72,0.73 l 20.82,-1.32 a 0.65,0.65 0 0 0 0.61,-0.69 l -0.27,-4.96 -1.08,-7.03 a 0.67,0.66 -89.5 0 0 -0.54,-0.56 l -21.31,-3.78 a 0.29,0.28 -1.9 0 0 -0.33,0.35 z m -174.43,7.86 -0.24,13.54 a 0.64,0.63 86.9 0 0 0.71,0.64 l 22.07,-2.49 a 0.64,0.63 -18.5 0 0 0.48,-0.95 q -4.86,-8.22 -2.69,-18.16 l 1.54,-3.68 a 0.64,0.64 0 0 0 -0.71,-0.87 l -19.72,3.95 a 0.84,0.83 87.2 0 0 -0.67,0.74 z m 180.82,7.84 -11.04,0.13 a 1.56,1.53 18.6 0 0 -1.22,0.59 C 561.1,409.6 550.57,413.25 540.3,415 a 0.25,0.25 0 0 0 -0.07,0.47 c 13.22,6.56 22.39,19.42 21.79,34.55 -1.15,11.67 -9.9,22.08 -19.38,28.51 Q 519.08,492.85 491,489.39 c -15.06,-1.86 -31.22,-8.9 -39.81,-21.76 q -10.89,-16.29 -1.25,-33.15 4.82,-8.43 12.35,-13.85 a 0.17,0.17 0 0 0 -0.11,-0.31 q -18.93,1.27 -33.62,-9.81 a 1.75,1.74 -32 0 0 -1.41,-0.32 q -12.67,2.65 -26.99,3.59 a 0.57,0.56 -3.6 0 0 -0.53,0.59 q 0.06,1.27 0.53,3.22 c 3.19,13.27 7.75,23.95 15.85,34.83 21.61,29.02 58.43,43.82 94.48,38.79 q 16.58,-2.31 32.54,-9.87 10.78,-4.84 19.96,-12.85 20.26,-17.67 28.59,-42.63 3.95,-11.85 3.71,-25.44 a 0.48,0.48 0 0 0 -0.51,-0.47 z m -87.57,7.65 12.49,-0.79 a 0.31,0.31 0 0 0 0.14,-0.57 q -4.62,-2.82 -7.11,-7.09 a 0.47,0.47 0 0 0 -0.81,0 l -4.79,8.31 a 0.09,0.09 0 0 0 0.08,0.14 z m -17.42,11.96 a 51,33.68 -4.2 0 0 -13.84,9.44 51.02,33.71 -4.2 0 0 -8.73,14.99 51.03,33.71 -4.1 0 0 3.99,18.48 51.07,33.77 -4.2 0 0 20.11,14.2 51.02,33.76 -4.1 0 0 24.74,3.83 51.02,33.74 -4.2 0 0 35.61,-10.05 51.14,33.75 -4.2 0 0 7.69,-6.06 50.72,33.42 -4.3 0 0 5.91,-7.59 51.1,33.76 -4.2 0 0 3.19,-14.97 51.14,33.81 -4.3 0 0 -5.47,-12.44 51,33.63 -4.1 0 0 -17.73,-12.22 51.03,33.72 -4.2 0 0 -55.47,2.39 z m 134.08,20.53 22.83,26.07 a 0.84,0.83 45.4 0 0 1.25,0.01 l 8.75,-9.69 a 1.4,1.39 -39.7 0 0 0.16,-1.65 c -1.2,-1.98 -3.06,-3.77 -5.65,-2.29 -6.21,3.54 -12.9,-0.4 -10.91,-7.72 q 0.22,-0.79 2.7,-7.32 a 3.18,3.16 34.9 0 0 -0.58,-3.22 l -3.44,-3.93 a 0.78,0.78 0 0 0 -0.93,-0.19 q -8.11,3.93 -14.12,9.1 a 0.59,0.58 49.4 0 0 -0.06,0.83 z m -27.6,61.81 6,10.34 a 0.62,0.62 0 0 0 0.96,0.13 q 14.92,-14.6 28.88,-30.23 4.59,-5.14 9.77,-10.37 a 0.68,0.68 0 0 0 0.04,-0.92 l -4.86,-5.82 -19.26,-21.64 a 0.67,0.66 -38.9 0 0 -0.89,-0.09 q -6.63,4.95 -10.1,6.77 -1.45,0.76 -3.03,0.22 a 1.34,1.33 -61.1 0 0 -1.48,0.43 q -4.71,5.87 -9.37,11.75 -4.99,6.3 -13.27,12.54 a 1.21,1.21 0 0 0 -0.27,1.63 z m -208.91,10.8 8.31,10.36 a 1.04,1.03 -25.5 0 0 1.03,0.36 c 5.79,-1.23 11.79,-2.2 18.22,-1.96 q 8.79,0.32 18.38,1.14 a 0.52,0.52 0 0 0 0.56,-0.44 c 0.82,-5.41 2.2,-10.92 4.29,-16.12 q 4.71,-11.72 10.99,-23.95 l 1.36,-2.1 a 0.63,0.62 -54.8 0 0 -0.14,-0.84 l -7.52,-5.63 a 0.94,0.94 0 0 0 -0.99,-0.08 q -0.99,0.48 -17.06,6.17 -11.36,4.02 -22.6,9.26 c -8.28,3.86 -15.24,8.51 -22.94,13 a 0.35,0.35 0 0 0 -0.1,0.52 z M 546.5,486.86 q -8.18,15.41 -16.36,26.28 -7.29,9.69 -19.13,9.33 -11.14,0.24 -17.25,-0.73 -7.55,-1.18 -13.05,-6.67 -9.12,-9.1 -15.75,-19.79 a 4.28,4.27 -5.7 0 0 -2.14,-1.75 l -13.92,-5.18 -7.62,-4.15 a 0.49,0.48 28.5 0 0 -0.65,0.19 q -9.81,18.01 -15.57,38.85 a 0.76,0.76 0 0 0 0.66,0.96 q 19.28,1.79 38.98,1.35 l 49.12,-0.78 48.96,-1.84 21.78,-0.61 a 0.51,0.5 -17.4 0 0 0.41,-0.78 l -26.05,-40.51 a 0.71,0.71 0 0 0 -1.04,-0.17 q -5.13,4.05 -11.38,6 z m -71.58,9.64 a 0.36,0.35 -10.8 0 0 -0.38,0.55 q 4.81,6.41 9.86,12.06 c 6.22,6.95 14.71,7.04 23.29,6.91 7.2,-0.12 10.52,0.12 15.91,-6.08 q 7.02,-8.08 11.75,-17.14 a 0.45,0.45 0 0 0 -0.56,-0.63 q -12.13,4.8 -24.7,6.02 c -11.76,1.15 -24.18,1.22 -35.17,-1.69 z m 161.57,14.46 c 2.1,-2.75 5.52,-5.38 7.25,-8.18 q 2.1,-3.39 2.07,-4.02 -0.16,-4.68 -4.03,-4.41 c -8,0.57 -8.41,10.55 -6.66,16.36 a 0.78,0.78 0 0 0 1.37,0.25 z m -279.81,8.24 q 4.1,2.38 2.12,6.8 -1.57,3.49 -4.59,8.62 a 1.25,1.24 -53.8 0 0 0.24,1.56 l 1.84,1.67 a 1.01,1 49.5 0 0 1.21,0.1 l 16.71,-10.75 a 0.33,0.33 0 0 0 0.07,-0.48 l -9.19,-11.22 -6.47,-8.5 a 0.93,0.93 0 0 0 -1.24,-0.22 l -13.74,8.84 a 1.8,1.8 0 0 0 -0.69,2.22 l 1.73,4.1 a 1.54,1.54 0 0 0 2.17,0.75 q 4.49,-2.52 9.83,-3.49 z M 602.27,619.21 620,615 a 3.83,3.81 19.3 0 0 1.4,-0.67 q 0.89,-0.63 2.44,-2.99 c 5.2,-7.88 10.39,-14.71 12.39,-21.5 3.17,-10.8 2.71,-23.09 0.2,-34.05 -2.65,-11.56 -10.57,-20.6 -18.91,-28.64 -1.54,-1.48 -2.98,-1.87 -5.03,-1.53 q -9.94,1.66 -18.15,2.24 a 0.33,0.33 0 0 0 -0.21,0.57 c 5.96,5.77 13.36,15.03 16.18,23.65 2.42,7.39 3.6,17.72 3.72,26.89 0.12,9.18 -2.33,17.92 -6.15,26.46 q -5.04,11.27 -6.05,13.22 a 0.39,0.39 0 0 0 0.44,0.56 z m 42.18,-58.81 c 1.14,11.58 1.32,23.91 -2.77,34.81 -1.84,4.89 -4.35,8.17 -7.82,13.73 a 0.39,0.39 0 0 0 0.45,0.58 c 13.93,-4.25 22.09,-14.99 27.5,-28.48 q 3.79,-12.69 0.81,-25.43 c -1.07,-4.55 -2.92,-7.82 -5.73,-11.33 q -11.91,-14.89 -30.14,-18.73 a 0.35,0.35 0 0 0 -0.34,0.58 c 4.13,4.75 7.84,8.43 10.74,13.43 q 5.65,9.75 7.3,20.84 z M 409.24,529.64 c -6.33,-0.59 -14.13,-1.29 -19.81,0.55 a 2.58,2.56 8.7 0 0 -1.29,0.94 c -9.22,12.84 -18.38,29.02 -17.77,45.37 q 0.32,8.66 2.04,13.83 2.9,8.69 12.67,27.11 1.38,2.61 4.72,3.56 9.27,2.62 17.26,4.36 a 0.4,0.4 0 0 0 0.39,-0.64 q -9.68,-12.21 -14.79,-26.76 c -8.39,-23.91 -0.48,-49.84 16.81,-67.7 a 0.37,0.37 0 0 0 -0.23,-0.62 z m 118.78,15.11 q 2.63,6.11 3.77,11.23 c 4.6,20.59 6.23,42.31 -0.41,62.4 q -2.8,8.47 -3.69,11.33 a 0.74,0.74 0 0 0 0.77,0.95 q 32.28,-2.69 62.73,-8.77 a 2.56,2.52 7.9 0 0 1.75,-1.3 q 5.19,-9.84 10.8,-22.84 c 5.77,-13.38 4.09,-32.41 -1.03,-45.88 q -4.33,-9.22 -11.34,-16.25 -4.29,-4.31 -6.1,-6.34 a 1.16,1.15 -22 0 0 -0.9,-0.38 l -63.7,2.41 a 0.26,0.25 -18.7 0 0 -0.2,0.4 q 4.7,6.63 7.55,13.04 z m -121.68,1.03 c -11.82,16.92 -11.89,35.67 -5.17,54.69 3.16,8.95 10.29,18.17 15.58,25.27 a 4.14,4.12 75.6 0 0 2.73,1.62 q 12.85,1.8 23.52,2.59 28.76,2.14 56.2,1.92 a 0.44,0.44 0 0 0 0.42,-0.56 c -0.71,-2.5 -3.54,-5.91 -6.34,-10.09 q -12.2,-18.22 -13.98,-41 -0.94,-12.12 1.09,-20.8 1.34,-5.77 5.31,-14.16 l 5.55,-12.38 a 0.42,0.42 0 0 0 -0.4,-0.59 c -22.37,0.78 -48.1,0.93 -71.64,-1.91 a 1.33,1.32 22.6 0 0 -1.2,0.49 z m 104.91,-14.15 -11.07,0.42 a 1.26,1.25 -78.1 0 0 -1.08,0.71 c -7.69,15.89 -14.06,26.81 -13.68,41.49 q 0.59,22.65 12.79,41.82 4.64,7.29 9.96,15.06 a 0.85,0.82 -17.1 0 0 0.71,0.36 l 10.46,-0.4 a 1.04,1.04 0 0 0 0.93,-0.68 q 3.91,-10.94 6.8,-22.08 c 3.98,-15.34 1.99,-33.76 -1.55,-49.34 -2.35,-10.33 -7,-17.4 -13.13,-26.77 a 1.33,1.31 -17.1 0 0 -1.14,-0.59 z m -154.86,18.62 c -4.96,7.76 -6.94,18.78 -6.29,27.55 0.9,11.97 3.1,21.94 12.92,28.9 q 5.96,4.23 11.42,7.14 a 0.42,0.42 0 0 0 0.58,-0.56 c -4.86,-9.89 -9.15,-18.96 -11.07,-30.65 -2.12,-12.87 1.34,-23.94 6.75,-35.61 l 6.89,-13.12 a 0.39,0.38 -89.1 0 0 -0.51,-0.53 q -12.16,6.15 -20.69,16.88 z m -52.54,34.68 q -1.83,1.53 -2.68,3.93 -2.21,1.7 -1.03,4.31 a 1.18,1.16 -1.7 0 0 0.66,0.61 c 10.31,3.7 21.59,-4.79 30.71,-10.23 a 0.86,0.8 -34.7 0 0 0.27,-1.22 q -0.17,-0.23 -0.82,-0.5 c -5.9,-2.5 -12.59,-4.47 -19.15,-3.22 q -5.76,1.09 -7.96,6.32 z m 344.73,25.7 q -6.56,3.47 -8.38,4.07 -8.01,2.67 -14.83,6.1 a 7.59,7.24 24.6 0 1 -1.88,0.65 c -5.23,1.03 -10.9,2.39 -15.9,4.89 a 2.78,2.62 27.3 0 1 -0.94,0.27 q -10.55,0.94 -19.58,2.96 c -6.38,1.44 -11.45,2.13 -16.61,3.22 q -6.33,1.35 -12.51,1.96 -8.97,0.89 -32.19,2.92 -12.86,1.13 -30.69,0.83 -32.12,-0.53 -40.07,-0.86 -18.32,-0.75 -25.25,-1.66 -13.8,-1.83 -16.28,-2.06 -8.88,-0.86 -16.04,-3.09 -17.42,-5.42 -32.09,-13.66 -3.98,-2.23 -11.46,-9.55 c -3.21,-3.43 -5.72,-8.5 -10.85,-8 -2.75,0.27 -5.79,1.35 -6.54,4.15 -2,7.43 -5.04,13.82 -12.97,15.75 q -2.68,0.65 -10.21,1.81 c -5.46,0.83 -11.07,5.35 -14.76,9.43 a 1.31,1.3 -49.4 0 0 0.14,1.9 q 1.4,1.14 3.29,1.73 1.61,1.82 3.24,2.18 5.04,1.08 13.39,3 6.03,1.38 14.86,-0.22 5.56,-1 18.03,-5.02 2.92,-0.94 9.69,-1.68 c 3.07,-0.34 5.36,0.74 6,3.85 q 0.4,2 0.09,3.77 -0.74,4.25 -1.87,11.98 c -0.83,5.68 2.16,7.86 6.96,10.54 3.4,1.91 8.62,1.67 12.4,1.26 q 8.29,-0.89 14.71,-2.11 7.87,-1.49 23.4,-5.61 c 9.2,-2.43 20.95,-7.55 31.14,-10.06 4.99,-1.23 10.14,-1.93 14.87,-0.37 a 3.35,3.2 -34.2 0 0 0.95,0.16 q 4.89,0.16 8.8,2.91 a 3.32,3.22 1.2 0 1 0.78,0.79 q 4.35,6.32 4.29,12.24 -0.08,7.73 0.22,10.46 c 1.26,4.5 4.69,7.85 9.48,8.02 7.24,0.25 14.78,-2.43 21.56,-6.03 q 8.89,-4.73 17.53,-9.09 c 6.52,-3.29 16.01,-6.33 24,-9.83 q 5.8,-2.3 11.94,-4.76 6.67,-2.67 12.18,-4.01 13.23,-3.22 26.63,-3.01 8.2,0.12 24.58,3.29 9.23,1.78 12.89,1.75 8.21,-0.08 13.02,-0.92 1.57,-0.27 9.56,-2.21 c 6.21,-1.5 11.27,-4.62 17.07,-7.12 4.19,-1.8 7.28,-4.67 5.96,-9.42 q -1.53,-5.5 0.1,-11.02 1.29,-4.37 6.52,-6.4 4.71,-1.82 9.11,-2.67 4.02,-0.77 7.07,-1.57 7.89,-2.06 15.79,-4.02 3.87,-0.41 6.64,-2.86 c 4.41,-3.89 1.79,-10.11 -2.87,-12.27 q -2.85,-1.32 -6.76,-1.66 -8.01,-0.7 -19.92,-0.02 c -9.03,0.51 -18.06,0.75 -26.9,2.18 q -6.78,1.09 -12.69,2.35 -1.81,0.39 -3.07,2.19 c -4.38,6.28 -7.55,13 -14.77,17.28 z"
       id="path106" />
    <path
       d="m 550.27,393.55 a 2.13,2.09 -4.7 0 1 -1.87,2.17 q -1.7,0.21 -3.15,-1.25 -3.06,-3.08 -6.41,-6.4 c -3.31,-3.29 -5.84,-6.41 -9.89,-2.22 q -3.21,3.31 -5.62,5.58 -2.64,2.46 -5,0.36 a 2.68,2.32 -53.9 0 1 -0.27,-3.21 q 3.87,-6.27 9.95,-10.02 c 8.03,-4.96 16.73,3.53 20.84,10.32 q 1.31,2.19 1.42,4.67 z"
       id="path107" />
    <path
       d="m 442.44,397.7 -0.08,-0.12 a 4.32,4.32 0 0 1 0.2,-4.96 q 6.25,-8.16 11.95,-11.58 c 4.14,-2.49 8.51,-1.57 12.27,1.83 3.32,3.01 6.79,5.96 7.19,10.21 a 2.49,2.21 -7.2 0 1 -2.13,2.44 c -2.48,0.38 -5.5,-3.45 -6.91,-5.03 -3.42,-3.83 -7.08,-5.28 -10.75,-0.97 q -3.99,4.67 -7.7,8.56 a 2.58,2.58 0 0 1 -4.04,-0.38 z"
       id="path108" />
    <ellipse
       cx="0"
       cy="0"
       transform="rotate(-90,467.025,-20.455)"
       rx="20.889999"
       ry="10.11"
       id="ellipse108" />
    <ellipse
       cx="0"
       cy="0"
       transform="rotate(-90.7,479.89523,-33.154366)"
       rx="20.76"
       ry="10.06"
       id="ellipse109" />
    <path
       d="m 665.41,534.35 c -8.55,-2.08 1.1,-30 3.4,-35.39 q 2.62,-6.11 5.39,-8.78 c 4.49,-4.34 10.81,-8.58 16.91,-9.05 10.4,-0.8 15.19,7.28 14.22,16.66 -0.57,5.56 -4.44,9.04 -9.02,12.24 q -3.24,2.26 -4.21,3.38 c -4.95,5.7 -9.77,9.84 -16.62,16.56 -2.76,2.7 -5.95,5.38 -10.07,4.38 z m 24.71,-45.27 q -7.57,1.63 -12.6,7.96 -1.14,0.85 -1.5,1.72 -5.3,12.61 -7.3,26.14 a 0.88,0.87 -18.5 0 0 1.49,0.74 q 4.98,-5.08 14.81,-14.75 c 6.23,-6.14 18.73,-10.99 11.99,-21.26 a 2.94,2.92 2.3 0 0 -0.66,-0.71 q -3.5,-2.62 -6.23,0.16 z"
       id="path109" />
    <path
       d="m 333.13,554.52 q -0.91,3.91 -4.9,4.52 c -6.98,1.06 -13.05,1.46 -18.28,3.64 -10.16,4.25 -18.13,7.81 -27.68,8.7 -10.03,0.94 -10.88,-8.49 -10.47,-15.75 q 0.18,-3.23 1.91,-6.69 c 8.57,-17.08 29.92,-15.75 44.8,-9.2 4.47,1.96 15.99,8.87 14.62,14.78 z m -44.24,-10.78 q -6.01,2.28 -8.55,8.12 -3,3.85 -2.19,10.56 a 1.92,1.91 -89.4 0 0 1.62,1.66 q 5.61,0.84 11.36,-1.2 9.58,-3.41 14.78,-5.67 c 6.52,-2.84 12.55,-3.68 19.01,-3.84 a 0.73,0.73 0 0 0 0.51,-1.23 c -2.48,-2.63 -4.67,-3.7 -8.39,-5.56 q -12.34,-6.16 -26,-3.78 a 1.27,1.12 -59.9 0 0 -0.33,0.11 z"
       id="path110" />
    <path
       d="m 679.7,576.87 c -3.19,2.09 -7.47,2.27 -8.14,-2.39 q -0.65,-4.5 0.64,-12.75 c 1.65,-10.48 8.46,-19.39 17.93,-23.63 7.6,-3.4 14.52,-3.68 18.66,4.38 3.81,7.44 4.3,16.77 -4.97,20.34 q -9.61,3.69 -14.07,6.26 c -3.77,2.17 -7.09,5.86 -10.05,7.79 z m -2.04,-8.6 a 0.38,0.38 0 0 0 0.6,0.36 q 8.35,-5.71 18.05,-9.86 3.58,-1.53 6.84,-3.34 a 3.38,3.37 -16 0 0 1.73,-3.11 c -0.21,-4.62 -2.38,-12 -8.95,-9.43 -3.19,1.25 -5.03,2.71 -9.04,5.49 a 8.39,8.17 -86.4 0 0 -1.58,1.43 q -6.4,7.57 -7.65,18.46 z"
       id="path111" />
  </g>
  <g
     fill="#e7a9dc"
     id="g123"
     transform="matrix(1.8070717,0,0,1.8154449,-412.42349,-343.71147)">
    <path
       d="m 537.85,338.3 -11.82,18.83 a 3.47,3.42 -78.5 0 1 -2.31,1.55 c -12.2,2.17 -23.29,7.42 -28.97,19.19 a 0.32,0.32 0 0 1 -0.56,0.04 c -5.46,-8.38 -17.76,-13.35 -27.22,-14.71 a 2.25,2.25 0 0 1 -1.56,-0.98 l -23.9,-35.88 q 6.66,-2.04 13.64,-2.62 c 20.27,-1.68 40.96,-2.47 61.39,4.9 6.81,2.45 14.97,4.14 21.31,9.68 z"
       id="path118" />
    <path
       d="m 579.71,400.85 q 0.8,3.36 0.57,4.98 -1.27,8.91 -4.23,18.81 c -2.14,7.16 -6.67,14.86 -10.14,20.77 q -1.55,2.63 -3.89,4.61 c 0.6,-15.13 -8.57,-27.99 -21.79,-34.55 A 0.25,0.25 0 0 1 540.3,415 c 10.27,-1.75 20.8,-5.4 27.15,-13.43 a 1.56,1.53 18.6 0 1 1.22,-0.59 z"
       id="path119" />
    <path
       d="m 542.64,478.53 0.39,2.81 q -15.96,7.56 -32.54,9.87 c -36.05,5.03 -72.87,-9.77 -94.48,-38.79 -8.1,-10.88 -12.66,-21.56 -15.85,-34.83 q -0.47,-1.95 -0.53,-3.22 a 0.57,0.56 -3.6 0 1 0.53,-0.59 q 14.32,-0.94 26.99,-3.59 a 1.75,1.74 -32 0 1 1.41,0.32 q 14.69,11.08 33.62,9.81 a 0.17,0.17 0 0 1 0.11,0.31 q -7.53,5.42 -12.35,13.85 -9.64,16.86 1.25,33.15 c 8.59,12.86 24.75,19.9 39.81,21.76 q 28.08,3.46 51.64,-10.86 z"
       id="path120" />
    <path
       d="m 621.99,465.93 c -2.86,2.77 -5.57,5.39 -8.77,7.96 q -15.19,12.13 -28.8,26.04 -1.42,1.45 -3.22,2.87 l -16.88,-25.26 a 1.21,1.21 0 0 1 0.27,-1.63 q 8.28,-6.24 13.27,-12.54 4.66,-5.88 9.37,-11.75 a 1.34,1.33 -61.1 0 1 1.48,-0.43 q 1.58,0.54 3.03,-0.22 3.47,-1.82 10.1,-6.77 a 0.67,0.66 -38.9 0 1 0.89,0.09 z"
       id="path121" />
    <path
       d="m 434.07,482.99 q -6.28,12.23 -10.99,23.95 c -2.09,5.2 -3.47,10.71 -4.29,16.12 a 0.52,0.52 0 0 1 -0.56,0.44 q -9.59,-0.82 -18.38,-1.14 c -6.43,-0.24 -12.43,0.73 -18.22,1.96 a 1.04,1.03 -25.5 0 1 -1.03,-0.36 l -8.31,-10.36 c 3.87,-1.88 7.79,-4.69 11.06,-6.33 4.22,-2.11 8.22,-4.25 12.42,-6.87 q 11.48,-7.17 23.57,-11.73 1.75,-0.67 6.41,-3.08 4.09,-2.12 8.32,-2.6 z"
       id="path122" />
    <path
       d="m 474.92,496.5 c 10.99,2.91 23.41,2.84 35.17,1.69 q 12.57,-1.22 24.7,-6.02 a 0.45,0.45 0 0 1 0.56,0.63 q -4.73,9.06 -11.75,17.14 c -5.39,6.2 -8.71,5.96 -15.91,6.08 -8.58,0.13 -17.07,0.04 -23.29,-6.91 q -5.05,-5.65 -9.86,-12.06 a 0.36,0.35 -10.8 0 1 0.38,-0.55 z"
       id="path123" />
  </g>
  <g
     fill="#715239"
     id="g129"
     transform="matrix(1.8070717,0,0,1.8154449,-412.42349,-343.71147)">
    <path
       d="m 677.52,497.04 q 1.12,4.07 5.77,2.44 3.92,-1.37 7.09,-3.23 c 3.25,-1.92 4.1,-5.72 -0.26,-7.17 q 2.73,-2.78 6.23,-0.16 a 2.94,2.92 2.3 0 1 0.66,0.71 c 6.74,10.27 -5.76,15.12 -11.99,21.26 q -9.83,9.67 -14.81,14.75 a 0.88,0.87 -18.5 0 1 -1.49,-0.74 q 2,-13.53 7.3,-26.14 0.36,-0.87 1.5,-1.72 z"
       id="path124" />
    <path
       d="m 636.49,510.96 a 0.78,0.78 0 0 1 -1.37,-0.25 c -1.75,-5.81 -1.34,-15.79 6.66,-16.36 q 3.87,-0.27 4.03,4.41 0.03,0.63 -2.07,4.02 c -1.73,2.8 -5.15,5.43 -7.25,8.18 z"
       id="path125" />
    <path
       d="m 280.34,551.86 q 0.07,2.83 1.46,3.7 c 2.88,1.79 11.23,-4.4 10.18,-7.75 q -0.87,-2.77 -3.09,-4.07 l 1.82,-0.83 a 1.27,1.12 -59.9 0 1 0.33,-0.11 q 13.66,-2.38 26,3.78 c 3.72,1.86 5.91,2.93 8.39,5.56 a 0.73,0.73 0 0 1 -0.51,1.23 c -6.46,0.16 -12.49,1 -19.01,3.84 q -5.2,2.26 -14.78,5.67 -5.75,2.04 -11.36,1.2 a 1.92,1.91 -89.4 0 1 -1.62,-1.66 q -0.81,-6.71 2.19,-10.56 z"
       id="path126" />
    <path
       d="m 677.66,568.27 q 1.25,-10.89 7.65,-18.46 a 8.39,8.17 -86.4 0 1 1.58,-1.43 c 4.01,-2.78 5.85,-4.24 9.04,-5.49 6.57,-2.57 8.74,4.81 8.95,9.43 a 3.38,3.37 -16 0 1 -1.73,3.11 q -3.26,1.81 -6.84,3.34 -9.7,4.15 -18.05,9.86 a 0.38,0.38 0 0 1 -0.6,-0.36 z"
       id="path127" />
    <path
       d="m 301.17,588.86 c 2.31,6.19 14.08,-2.46 8.53,-6.41 -1.59,-1.13 -5.02,1.58 -5.85,2.48 q 2.2,-5.23 7.96,-6.32 c 6.56,-1.25 13.25,0.72 19.15,3.22 q 0.65,0.27 0.82,0.5 a 0.86,0.8 -34.7 0 1 -0.27,1.22 c -9.12,5.44 -20.4,13.93 -30.71,10.23 a 1.18,1.16 -1.7 0 1 -0.66,-0.61 q -1.18,-2.61 1.03,-4.31 z"
       id="path128" />
    <path
       d="m 728.92,603.44 q -7.9,1.96 -15.79,4.02 -3.05,0.8 -7.07,1.57 -4.4,0.85 -9.11,2.67 -5.23,2.03 -6.52,6.4 -1.63,5.52 -0.1,11.02 c 1.32,4.75 -1.77,7.62 -5.96,9.42 -5.8,2.5 -10.86,5.62 -17.07,7.12 q -7.99,1.94 -9.56,2.21 -4.81,0.84 -13.02,0.92 -3.66,0.03 -12.89,-1.75 -16.38,-3.17 -24.58,-3.29 -13.4,-0.21 -26.63,3.01 -5.51,1.34 -12.18,4.01 -6.14,2.46 -11.94,4.76 -6.34,0.21 -9.51,1.07 c -5.45,1.49 -12.46,3.28 -18.52,5.66 q -14.96,5.87 -30.1,10.04 a 3.84,3.73 -53 0 1 -0.77,0.12 q -6.51,0.29 -12.82,-3.15 a 0.49,0.48 23.6 0 0 -0.7,0.27 q -0.45,1.39 -0.15,2.92 -0.3,-2.73 -0.22,-10.46 0.06,-5.92 -4.29,-12.24 a 3.32,3.22 1.2 0 0 -0.78,-0.79 q -3.91,-2.75 -8.8,-2.91 a 3.35,3.2 -34.2 0 1 -0.95,-0.16 c -4.73,-1.56 -9.88,-0.86 -14.87,0.37 -10.19,2.51 -21.94,7.63 -31.14,10.06 q -15.53,4.12 -23.4,5.61 -6.42,1.22 -14.71,2.11 c -3.78,0.41 -9,0.65 -12.4,-1.26 -4.8,-2.68 -7.79,-4.86 -6.96,-10.54 q 1.13,-7.73 1.87,-11.98 0.31,-1.77 -0.09,-3.77 c -0.64,-3.11 -2.93,-4.19 -6,-3.85 q -6.77,0.74 -9.69,1.68 -12.47,4.02 -18.03,5.02 -8.83,1.6 -14.86,0.22 -8.35,-1.92 -13.39,-3 -1.63,-0.36 -3.24,-2.18 c 6.62,-1.42 15.48,-3.08 20.88,-7.72 q 0.36,-0.31 5.74,-4.82 4.23,-3.54 8.39,-9.11 2.42,-3.25 6.26,-4.51 2.96,-0.97 10.63,-0.61 7.48,7.32 11.46,9.55 14.67,8.24 32.09,13.66 7.16,2.23 16.04,3.09 2.48,0.23 16.28,2.06 6.93,0.91 25.25,1.66 7.95,0.33 40.07,0.86 17.83,0.3 30.69,-0.83 23.22,-2.03 32.19,-2.92 6.18,-0.61 12.51,-1.96 c 5.16,-1.09 10.23,-1.78 16.61,-3.22 q 9.03,-2.02 19.58,-2.96 a 2.78,2.62 27.3 0 0 0.94,-0.27 c 5,-2.5 10.67,-3.86 15.9,-4.89 a 7.59,7.24 24.6 0 0 1.88,-0.65 q 6.82,-3.43 14.83,-6.1 1.82,-0.6 8.38,-4.07 3.35,-0.65 6.54,-1.42 c 6.45,-1.56 13.04,-2.31 19.46,-3.47 q 8.11,-1.47 12.91,-1.95 14.08,-1.41 35.3,-0.57 0.73,0.03 2.14,-0.09 a 2.01,2.01 0 0 1 0.96,0.16 q 1.52,0.65 3.03,0.15 z"
       id="path129" />
  </g>
  <g
     fill="#569bea"
     id="g136"
     transform="matrix(1.8070717,0,0,1.8154449,-412.42349,-343.71147)">
    <path
       d="m 554.15,404.59 a 34.14,22.8 0.2 0 1 -19.9,4.73 34.12,22.81 0.1 0 1 -21.31,-4.49 34.13,22.81 0.2 0 1 -11.38,-9.87 34.15,22.82 0.2 0 1 0,-16.96 q 1.5,-0.04 3.04,-0.61 2.32,-0.86 2.93,-0.99 11.72,-2.47 22.85,-1.97 6.16,0.28 12.92,4.08 c 9.17,5.16 12.54,15.79 10.27,25.47 q -0.07,0.32 0.58,0.61 z m -3.88,-11.04 q -0.11,-2.48 -1.42,-4.67 c -4.11,-6.79 -12.81,-15.28 -20.84,-10.32 q -6.08,3.75 -9.95,10.02 a 2.68,2.32 -53.9 0 0 0.27,3.21 q 2.36,2.1 5,-0.36 2.41,-2.27 5.62,-5.58 c 4.05,-4.19 6.58,-1.07 9.89,2.22 q 3.35,3.32 6.41,6.4 1.45,1.46 3.15,1.25 a 2.13,2.09 -4.7 0 0 1.87,-2.17 z"
       id="path130" />
    <path
       d="m 475.04,411.57 a 34.17,22.79 0.2 0 1 -27.78,1.42 34.2,22.8 0.1 0 1 -16.94,-8.81 34.18,22.82 0 0 1 -5.7,-11.2 34.05,22.73 0.3 0 1 2.55,-10.25 q 14.96,-6.38 30.13,-5.12 c 6.36,0.53 11.76,2.83 16.96,5.62 3.23,1.73 6.93,3.77 8.02,7.51 q 1.18,4.1 -0.71,8.38 -2.55,5.79 -6.53,12.45 z m -32.6,-13.87 a 2.58,2.58 0 0 0 4.04,0.38 q 3.71,-3.89 7.7,-8.56 c 3.67,-4.31 7.33,-2.86 10.75,0.97 1.41,1.58 4.43,5.41 6.91,5.03 a 2.49,2.21 -7.2 0 0 2.13,-2.44 c -0.4,-4.25 -3.87,-7.2 -7.19,-10.21 -3.76,-3.4 -8.13,-4.32 -12.27,-1.83 q -5.7,3.42 -11.95,11.58 a 4.32,4.32 0 0 0 -0.2,4.96 z"
       id="path131" />
    <path
       d="m 594.4,387.39 0.27,4.96 a 0.65,0.65 0 0 1 -0.61,0.69 l -20.82,1.32 a 0.68,0.67 0.7 0 1 -0.72,-0.73 l 0.8,-8.48 c 7.82,0.22 13.87,0.58 21.08,2.24 z"
       id="path132" />
    <path
       d="m 419.22,385.59 q -2.17,9.94 2.69,18.16 a 0.64,0.63 -18.5 0 1 -0.48,0.95 l -22.07,2.49 a 0.64,0.63 86.9 0 1 -0.71,-0.64 l 0.24,-13.54 q 3.64,-2.02 7.07,-3.31 6.41,-2.42 13.26,-4.11 z"
       id="path133" />
    <path
       d="m 492.06,408.36 4.79,-8.31 a 0.47,0.47 0 0 1 0.81,0 q 2.49,4.27 7.11,7.09 a 0.31,0.31 0 0 1 -0.14,0.57 l -12.49,0.79 a 0.09,0.09 0 0 1 -0.08,-0.14 z"
       id="path134" />
    <path
       d="m 448.9,488.35 q 1.47,5.42 2.96,10.66 c 2.78,9.79 7.18,18.25 12.84,26.54 q -19.7,0.44 -38.98,-1.35 a 0.76,0.76 0 0 1 -0.66,-0.96 q 5.76,-20.84 15.57,-38.85 a 0.49,0.48 28.5 0 1 0.65,-0.19 z"
       id="path135" />
    <path
       d="m 546.5,486.86 q 5.16,10.33 8.69,20.05 1.56,4.29 3.58,8.09 2.08,3.91 4.01,7.93 l -48.96,1.84 q -0.82,0.24 -2.81,-2.3 11.84,0.36 19.13,-9.33 8.18,-10.87 16.36,-26.28 z"
       id="path136" />
  </g>
  <g
     fill="#e7b538"
     id="g140"
     transform="matrix(1.8070717,0,0,1.8154449,-412.42349,-343.71147)">
    <path
       d="m 602.71,551.87 c 5.12,13.47 6.8,32.5 1.03,45.88 q -5.61,13 -10.8,22.84 a 2.56,2.52 7.9 0 1 -1.75,1.3 q -30.45,6.08 -62.73,8.77 a 0.74,0.74 0 0 1 -0.77,-0.95 q 0.89,-2.86 3.69,-11.33 c 6.64,-20.09 5.01,-41.81 0.41,-62.4 q -1.14,-5.12 -3.77,-11.23 20.99,-0.21 41.48,0.85 c 8.69,0.46 17.42,0.43 26.99,1.28 q 2.33,0.2 2.98,2.53 0.48,1.72 0.75,1.9 2.15,1.41 2.49,0.56 z"
       id="path137" />
    <path
       d="m 485.7,545.26 q -3.97,8.39 -5.31,14.16 -2.03,8.68 -1.09,20.8 1.78,22.78 13.98,41 c 2.8,4.18 5.63,7.59 6.34,10.09 a 0.44,0.44 0 0 1 -0.42,0.56 q -27.44,0.22 -56.2,-1.92 -10.67,-0.79 -23.52,-2.59 a 4.14,4.12 75.6 0 1 -2.73,-1.62 c -5.29,-7.1 -12.42,-16.32 -15.58,-25.27 -6.72,-19.02 -6.65,-37.77 5.17,-54.69 q 33.89,-0.25 67.66,-1.09 4.67,-0.12 11.7,0.57 z"
       id="path138" />
    <path
       d="m 370.7,547.02 c -5.41,11.67 -8.87,22.74 -6.75,35.61 1.92,11.69 6.21,20.76 11.07,30.65 a 0.42,0.42 0 0 1 -0.58,0.56 q -5.46,-2.91 -11.42,-7.14 C 353.2,599.74 351,589.77 350.1,577.8 c -0.65,-8.77 1.33,-19.79 6.29,-27.55 l 0.21,0.64 a 0.65,0.65 0 0 0 1.14,0.17 l 1.63,-2.29 a 0.82,0.75 5 0 1 0.39,-0.3 q 5.3,-1.87 10.94,-1.45 z"
       id="path139" />
    <path
       d="m 661.81,581.04 c -5.41,13.49 -13.57,24.23 -27.5,28.48 a 0.39,0.39 0 0 1 -0.45,-0.58 c 3.47,-5.56 5.98,-8.84 7.82,-13.73 4.09,-10.9 3.91,-23.23 2.77,-34.81 q 6.69,3.36 9.35,6.3 4.79,5.29 5.95,13.25 0.28,1.89 2.06,1.09 z"
       id="path140" />
  </g>
  <path
     fill="#e8d1b2"
     d="m 929.52597,969.9626 q -16.33592,11.92749 -34.18979,21.93058 -1.60831,0.90772 -26.52784,11.49192 c -17.40207,7.3889 -39.26765,9.8214 -55.92886,11.419 q -11.81824,1.1437 -32.72605,1.18 -198.83208,0.1998 -316.11106,-0.054 -109.74345,-0.2358 -193.37471,-1.0709 c -8.20411,-0.091 -26.61818,0.3086 -37.65938,0.7625 -18.97426,0.7806 -37.51482,-1.8337 -56.92277,-6.3904 -16.29976,-3.8123 -33.91872,-11.34638 -46.17067,-17.48265 C 117.1027,985.33953 102.61,974.51948 86.70776,961.5209 68.311772,946.48891 52.95166,927.08179 41.729746,906.60357 Q 36.109755,896.36449 28.827255,881.38704 c -4.626104,-9.54922 -6.451248,-18.97138 -9.667832,-28.6477 Q 16.84637,845.82249 14.948944,835.45632 12.184125,820.49703 11.985348,817.90095 11.660074,813.6528 11.696216,789.12614 11.858852,668.29013 11.840781,257.2008 c 0,-19.80652 -0.704757,-44.60549 2.855175,-64.01258 q 4.445396,-24.30883 10.571366,-42.28173 1.283024,-3.73983 9.252209,-20.18774 5.023658,-10.38434 10.914712,-19.31634 7.914974,-12.018246 10.734006,-17.083342 A 27.575185,27.270119 85.348462 0 1 60.685927,88.27364 C 80.563716,68.158516 92.797591,54.306675 113.75963,42.397346 c 6.92109,-3.939507 13.80602,-9.240611 21.63065,-12.726269 q 29.76245,-13.270899 58.13348,-17.827665 c 15.61309,-2.4871611 31.73219,-3.3222595 49.29692,-3.3041129 q 208.73485,0.181544 548.21133,0.090734 10.15574,0 18.0165,0.3812498 c 9.27027,0.4538618 16.06487,0.3630898 23.9437,1.9243651 q 33.53925,6.68084 59.61527,20.351135 c 9.50522,4.974321 20.74518,10.838208 30.25039,18.099997 q 17.16718,13.107504 25.6785,21.422243 1.39144,1.361585 11.87246,13.107517 c 12.52301,14.069701 21.37765,29.10157 30.73829,47.12894 q 10.30028,19.86098 14.52888,39.05022 5.1683,23.43739 6.5416,41.31953 1.7165,22.16658 1.7527,78.37276 0.1266,250.42247 -0.091,502.06129 -0.036,26.34211 -3.885,45.91259 -8.0416,40.86568 -30.19632,76.44842 c -10.01118,16.08483 -24.01597,30.59022 -36.57512,44.09714 q -4.77068,5.1377 -13.6976,11.65514 z M 206.55275,708.01206 c -2.54797,-6.1362 -12.83021,-6.89868 -18.45021,-7.49778 a 12.271309,12.415961 49.16725 0 1 -3.1443,-0.78065 q -13.02897,-5.11955 -15.7396,-5.68233 c -21.25113,-4.55676 -40.24349,6.44482 -49.53183,25.47067 -5.52964,11.34654 -3.63221,23.03801 9.39678,26.68705 q 9.34256,2.61425 15.16132,1.63391 19.15496,-3.21335 35.45475,-13.88816 c 6.90302,-4.50228 16.84191,-9.80339 23.63649,-16.13931 q 2.18659,-2.03329 3.84907,-6.51743 a 0.4517679,0.45386123 0 0 1 0.8674,0.0907 l 2.34921,21.00469 a 0.74089936,0.7443324 0 0 1 -0.66863,0.8351 q -2.24077,0.25417 -4.96944,0.34493 -18.37795,0.63542 -22.08242,18.2997 c -1.75286,8.3692 -4.04784,15.54021 -13.2097,17.41011 q -18.70319,3.79429 -20.09462,4.10291 -15.34206,3.32227 -27.35909,14.74142 c -10.481,9.93049 -11.4026,22.94722 2.49376,29.88222 21.01623,10.45696 48.21268,16.41161 71.48777,10.05755 q 29.49139,-8.0424 32.67186,-8.93198 6.0356,-1.67021 10.30029,-2.25115 a 1.138455,1.1437302 0 0 1 1.24687,1.37974 c -2.22269,9.56741 -5.47542,17.88211 -4.60803,27.84891 1.57216,17.71875 18.61285,27.32246 35.07528,27.92156 q 10.17381,0.38126 22.24504,-1.21634 31.76832,-4.15738 67.22308,-14.16047 c 12.61333,-3.55828 25.37129,-8.98648 37.09917,-13.14384 14.40236,-5.11956 31.28043,-9.38584 44.85153,-3.30411 9.52325,4.24815 7.39091,23.12877 7.24634,32.00629 a 13.479421,13.598928 24.03089 0 0 0.28915,3.1226 q 2.92745,14.45092 16.5347,23.25582 c 9.79432,6.3359 24.61231,3.79429 34.91261,0.1997 q 15.39625,-5.39187 21.90171,-8.84121 c 38.54483,-20.44192 79.63765,-38.63266 121.47137,-50.86878 29.31068,-8.56888 62.65117,-2.12406 93.6605,3.72169 25.46164,4.8109 55.38676,-1.79729 78.84254,-11.45548 14.58307,-6.00911 28.80473,-13.72477 30.41303,-30.55394 0.4337,-4.5386 -1.42759,-12.52656 -2.11428,-16.46607 q -1.12039,-6.55376 6.43317,-8.47813 39.32188,-10.07572 52.3328,-13.21643 c 13.35427,-3.19519 29.59982,-10.22095 28.82279,-26.85045 -0.79511,-16.73839 -14.27588,-26.63257 -29.90704,-28.3754 q -13.35427,-1.48866 -32.79834,-0.45385 -6.18019,0.32677 -41.56264,2.16037 -16.10103,0.85326 -32.50922,5.06509 a 0.93968444,0.96217843 2.0924998 0 1 -1.1204,-1.25266 q 7.3367,-20.98655 3.75871,-44.6418 -2.18657,-14.48724 -8.00533,-24.25434 c -12.0351,-20.18774 -31.56952,-36.45413 -53.68808,-44.58731 a 0.38031902,0.36229279 44.92063 0 1 -0.0362,-0.68987 q 4.24662,-1.97885 6.1621,-4.55677 2.20463,-2.95918 13.0832,-15.46761 7.06566,-8.11504 8.47518,-11.85484 c 4.15626,-10.96529 1.4818,-24.00017 -11.43878,-26.77783 q -11.6014,-2.48716 -20.60059,5.44634 c -15.92033,14.03341 -12.52304,35.80059 -1.8613,51.63127 a 0.4517679,0.45386123 0 0 1 -0.46984,0.68987 q -19.75128,-4.03031 -39.50258,-1.23453 -15.75766,2.233 -23.20281,3.30411 -5.69227,0.83512 -9.2703,0.50834 a 0.84938776,0.87134778 6.6516186 0 1 -0.75893,-1.0348 q 0.56017,-2.52347 2.99971,-5.1014 c 25.47971,-26.81412 56.74206,-61.56175 82.27599,-87.08689 q 3.21659,-3.19519 8.34867,-9.14985 c 6.66809,-7.71562 11.99895,-13.01674 6.18016,-22.45705 q -4.02975,-6.53561 -7.33669,-11.27392 c -3.50572,-5.01061 -5.98142,-3.24964 -11.49297,-1.23448 q -3.27081,1.19818 -7.49936,3.21331 a 0.88546509,0.88956802 0 0 1 -1.24686,-0.94401 q 0.99389,-6.95315 4.58996,-14.74141 2.09621,-4.55679 -0.1807,-8.00611 -4.084,-6.20883 -11.34842,-15.61283 c -5.94529,-7.67935 -13.62533,-4.01216 -19.8778,0.14523 q -4.62608,3.08625 -43.69499,29.60991 a 0.46983862,0.47201567 0 0 1 -0.68668,-0.59912 c 5.1863,-9.62185 8.09566,-20.31482 10.89664,-30.40871 q 10.77013,-38.77788 3.1443,-79.17151 a 1.2107379,1.2163481 0 0 1 1.31915,-1.43421 q 15.01678,1.41604 26.88924,-0.65357 c 17.32982,-3.01363 18.79354,-20.00621 15.72153,-34.40269 q -8.85465,-41.62814 -32.45502,-81.89471 c -7.33672,-12.50842 -19.932,-28.23017 -31.56953,-34.31191 -19.46217,-10.18465 -35.07528,-2.05145 -49.11621,13.77925 q -8.7643,9.876 -16.17329,19.73388 a 1.3553038,1.3615836 0 0 1 -1.82515,0.32675 q -7.04758,-4.5386 -14.27585,-7.58855 c -18.37794,-7.75195 -37.6594,-15.15897 -57.71787,-17.77322 q -58.87441,-7.67934 -113.10463,17.10149 c -8.09568,3.70352 -14.58307,7.77011 -23.60036,12.78074 a 1.6625059,1.6702093 0 0 1 -2.13233,-0.45386 q -9.0173,-12.07269 -18.1972,-21.0047 c -9.90275,-9.6037 -20.23921,-14.72325 -34.28018,-10.52956 -15.70343,4.70199 -31.64179,24.78081 -40.17119,39.08652 q -18.61283,31.2075 -28.98542,66.59052 -4.40926,15.05005 -3.39731,29.3739 c 1.33725,19.06218 17.51052,21.94871 33.81033,21.11361 q 0.48789,-0.0181 11.94473,-0.79878 a 0.86739537,0.88956696 0.8168482 0 1 0.92161,0.98034 c -6.54161,58.27577 11.67369,107.14755 51.57382,148.84833 a 0.83125295,0.83510465 0 0 1 -0.36142,1.37974 q -25.40742,7.71564 -47.65249,16.88364 -22.37151,9.18616 -48.19458,24.63557 -29.72632,17.75506 -52.63998,33.3134 -7.82463,5.30112 -4.75259,13.9971 0.95773,2.705 6.70422,15.12265 3.34309,7.24363 5.74647,7.98795 4.40928,1.37976 9.95699,-2.16036 a 0.61440436,0.61725127 0 0 1 0.90352,0.70803 c -0.83125,2.45085 -7.15599,9.36768 -3.61413,13.59768 q 4.37311,5.22848 10.481,8.95013 a 1.1203844,1.1255758 0 0 1 0.28914,1.6702 c -4.71648,6.02728 -8.74623,11.90933 -11.31228,19.15297 -4.01167,11.32837 -6.19825,23.00168 -5.87298,34.83837 q 0.27107,10.47511 0.253,10.5296 a 0.67018605,0.68825342 42.920802 0 1 -1.22882,-0.0544 z m 583.4673,-81.64056 c 7.44511,1.81547 13.20967,-3.04995 18.1972,-7.95163 12.37845,-12.19979 21.08852,-19.71575 30.03351,-30.06377 q 1.75287,-2.0333 7.60778,-6.13621 c 8.27639,-5.80944 15.26976,-12.12718 16.29979,-22.22102 1.75286,-17.0289 -6.90301,-31.69769 -25.69656,-30.24535 -11.02313,0.85327 -22.44384,8.55078 -30.55758,16.42979 q -5.00558,4.84723 -9.74012,15.93962 c -4.15626,9.78524 -21.59451,60.47245 -6.14402,64.24857 z m -600.45377,36.61755 c 2.47567,-10.72931 -18.34178,-23.27401 -26.4194,-26.83231 -26.88922,-11.89114 -65.470194,-14.30568 -80.956801,16.70211 q -3.126233,6.28144 -3.451505,12.14531 c -0.7409,13.18016 0.795111,30.29979 18.920044,28.59329 17.257532,-1.61576 31.659892,-8.07875 50.019742,-15.79439 9.45098,-3.95767 20.4199,-4.68383 33.03328,-6.60822 q 7.2102,-1.10743 8.85464,-8.20579 z m 611.56725,36.23626 c 1.21073,8.45997 8.94499,8.13319 14.70955,4.33891 5.34894,-3.50379 11.34841,-10.20277 18.16107,-14.14231 q 8.05956,-4.66569 25.4255,-11.36468 c 16.75156,-6.48115 15.8661,-23.41925 8.98116,-36.92617 -7.48129,-14.63246 -19.98623,-14.12414 -33.71995,-7.95164 -17.11298,7.69748 -29.41913,23.87312 -32.40082,42.89897 q -2.33112,14.97742 -1.15651,23.14692 z"
     id="path141"
     style="stroke-width:1.81125" />
  <g
     fill="#ae689f"
     id="g146"
     transform="matrix(1.8070717,0,0,1.8154449,-412.42349,-343.71147)">
    <path
       d="m 617.29,372.3 q -4.1,1.43 -10.05,1.35 c -13.23,-0.16 -26.33,-2.21 -39.36,-5.35 q -2.29,-0.55 -6.61,-3.02 -9.06,-5.18 -20.61,-7.21 7.88,-15.06 19.31,-27.34 1.28,-1.38 2.88,-2.39 6.44,-4.08 12.91,-8.45 a 11.77,11.7 16.4 0 1 2.03,-1.1 q 5.45,-2.32 8.03,-3.15 c 3.29,-1.06 5.42,-0.07 7.35,2.94 3.67,5.71 7.14,11.24 9.46,17.79 2.59,7.33 5.62,14.4 8.04,19.56 2.47,5.25 4.48,10.79 6.62,16.37 z"
       id="path142" />
    <path
       d="m 454.58,358.22 q 1.38,1.86 2.04,3.9 a 0.39,0.39 0 0 1 -0.36,0.5 q -8.83,0.26 -17,3.59 c -3.59,1.46 -7.44,4.08 -10.92,6 a 9.05,8.93 23.6 0 1 -2.24,0.86 c -14.74,3.43 -26.84,5.73 -41.84,6.57 -3.03,0.17 -10.03,0.5 -11.1,-3.02 q -0.81,-2.69 0.08,-4.39 2.78,-7.57 6.73,-13.47 a 8.82,8.76 72.6 0 0 0.89,-1.72 c 3.62,-9.6 6.5,-17.85 14.15,-25.22 q 7.49,-7.22 11.18,-9.89 3.14,-2.27 7.6,-2.39 3.18,-0.08 7.49,2.72 c 10.57,6.89 17.28,18.04 25.26,26.33 2.44,2.54 5.53,7.33 6.85,10.44 a 0.55,0.55 0 0 0 0.69,0.29 q 0.69,-0.27 0.5,-1.1 z"
       id="path143" />
    <path
       d="m 536.6,471.35 a 51.02,33.74 -4.2 0 1 -35.61,10.05 51.02,33.76 -4.1 0 1 -24.74,-3.83 51.07,33.77 -4.2 0 1 -20.11,-14.2 51.03,33.71 -4.1 0 1 -3.99,-18.48 51.02,33.71 -4.2 0 1 8.73,-14.99 51,33.68 -4.2 0 1 13.84,-9.44 q 3.86,-0.03 7.64,-0.6 3.62,-0.55 5.18,-0.53 2.63,0.02 5.23,-0.37 c 4.52,-0.68 9.96,-0.22 14.85,-0.08 8.04,0.25 14.79,2.92 21.82,6.18 9.78,4.53 15.69,11.64 15.91,22.93 q 0.07,3.35 -2.21,10.91 a 2.79,1.72 -49.9 0 1 -0.14,0.34 z m -49.12,-45.67 a 20.89,10.11 -90 0 0 -10.11,20.89 20.89,10.11 -90 0 0 10.11,20.89 20.89,10.11 -90 0 0 10.11,-20.89 20.89,10.11 -90 0 0 -10.11,-20.89 z m 31.1764,-0.1385 a 20.76,10.06 -90.7 0 0 -9.8056,20.8814 20.76,10.06 -90.7 0 0 10.3128,20.6356 20.76,10.06 -90.7 0 0 9.8056,-20.8814 20.76,10.06 -90.7 0 0 -10.3128,-20.6356 z"
       id="path144" />
    <path
       d="m 608.8,440.99 a 0.59,0.58 49.4 0 1 0.06,-0.83 q 6.01,-5.17 14.12,-9.1 a 0.78,0.78 0 0 1 0.93,0.19 l 3.44,3.93 a 3.18,3.16 34.9 0 1 0.58,3.22 q -2.48,6.53 -2.7,7.32 c -1.99,7.32 4.7,11.26 10.91,7.72 2.59,-1.48 4.45,0.31 5.65,2.29 a 1.4,1.39 -39.7 0 1 -0.16,1.65 l -8.75,9.69 a 0.84,0.83 45.4 0 1 -1.25,-0.01 z"
       id="path145" />
    <path
       d="m 356.68,519.2 8.41,-3.7 9.19,11.22 a 0.33,0.33 0 0 1 -0.07,0.48 l -16.71,10.75 a 1.01,1 49.5 0 1 -1.21,-0.1 l -1.84,-1.67 a 1.25,1.24 -53.8 0 1 -0.24,-1.56 q 3.02,-5.13 4.59,-8.62 1.98,-4.42 -2.12,-6.8 z"
       id="path146" />
  </g>
  <g
     fill="#fefefe"
     id="g149"
     transform="matrix(1.8070717,0,0,1.8154449,-412.42349,-343.71147)">
    <path
       d="m 601.83,618.65 q 1.01,-1.95 6.05,-13.22 c 3.82,-8.54 6.27,-17.28 6.15,-26.46 -0.12,-9.17 -1.3,-19.5 -3.72,-26.89 -2.82,-8.62 -10.22,-17.88 -16.18,-23.65 a 0.33,0.33 0 0 1 0.21,-0.57 q 8.21,-0.58 18.15,-2.24 c 2.05,-0.34 3.49,0.05 5.03,1.53 8.34,8.04 16.26,17.08 18.91,28.64 2.51,10.96 2.97,23.25 -0.2,34.05 -2,6.79 -7.19,13.62 -12.39,21.5 q -1.55,2.36 -2.44,2.99 A 3.83,3.81 19.3 0 1 620,615 l -17.73,4.21 a 0.39,0.39 0 0 1 -0.44,-0.56 z"
       id="path147" />
    <path
       d="m 409.24,529.64 a 0.37,0.37 0 0 1 0.23,0.62 c -17.29,17.86 -25.2,43.79 -16.81,67.7 q 5.11,14.55 14.79,26.76 a 0.4,0.4 0 0 1 -0.39,0.64 q -7.99,-1.74 -17.26,-4.36 -3.34,-0.95 -4.72,-3.56 -9.77,-18.42 -12.67,-27.11 -1.72,-5.17 -2.04,-13.83 c -0.61,-16.35 8.55,-32.53 17.77,-45.37 a 2.58,2.56 8.7 0 1 1.29,-0.94 c 5.68,-1.84 13.48,-1.14 19.81,-0.55 z"
       id="path148" />
    <path
       d="m 512.39,532.22 c 6.13,9.37 10.78,16.44 13.13,26.77 3.54,15.58 5.53,34 1.55,49.34 q -2.89,11.14 -6.8,22.08 a 1.04,1.04 0 0 1 -0.93,0.68 l -10.46,0.4 a 0.85,0.82 -17.1 0 1 -0.71,-0.36 q -5.32,-7.77 -9.96,-15.06 -12.2,-19.17 -12.79,-41.82 c -0.38,-14.68 5.99,-25.6 13.68,-41.49 a 1.26,1.25 -78.1 0 1 1.08,-0.71 l 11.07,-0.42 a 1.33,1.31 -17.1 0 1 1.14,0.59 z"
       id="path149" />
  </g>
  <g
     fill="#a4d0f6"
     id="g155"
     transform="matrix(1.8070717,0,0,1.8154449,-412.42349,-343.71147)">
    <path
       d="m 554.15,404.59 q -0.65,-0.29 -0.58,-0.61 c 2.27,-9.68 -1.1,-20.31 -10.27,-25.47 q -6.76,-3.8 -12.92,-4.08 -11.13,-0.5 -22.85,1.97 -0.61,0.13 -2.93,0.99 -1.54,0.57 -3.04,0.61 a 34.09,22.74 0.1 0 1 13.81,-10.92 34.11,22.79 0.2 0 1 20.14,-3.3 34.12,22.81 0.2 0 1 25.72,9.74 34.23,22.87 0.2 0 1 6.09,11.74 34.14,22.82 0.2 0 1 -2.9,10.6 34.13,22.8 0.2 0 1 -10.27,8.73 z"
       id="path150" />
    <path
       d="m 475.04,411.57 q 3.98,-6.66 6.53,-12.45 1.89,-4.28 0.71,-8.38 c -1.09,-3.74 -4.79,-5.78 -8.02,-7.51 -5.2,-2.79 -10.6,-5.09 -16.96,-5.62 q -15.17,-1.26 -30.13,5.12 a 34.17,22.81 0.1 0 1 28.32,-13.91 34.17,22.81 0.1 0 1 32.36,10.8 34.19,22.81 0.1 0 1 1.21,22.43 34.22,22.79 0.1 0 1 -14.02,9.52 z"
       id="path151" />
    <path
       d="m 594.4,387.39 c -7.21,-1.66 -13.26,-2.02 -21.08,-2.24 l -2.18,-8.78 a 0.29,0.28 -1.9 0 1 0.33,-0.35 l 21.31,3.78 a 0.67,0.66 -89.5 0 1 0.54,0.56 z"
       id="path152" />
    <path
       d="m 419.22,385.59 q -6.85,1.69 -13.26,4.11 -3.43,1.29 -7.07,3.31 l 0.77,-7.28 a 0.84,0.83 87.2 0 1 0.67,-0.74 l 19.72,-3.95 a 0.64,0.64 0 0 1 0.71,0.87 z"
       id="path153" />
    <path
       d="m 562.78,522.93 q -1.93,-4.02 -4.01,-7.93 -2.02,-3.8 -3.58,-8.09 -3.53,-9.72 -8.69,-20.05 6.25,-1.95 11.38,-6 a 0.71,0.71 0 0 1 1.04,0.17 l 26.05,40.51 a 0.51,0.5 -17.4 0 1 -0.41,0.78 z"
       id="path154" />
    <path
       d="m 511.01,522.47 q 1.99,2.54 2.81,2.3 l -49.12,0.78 c -5.66,-8.29 -10.06,-16.75 -12.84,-26.54 q -1.49,-5.24 -2.96,-10.66 l 13.92,5.18 a 4.28,4.27 -5.7 0 1 2.14,1.75 q 6.63,10.69 15.75,19.79 5.5,5.49 13.05,6.67 6.11,0.97 17.25,0.73 z"
       id="path155" />
  </g>
  <g
     fill="#b58c62"
     id="g161"
     transform="matrix(1.8070717,0,0,1.8154449,-412.42349,-343.71147)">
    <path
       d="m 690.12,489.08 c 4.36,1.45 3.51,5.25 0.26,7.17 q -3.17,1.86 -7.09,3.23 -4.65,1.63 -5.77,-2.44 5.03,-6.33 12.6,-7.96 z"
       id="path156" />
    <path
       d="m 288.89,543.74 q 2.22,1.3 3.09,4.07 c 1.05,3.35 -7.3,9.54 -10.18,7.75 q -1.39,-0.87 -1.46,-3.7 2.54,-5.84 8.55,-8.12 z"
       id="path157" />
    <path
       d="m 301.17,588.86 q 0.85,-2.4 2.68,-3.93 c 0.83,-0.9 4.26,-3.61 5.85,-2.48 5.55,3.95 -6.22,12.6 -8.53,6.41 z"
       id="path158" />
    <path
       d="m 728.92,603.44 q -1.51,0.5 -3.03,-0.15 a 2.01,2.01 0 0 0 -0.96,-0.16 q -1.41,0.12 -2.14,0.09 -21.22,-0.84 -35.3,0.57 -4.8,0.48 -12.91,1.95 c -6.42,1.16 -13.01,1.91 -19.46,3.47 q -3.19,0.77 -6.54,1.42 c 7.22,-4.28 10.39,-11 14.77,-17.28 q 1.26,-1.8 3.07,-2.19 5.91,-1.26 12.69,-2.35 c 8.84,-1.43 17.87,-1.67 26.9,-2.18 q 11.91,-0.68 19.92,0.02 3.91,0.34 6.76,1.66 c 4.66,2.16 7.28,8.38 2.87,12.27 q -2.77,2.45 -6.64,2.86 z"
       id="path159" />
    <path
       d="m 353.88,607.62 q -7.67,-0.36 -10.63,0.61 -3.84,1.26 -6.26,4.51 -4.16,5.57 -8.39,9.11 -5.38,4.51 -5.74,4.82 c -5.4,4.64 -14.26,6.3 -20.88,7.72 q -1.89,-0.59 -3.29,-1.73 a 1.31,1.3 -49.4 0 1 -0.14,-1.9 c 3.69,-4.08 9.3,-8.6 14.76,-9.43 q 7.53,-1.16 10.21,-1.81 c 7.93,-1.93 10.97,-8.32 12.97,-15.75 0.75,-2.8 3.79,-3.88 6.54,-4.15 5.13,-0.5 7.64,4.57 10.85,8 z"
       id="path160" />
    <path
       d="m 556.5,655.53 c -7.99,3.5 -17.48,6.54 -24,9.83 q -8.64,4.36 -17.53,9.09 c -6.78,3.6 -14.32,6.28 -21.56,6.03 -4.79,-0.17 -8.22,-3.52 -9.48,-8.02 q -0.3,-1.53 0.15,-2.92 a 0.49,0.48 23.6 0 1 0.7,-0.27 q 6.31,3.44 12.82,3.15 a 3.84,3.73 -53 0 0 0.77,-0.12 q 15.14,-4.17 30.1,-10.04 c 6.06,-2.38 13.07,-4.17 18.52,-5.66 q 3.17,-0.86 9.51,-1.07 z"
       id="path161" />
  </g>
  <g
     fill="#f5dd7b"
     id="g165"
     transform="matrix(1.8070717,0,0,1.8154449,-412.42349,-343.71147)">
    <path
       d="m 661.81,581.04 q -1.78,0.8 -2.06,-1.09 -1.16,-7.96 -5.95,-13.25 -2.66,-2.94 -9.35,-6.3 -1.65,-11.09 -7.3,-20.84 c -2.9,-5 -6.61,-8.68 -10.74,-13.43 a 0.35,0.35 0 0 1 0.34,-0.58 q 18.23,3.84 30.14,18.73 c 2.81,3.51 4.66,6.78 5.73,11.33 q 2.98,12.74 -0.81,25.43 z"
       id="path162" />
    <path
       d="m 602.71,551.87 q -0.34,0.85 -2.49,-0.56 -0.27,-0.18 -0.75,-1.9 -0.65,-2.33 -2.98,-2.53 c -9.57,-0.85 -18.3,-0.82 -26.99,-1.28 q -20.49,-1.06 -41.48,-0.85 -2.85,-6.41 -7.55,-13.04 a 0.26,0.25 -18.7 0 1 0.2,-0.4 l 63.7,-2.41 a 1.16,1.15 -22 0 1 0.9,0.38 q 1.81,2.03 6.1,6.34 7.01,7.03 11.34,16.25 z"
       id="path163" />
    <path
       d="m 485.7,545.26 q -7.03,-0.69 -11.7,-0.57 -33.77,0.84 -67.66,1.09 l 11.67,-14.91 a 1.33,1.32 22.6 0 1 1.2,-0.49 c 23.54,2.84 49.27,2.69 71.64,1.91 a 0.42,0.42 0 0 1 0.4,0.59 z"
       id="path164" />
    <path
       d="m 370.7,547.02 q -5.64,-0.42 -10.94,1.45 a 0.82,0.75 5 0 0 -0.39,0.3 l -1.63,2.29 a 0.65,0.65 0 0 1 -1.14,-0.17 l -0.21,-0.64 q 8.53,-10.73 20.69,-16.88 a 0.39,0.38 -89.1 0 1 0.51,0.53 z"
       id="path165" />
  </g>
  <g
     fill="#edc6e8"
     id="g169"
     transform="matrix(1.8070717,0,0,1.8154449,-412.42349,-343.71147)">
    <path
       d="m 537.85,338.3 c -6.34,-5.54 -14.5,-7.23 -21.31,-9.68 -20.43,-7.37 -41.12,-6.58 -61.39,-4.9 q -6.98,0.58 -13.64,2.62 -0.77,-0.55 -0.95,-1.28 a 0.82,0.82 0 0 1 0.34,-0.88 c 19.73,-13.25 46.37,-18.75 69.84,-15.38 13.32,1.91 26.05,5.78 37.87,12.71 a 0.6,0.59 -57.8 0 1 0.19,0.85 z"
       id="path166" />
    <path
       d="m 543.03,481.34 -0.39,-2.81 c 9.48,-6.43 18.23,-16.84 19.38,-28.51 q 2.34,-1.98 3.89,-4.61 c 3.47,-5.91 8,-13.61 10.14,-20.77 q 2.96,-9.9 4.23,-18.81 0.23,-1.62 -0.57,-4.98 l 15.07,-0.9 a 0.48,0.48 0 0 1 0.51,0.47 q 0.24,13.59 -3.71,25.44 -8.33,24.96 -28.59,42.63 -9.18,8.01 -19.96,12.85 z"
       id="path167" />
    <path
       d="m 621.99,465.93 4.86,5.82 a 0.68,0.68 0 0 1 -0.04,0.92 q -5.18,5.23 -9.77,10.37 -13.96,15.63 -28.88,30.23 a 0.62,0.62 0 0 1 -0.96,-0.13 l -6,-10.34 q 1.8,-1.42 3.22,-2.87 13.61,-13.91 28.8,-26.04 c 3.2,-2.57 5.91,-5.19 8.77,-7.96 z"
       id="path168" />
    <path
       d="m 434.07,482.99 q -4.23,0.48 -8.32,2.6 -4.66,2.41 -6.41,3.08 -12.09,4.56 -23.57,11.73 c -4.2,2.62 -8.2,4.76 -12.42,6.87 -3.27,1.64 -7.19,4.45 -11.06,6.33 l -8.21,-10.31 a 0.35,0.35 0 0 1 0.1,-0.52 c 7.7,-4.49 14.66,-9.14 22.94,-13 q 11.24,-5.24 22.6,-9.26 16.07,-5.69 17.06,-6.17 a 0.94,0.94 0 0 1 0.99,0.08 l 7.52,5.63 a 0.63,0.62 -54.8 0 1 0.14,0.84 z"
       id="path169" />
  </g>
  <g
     fill="#cb89bb"
     id="g173"
     transform="matrix(1.8070717,0,0,1.8154449,-412.42349,-343.71147)">
    <path
       d="m 617.29,372.3 c -2.14,-5.58 -4.15,-11.12 -6.62,-16.37 -2.42,-5.16 -5.45,-12.23 -8.04,-19.56 -2.32,-6.55 -5.79,-12.08 -9.46,-17.79 -1.93,-3.01 -4.06,-4 -7.35,-2.94 q -2.58,0.83 -8.03,3.15 a 11.77,11.7 16.4 0 0 -2.03,1.1 q -6.47,4.37 -12.91,8.45 -1.6,1.01 -2.88,2.39 -11.43,12.28 -19.31,27.34 l -6.12,-0.55 a 0.55,0.55 0 0 1 -0.44,-0.8 q 1.83,-3.59 3.29,-5.83 11.44,-17.57 22.38,-32.62 4.37,-6 9.88,-11.36 c 6.12,-5.94 13.16,-7.5 19.87,-1.22 q 6.41,5.99 9.79,11.53 2.07,3.39 9.83,18.16 5.98,11.39 9.11,29.35 0.8,4.6 -0.96,7.57 z"
       id="path170" />
    <path
       d="m 454.58,358.22 q 0.19,0.83 -0.5,1.1 a 0.55,0.55 0 0 1 -0.69,-0.29 c -1.32,-3.11 -4.41,-7.9 -6.85,-10.44 -7.98,-8.29 -14.69,-19.44 -25.26,-26.33 q -4.31,-2.8 -7.49,-2.72 -4.46,0.12 -7.6,2.39 -3.69,2.67 -11.18,9.89 c -7.65,7.37 -10.53,15.62 -14.15,25.22 a 8.82,8.76 72.6 0 1 -0.89,1.72 q -3.95,5.9 -6.73,13.47 -0.43,-5.73 0.98,-10.71 2.4,-8.46 6.11,-16.21 c 3.39,-7.08 6.39,-12.31 9.51,-18.32 4.63,-8.88 17.52,-27.13 29.66,-16.7 q 4.5,3.87 7.84,8.61 6.22,8.81 13,17.26 c 1.24,1.56 3.28,4.37 4.72,6.9 2.94,5.14 6.56,9.58 9.52,15.16 z"
       id="path171" />
    <path
       d="m 536.6,471.35 6.4,-12.11 a 2.79,1.72 -49.9 0 0 0.14,-0.34 q 2.28,-7.56 2.21,-10.91 c -0.22,-11.29 -6.13,-18.4 -15.91,-22.93 -7.03,-3.26 -13.78,-5.93 -21.82,-6.18 -4.89,-0.14 -10.33,-0.6 -14.85,0.08 q -2.6,0.39 -5.23,0.37 -1.56,-0.02 -5.18,0.53 -3.78,0.57 -7.64,0.6 a 51.03,33.72 -4.2 0 1 55.47,-2.39 51,33.63 -4.1 0 1 17.73,12.22 51.14,33.81 -4.3 0 1 5.47,12.44 51.1,33.76 -4.2 0 1 -3.19,14.97 50.72,33.42 -4.3 0 1 -5.91,7.59 51.14,33.75 -4.2 0 1 -7.69,6.06 z"
       id="path172" />
    <path
       d="m 365.09,515.5 -8.41,3.7 q -5.34,0.97 -9.83,3.49 a 1.54,1.54 0 0 1 -2.17,-0.75 l -1.73,-4.1 a 1.8,1.8 0 0 1 0.69,-2.22 l 13.74,-8.84 a 0.93,0.93 0 0 1 1.24,0.22 z"
       id="path173" />
  </g>
</svg>
