<svg xmlns="http://www.w3.org/2000/svg" viewBox="0 0 1024 1024"><g fill="none" stroke-width="2"><path stroke="#ecdbbf" d="M742.61 723.61q4.94-3.59 7.58-6.42c6.95-7.44 14.7-15.43 20.24-24.29q12.26-19.6 16.71-42.11 2.13-10.78 2.15-25.29.12-138.61.05-276.55-.02-30.96-.97-43.17-.76-9.85-3.62-22.76-2.34-10.57-8.04-21.51c-5.18-9.93-10.08-18.21-17.01-25.96q-5.8-6.47-6.57-7.22-4.71-4.58-14.21-11.8c-5.26-4-11.48-7.23-16.74-9.97q-14.43-7.53-32.99-11.21c-4.36-.86-8.12-.81-13.25-1.06q-4.35-.21-9.97-.21-187.86.05-303.37-.05c-9.72-.01-18.64.45-27.28 1.82q-15.7 2.51-32.17 9.82c-4.33 1.92-8.14 4.84-11.97 7.01-11.6 6.56-18.37 14.19-29.37 25.27a15.19 15.09 82.1 0 0-2.5 3.33q-1.56 2.79-5.94 9.41-3.26 4.92-6.04 10.64-4.41 9.06-5.12 11.12-3.39 9.9-5.85 23.29c-1.97 10.69-1.58 24.35-1.58 35.26q.01 226.44-.08 293-.02 13.51.16 15.85.11 1.43 1.64 9.67 1.05 5.71 2.33 9.52c1.78 5.33 2.79 10.52 5.35 15.78q4.03 8.25 7.14 13.89c6.21 11.28 14.71 21.97 24.89 30.25 8.8 7.16 16.82 13.12 23.91 16.65 6.78 3.38 16.53 7.53 25.55 9.63 10.74 2.51 21 3.95 31.5 3.52 6.11-.25 16.3-.47 20.84-.42q46.28.46 107.01.59 64.9.14 174.93.03 11.57-.02 18.11-.65c9.22-.88 21.32-2.22 30.95-6.29q13.79-5.83 14.68-6.33 9.88-5.51 18.92-12.08" transform="matrix(1.80707 0 0 1.81544 -412.423 -343.711)" vector-effect="non-scaling-stroke"/><path stroke="#998296" d="M342.53 579.32c-1.41-3.38-7.1-3.8-10.21-4.13a6.86 6.77-30.7 0 1-1.74-.43q-7.21-2.82-8.71-3.13c-11.76-2.51-22.27 3.55-27.41 14.03-3.06 6.25-2.01 12.69 5.2 14.7q5.17 1.44 8.39.9 10.6-1.77 19.62-7.65c3.82-2.48 9.32-5.4 13.08-8.89q1.21-1.12 2.13-3.59a.25.25 0 0 1 .48.05l1.3 11.57a.41.41 0 0 1-.37.46q-1.24.14-2.75.19-10.17.35-12.22 10.08c-.97 4.61-2.24 8.56-7.31 9.59q-10.35 2.09-11.12 2.26-8.49 1.83-15.14 8.12c-5.8 5.47-6.31 12.64 1.38 16.46 11.63 5.76 26.68 9.04 39.56 5.54q16.32-4.43 18.08-4.92 3.34-.92 5.7-1.24a.63.63 0 0 1 .69.76c-1.23 5.27-3.03 9.85-2.55 15.34.87 9.76 10.3 15.05 19.41 15.38q5.63.21 12.31-.67 17.58-2.29 37.2-7.8c6.98-1.96 14.04-4.95 20.53-7.24 7.97-2.82 17.31-5.17 24.82-1.82 5.27 2.34 4.09 12.74 4.01 17.63a7.5 7.45-50.5 0 0 .16 1.72q1.62 7.96 9.15 12.81c5.42 3.49 13.62 2.09 19.32.11q8.52-2.97 12.12-4.87c21.33-11.26 44.07-21.28 67.22-28.02 16.22-4.72 34.67-1.17 51.83 2.05 14.09 2.65 30.65-.99 43.63-6.31 8.07-3.31 15.94-7.56 16.83-16.83.24-2.5-.79-6.9-1.17-9.07q-.62-3.61 3.56-4.67 21.76-5.55 28.96-7.28c7.39-1.76 16.38-5.63 15.95-14.79-.44-9.22-7.9-14.67-16.55-15.63q-7.39-.82-18.15-.25-3.42.18-23 1.19-8.91.47-17.99 2.79a.53.52-87.4 0 1-.62-.69q4.06-11.56 2.08-24.59-1.21-7.98-4.43-13.36c-6.66-11.12-17.47-20.08-29.71-24.56a.21.2 42.2 0 1-.02-.38q2.35-1.09 3.41-2.51 1.22-1.63 7.24-8.52 3.91-4.47 4.69-6.53c2.3-6.04.82-13.22-6.33-14.75q-6.42-1.37-11.4 3c-8.81 7.73-6.93 19.72-1.03 28.44a.25.25 0 0 1-.26.38q-10.93-2.22-21.86-.68-8.72 1.23-12.84 1.82-3.15.46-5.13.28a.48.47-81.9 0 1-.42-.57q.31-1.39 1.66-2.81c14.1-14.77 31.4-33.91 45.53-47.97q1.78-1.76 4.62-5.04c3.69-4.25 6.64-7.17 3.42-12.37q-2.23-3.6-4.06-6.21c-1.94-2.76-3.31-1.79-6.36-.68q-1.81.66-4.15 1.77a.49.49 0 0 1-.69-.52q.55-3.83 2.54-8.12 1.16-2.51-.1-4.41-2.26-3.42-6.28-8.6c-3.29-4.23-7.54-2.21-11 .08q-2.56 1.7-24.18 16.31a.26.26 0 0 1-.38-.33c2.87-5.3 4.48-11.19 6.03-16.75q5.96-21.36 1.74-43.61a.67.67 0 0 1 .73-.79q8.31.78 14.88-.36c9.59-1.66 10.4-11.02 8.7-18.95q-4.9-22.93-17.96-45.11c-4.06-6.89-11.03-15.55-17.47-18.9-10.77-5.61-19.41-1.13-27.18 7.59q-4.85 5.44-8.95 10.87a.75.75 0 0 1-1.01.18q-3.9-2.5-7.9-4.18c-10.17-4.27-20.84-8.35-31.94-9.79q-32.58-4.23-62.59 9.42c-4.48 2.04-8.07 4.28-13.06 7.04a.92.92 0 0 1-1.18-.25q-4.99-6.65-10.07-11.57c-5.48-5.29-11.2-8.11-18.97-5.8-8.69 2.59-17.51 13.65-22.23 21.53q-10.3 17.19-16.04 36.68-2.44 8.29-1.88 16.18c.74 10.5 9.69 12.09 18.71 11.63q.27-.01 6.61-.44a.49.48-89 0 1 .51.54c-3.62 32.1 6.46 59.02 28.54 81.99a.46.46 0 0 1-.2.76q-14.06 4.25-26.37 9.3-12.38 5.06-26.67 13.57-16.45 9.78-29.13 18.35-4.33 2.92-2.63 7.71.53 1.49 3.71 8.33 1.85 3.99 3.18 4.4 2.44.76 5.51-1.19a.34.34 0 0 1 .5.39c-.46 1.35-3.96 5.16-2 7.49q2.42 2.88 5.8 4.93a.62.62 0 0 1 .16.92c-2.61 3.32-4.84 6.56-6.26 10.55-2.22 6.24-3.43 12.67-3.25 19.19q.15 5.77.14 5.8a.38.37-42.1 0 1-.68-.03" transform="matrix(1.80707 0 0 1.81544 -412.423 -343.711)" vector-effect="non-scaling-stroke"/><path stroke="#998296" d="M665.41 534.35c4.12 1 7.31-1.68 10.07-4.38 6.85-6.72 11.67-10.86 16.62-16.56q.97-1.12 4.21-3.38c4.58-3.2 8.45-6.68 9.02-12.24.97-9.38-3.82-17.46-14.22-16.66-6.1.47-12.42 4.71-16.91 9.05q-2.77 2.67-5.39 8.78c-2.3 5.39-11.95 33.31-3.4 35.39m-332.28 20.17c1.37-5.91-10.15-12.82-14.62-14.78-14.88-6.55-36.23-7.88-44.8 9.2q-1.73 3.46-1.91 6.69c-.41 7.26.44 16.69 10.47 15.75 9.55-.89 17.52-4.45 27.68-8.7 5.23-2.18 11.3-2.58 18.28-3.64q3.99-.61 4.9-4.52m338.43 19.96c.67 4.66 4.95 4.48 8.14 2.39 2.96-1.93 6.28-5.62 10.05-7.79q4.46-2.57 14.07-6.26c9.27-3.57 8.78-12.9 4.97-20.34-4.14-8.06-11.06-7.78-18.66-4.38-9.47 4.24-16.28 13.15-17.93 23.63q-1.29 8.25-.64 12.75" transform="matrix(1.80707 0 0 1.81544 -412.423 -343.711)" vector-effect="non-scaling-stroke"/><path stroke="#7c4d8d" d="M540.66 358.07q11.55 2.03 20.61 7.21 4.32 2.47 6.61 3.02c13.03 3.14 26.13 5.19 39.36 5.35q5.95.08 10.05-1.35" transform="matrix(1.80707 0 0 1.81544 -412.423 -343.711)" vector-effect="non-scaling-stroke"/><path stroke="#8a5e9b" d="M617.29 372.3q1.76-2.97.96-7.57-3.13-17.96-9.11-29.35-7.76-14.77-9.83-18.16-3.38-5.54-9.79-11.53c-6.71-6.28-13.75-4.72-19.87 1.22q-5.51 5.36-9.88 11.36-10.94 15.05-22.38 32.62-1.46 2.24-3.29 5.83a.55.55 0 0 0 .44.8l6.12.55" transform="matrix(1.80707 0 0 1.81544 -412.423 -343.711)" vector-effect="non-scaling-stroke"/><path stroke="#bd79ad" d="M617.29 372.3c-2.14-5.58-4.15-11.12-6.62-16.37-2.42-5.16-5.45-12.23-8.04-19.56-2.32-6.55-5.79-12.08-9.46-17.79-1.93-3.01-4.06-4-7.35-2.94q-2.58.83-8.03 3.15a11.77 11.7 16.4 0 0-2.03 1.1q-6.47 4.37-12.91 8.45-1.6 1.01-2.88 2.39-11.43 12.28-19.31 27.34" transform="matrix(1.80707 0 0 1.81544 -412.423 -343.711)" vector-effect="non-scaling-stroke"/><path stroke="#7c4d8d" d="M373.24 372.23q-.89 1.7-.08 4.39c1.07 3.52 8.07 3.19 11.1 3.02 15-.84 27.1-3.14 41.84-6.57a9.05 8.93 23.6 0 0 2.24-.86c3.48-1.92 7.33-4.54 10.92-6q8.17-3.33 17-3.59a.39.39 0 0 0 .36-.5q-.66-2.04-2.04-3.9" transform="matrix(1.80707 0 0 1.81544 -412.423 -343.711)" vector-effect="non-scaling-stroke"/><path stroke="#8a5e9b" d="M454.58 358.22c-2.96-5.58-6.58-10.02-9.52-15.16-1.44-2.53-3.48-5.34-4.72-6.9q-6.78-8.45-13-17.26-3.34-4.74-7.84-8.61c-12.14-10.43-25.03 7.82-29.66 16.7-3.12 6.01-6.12 11.24-9.51 18.32q-3.71 7.75-6.11 16.21-1.41 4.98-.98 10.71" transform="matrix(1.80707 0 0 1.81544 -412.423 -343.711)" vector-effect="non-scaling-stroke"/><path stroke="#bd79ad" d="M454.58 358.22q.19.83-.5 1.1a.55.55 0 0 1-.69-.29c-1.32-3.11-4.41-7.9-6.85-10.44-7.98-8.29-14.69-19.44-25.26-26.33q-4.31-2.8-7.49-2.72-4.46.12-7.6 2.39-3.69 2.67-11.18 9.89c-7.65 7.37-10.53 15.62-14.15 25.22a8.82 8.76 72.6 0 1-.89 1.72q-3.95 5.9-6.73 13.47" transform="matrix(1.80707 0 0 1.81544 -412.423 -343.711)" vector-effect="non-scaling-stroke"/><path stroke="#986eab" d="m441.51 326.34 23.9 35.88a2.25 2.25 0 0 0 1.56.98c9.46 1.36 21.76 6.33 27.22 14.71a.32.32 0 0 0 .56-.04c5.68-11.77 16.77-17.02 28.97-19.19a3.47 3.42-78.5 0 0 2.31-1.55l11.82-18.83" transform="matrix(1.80707 0 0 1.81544 -412.423 -343.711)" vector-effect="non-scaling-stroke"/><path stroke="#9b7cb1" d="m537.85 338.3 10.95-15.94a.6.59-57.8 0 0-.19-.85c-11.82-6.93-24.55-10.8-37.87-12.71-23.47-3.37-50.11 2.13-69.84 15.38a.82.82 0 0 0-.34.88q.18.73.95 1.28" transform="matrix(1.80707 0 0 1.81544 -412.423 -343.711)" vector-effect="non-scaling-stroke"/><path stroke="#eab8e2" d="M537.85 338.3c-6.34-5.54-14.5-7.23-21.31-9.68-20.43-7.37-41.12-6.58-61.39-4.9q-6.98.58-13.64 2.62" transform="matrix(1.80707 0 0 1.81544 -412.423 -343.711)" vector-effect="non-scaling-stroke"/><path stroke="#5067b2" d="M501.56 378a34.15 22.82.2 0 0 0 16.96 34.13 22.81.2 0 0 11.38 9.87 34.12 22.81.1 0 0 21.31 4.49 34.14 22.8.2 0 0 19.9-4.73" transform="matrix(1.80707 0 0 1.81544 -412.423 -343.711)" vector-effect="non-scaling-stroke"/><path stroke="#7781b8" d="M554.15 404.59a34.13 22.8.2 0 0 10.27-8.73 34.14 22.82.2 0 0 2.9-10.6 34.23 22.87.2 0 0-6.09-11.74 34.12 22.81.2 0 0-25.72-9.74 34.11 22.79.2 0 0-20.14 3.3A34.09 22.74.1 0 0 501.56 378" transform="matrix(1.80707 0 0 1.81544 -412.423 -343.711)" vector-effect="non-scaling-stroke"/><path stroke="#7db6f0" d="M554.15 404.59q-.65-.29-.58-.61c2.27-9.68-1.1-20.31-10.27-25.47q-6.76-3.8-12.92-4.08-11.13-.5-22.85 1.97-.61.13-2.93.99-1.54.57-3.04.61" transform="matrix(1.80707 0 0 1.81544 -412.423 -343.711)" vector-effect="non-scaling-stroke"/><path stroke="#5067b2" d="M427.17 382.73a34.05 22.73.3 0 0-2.55 10.25 34.18 22.82 0 0 0 5.7 11.2 34.2 22.8.1 0 0 16.94 8.81 34.17 22.79.2 0 0 27.78-1.42" transform="matrix(1.80707 0 0 1.81544 -412.423 -343.711)" vector-effect="non-scaling-stroke"/><path stroke="#7781b8" d="M475.04 411.57a34.22 22.79.1 0 0 14.02-9.52 34.19 22.81.1 0 0-1.21-22.43 34.17 22.81.1 0 0-32.36-10.8 34.17 22.81.1 0 0-28.32 13.91" transform="matrix(1.80707 0 0 1.81544 -412.423 -343.711)" vector-effect="non-scaling-stroke"/><path stroke="#7db6f0" d="M475.04 411.57q3.98-6.66 6.53-12.45 1.89-4.28.71-8.38c-1.09-3.74-4.79-5.78-8.02-7.51-5.2-2.79-10.6-5.09-16.96-5.62q-15.17-1.26-30.13 5.12" transform="matrix(1.80707 0 0 1.81544 -412.423 -343.711)" vector-effect="non-scaling-stroke"/><path stroke="#5067b2" d="m573.32 385.15-.8 8.48a.68.67.7 0 0 .72.73l20.82-1.32a.65.65 0 0 0 .61-.69l-.27-4.96" transform="matrix(1.80707 0 0 1.81544 -412.423 -343.711)" vector-effect="non-scaling-stroke"/><path stroke="#7781b8" d="m594.4 387.39-1.08-7.03a.67.66-89.5 0 0-.54-.56l-21.31-3.78a.29.28-1.9 0 0-.33.35l2.18 8.78" transform="matrix(1.80707 0 0 1.81544 -412.423 -343.711)" vector-effect="non-scaling-stroke"/><path stroke="#7db6f0" d="M594.4 387.39c-7.21-1.66-13.26-2.02-21.08-2.24" transform="matrix(1.80707 0 0 1.81544 -412.423 -343.711)" vector-effect="non-scaling-stroke"/><path stroke="#5067b2" d="m398.89 393.01-.24 13.54a.64.63 86.9 0 0 .71.64l22.07-2.49a.64.63-18.5 0 0 .48-.95q-4.86-8.22-2.69-18.16" transform="matrix(1.80707 0 0 1.81544 -412.423 -343.711)" vector-effect="non-scaling-stroke"/><path stroke="#7781b8" d="m419.22 385.59 1.54-3.68a.64.64 0 0 0-.71-.87l-19.72 3.95a.84.83 87.2 0 0-.67.74l-.77 7.28" transform="matrix(1.80707 0 0 1.81544 -412.423 -343.711)" vector-effect="non-scaling-stroke"/><path stroke="#7db6f0" d="M419.22 385.59q-6.85 1.69-13.26 4.11-3.43 1.29-7.07 3.31" transform="matrix(1.80707 0 0 1.81544 -412.423 -343.711)" vector-effect="non-scaling-stroke"/><path stroke="#986eab" d="m579.71 400.85-11.04.13a1.56 1.53 18.6 0 0-1.22.59c-6.35 8.03-16.88 11.68-27.15 13.43a.25.25 0 0 0-.07.47c13.22 6.56 22.39 19.42 21.79 34.55" transform="matrix(1.80707 0 0 1.81544 -412.423 -343.711)" vector-effect="non-scaling-stroke"/><path stroke="#9b7cb1" d="M562.02 450.02c-1.15 11.67-9.9 22.08-19.38 28.51" transform="matrix(1.80707 0 0 1.81544 -412.423 -343.711)" vector-effect="non-scaling-stroke"/><path stroke="#986eab" d="M542.64 478.53q-23.56 14.32-51.64 10.86c-15.06-1.86-31.22-8.9-39.81-21.76q-10.89-16.29-1.25-33.15 4.82-8.43 12.35-13.85a.17.17 0 0 0-.11-.31q-18.93 1.27-33.62-9.81a1.75 1.74-32 0 0-1.41-.32q-12.67 2.65-26.99 3.59a.57.56-3.6 0 0-.53.59q.06 1.27.53 3.22c3.19 13.27 7.75 23.95 15.85 34.83 21.61 29.02 58.43 43.82 94.48 38.79q16.58-2.31 32.54-9.87" transform="matrix(1.80707 0 0 1.81544 -412.423 -343.711)" vector-effect="non-scaling-stroke"/><path stroke="#9b7cb1" d="M543.03 481.34q10.78-4.84 19.96-12.85 20.26-17.67 28.59-42.63 3.95-11.85 3.71-25.44a.48.48 0 0 0-.51-.47l-15.07.9" transform="matrix(1.80707 0 0 1.81544 -412.423 -343.711)" vector-effect="non-scaling-stroke"/><path stroke="#eab8e2" d="m543.03 481.34-.39-2.81m19.38-28.51q2.34-1.98 3.89-4.61c3.47-5.91 8-13.61 10.14-20.77q2.96-9.9 4.23-18.81.23-1.62-.57-4.98" transform="matrix(1.80707 0 0 1.81544 -412.423 -343.711)" vector-effect="non-scaling-stroke"/><path stroke="#5067b2" d="m492.14 408.5 12.49-.79a.31.31 0 0 0 .14-.57q-4.62-2.82-7.11-7.09a.47.47 0 0 0-.81 0l-4.79 8.31a.09.09 0 0 0 .08.14" transform="matrix(1.80707 0 0 1.81544 -412.423 -343.711)" vector-effect="non-scaling-stroke"/><path stroke="#7c4d8d" d="M474.72 420.46a51 33.68-4.2 0 0-13.84 9.44 51.02 33.71-4.2 0 0-8.73 14.99 51.03 33.71-4.1 0 0 3.99 18.48 51.07 33.77-4.2 0 0 20.11 14.2 51.02 33.76-4.1 0 0 24.74 3.83 51.02 33.74-4.2 0 0 35.61-10.05" transform="matrix(1.80707 0 0 1.81544 -412.423 -343.711)" vector-effect="non-scaling-stroke"/><path stroke="#8a5e9b" d="M536.6 471.35a51.14 33.75-4.2 0 0 7.69-6.06 50.72 33.42-4.3 0 0 5.91-7.59 51.1 33.76-4.2 0 0 3.19-14.97 51.14 33.81-4.3 0 0-5.47-12.44 51 33.63-4.1 0 0-17.73-12.22 51.03 33.72-4.2 0 0-55.47 2.39" transform="matrix(1.80707 0 0 1.81544 -412.423 -343.711)" vector-effect="non-scaling-stroke"/><path stroke="#bd79ad" d="m536.6 471.35 6.4-12.11a2.79 1.72-49.9 0 0 .14-.34q2.28-7.56 2.21-10.91c-.22-11.29-6.13-18.4-15.91-22.93-7.03-3.26-13.78-5.93-21.82-6.18-4.89-.14-10.33-.6-14.85.08q-2.6.39-5.23.37-1.56-.02-5.18.53-3.78.57-7.64.6" transform="matrix(1.80707 0 0 1.81544 -412.423 -343.711)" vector-effect="non-scaling-stroke"/><path stroke="#7c4d8d" d="m608.8 440.99 22.83 26.07a.84.83 45.4 0 0 1.25.01l8.75-9.69a1.4 1.39-39.7 0 0 .16-1.65c-1.2-1.98-3.06-3.77-5.65-2.29-6.21 3.54-12.9-.4-10.91-7.72q.22-.79 2.7-7.32a3.18 3.16 34.9 0 0-.58-3.22l-3.44-3.93a.78.78 0 0 0-.93-.19q-8.11 3.93-14.12 9.1a.59.58 49.4 0 0-.06.83" transform="matrix(1.80707 0 0 1.81544 -412.423 -343.711)" vector-effect="non-scaling-stroke"/><path stroke="#9b7cb1" d="m581.2 502.8 6 10.34a.62.62 0 0 0 .96.13q14.92-14.6 28.88-30.23 4.59-5.14 9.77-10.37a.68.68 0 0 0 .04-.92l-4.86-5.82" transform="matrix(1.80707 0 0 1.81544 -412.423 -343.711)" vector-effect="non-scaling-stroke"/><path stroke="#986eab" d="m621.99 465.93-19.26-21.64a.67.66-38.9 0 0-.89-.09q-6.63 4.95-10.1 6.77-1.45.76-3.03.22a1.34 1.33-61.1 0 0-1.48.43q-4.71 5.87-9.37 11.75-4.99 6.3-13.27 12.54a1.21 1.21 0 0 0-.27 1.63l16.88 25.26" transform="matrix(1.80707 0 0 1.81544 -412.423 -343.711)" vector-effect="non-scaling-stroke"/><path stroke="#eab8e2" d="M621.99 465.93c-2.86 2.77-5.57 5.39-8.77 7.96q-15.19 12.13-28.8 26.04-1.42 1.45-3.22 2.87" transform="matrix(1.80707 0 0 1.81544 -412.423 -343.711)" vector-effect="non-scaling-stroke"/><path stroke="#986eab" d="m372.29 513.6 8.31 10.36a1.04 1.03-25.5 0 0 1.03.36c5.79-1.23 11.79-2.2 18.22-1.96q8.79.32 18.38 1.14a.52.52 0 0 0 .56-.44c.82-5.41 2.2-10.92 4.29-16.12q4.71-11.72 10.99-23.95" transform="matrix(1.80707 0 0 1.81544 -412.423 -343.711)" vector-effect="non-scaling-stroke"/><path stroke="#9b7cb1" d="m434.07 482.99 1.36-2.1a.63.62-54.8 0 0-.14-.84l-7.52-5.63a.94.94 0 0 0-.99-.08q-.99.48-17.06 6.17-11.36 4.02-22.6 9.26c-8.28 3.86-15.24 8.51-22.94 13a.35.35 0 0 0-.1.52l8.21 10.31" transform="matrix(1.80707 0 0 1.81544 -412.423 -343.711)" vector-effect="non-scaling-stroke"/><path stroke="#eab8e2" d="M434.07 482.99q-4.23.48-8.32 2.6-4.66 2.41-6.41 3.08-12.09 4.56-23.57 11.73c-4.2 2.62-8.2 4.76-12.42 6.87-3.27 1.64-7.19 4.45-11.06 6.33" transform="matrix(1.80707 0 0 1.81544 -412.423 -343.711)" vector-effect="non-scaling-stroke"/><path stroke="#5067b2" d="M546.5 486.86q-8.18 15.41-16.36 26.28-7.29 9.69-19.13 9.33" transform="matrix(1.80707 0 0 1.81544 -412.423 -343.711)" vector-effect="non-scaling-stroke"/><path stroke="#7781b8" d="M511.01 522.47q-11.14.24-17.25-.73-7.55-1.18-13.05-6.67-9.12-9.1-15.75-19.79a4.28 4.27-5.7 0 0-2.14-1.75l-13.92-5.18" transform="matrix(1.80707 0 0 1.81544 -412.423 -343.711)" vector-effect="non-scaling-stroke"/><path stroke="#5067b2" d="m448.9 488.35-7.62-4.15a.49.48 28.5 0 0-.65.19q-9.81 18.01-15.57 38.85a.76.76 0 0 0 .66.96q19.28 1.79 38.98 1.35" transform="matrix(1.80707 0 0 1.81544 -412.423 -343.711)" vector-effect="non-scaling-stroke"/><path stroke="#7781b8" d="m464.7 525.55 49.12-.78" transform="matrix(1.80707 0 0 1.81544 -412.423 -343.711)" vector-effect="non-scaling-stroke"/><path stroke="#5067b2" d="m513.82 524.77 48.96-1.84" transform="matrix(1.80707 0 0 1.81544 -412.423 -343.711)" vector-effect="non-scaling-stroke"/><path stroke="#7781b8" d="m562.78 522.93 21.78-.61a.51.5-17.4 0 0 .41-.78l-26.05-40.51a.71.71 0 0 0-1.04-.17q-5.13 4.05-11.38 6" transform="matrix(1.80707 0 0 1.81544 -412.423 -343.711)" vector-effect="non-scaling-stroke"/><path stroke="#7db6f0" d="M562.78 522.93q-1.93-4.02-4.01-7.93-2.02-3.8-3.58-8.09-3.53-9.72-8.69-20.05m-32.68 37.91q-.82.24-2.81-2.3m-62.11-34.12q1.47 5.42 2.96 10.66c2.78 9.79 7.18 18.25 12.84 26.54" transform="matrix(1.80707 0 0 1.81544 -412.423 -343.711)" vector-effect="non-scaling-stroke"/><path stroke="#986eab" d="M474.92 496.5a.36.35-10.8 0 0-.38.55q4.81 6.41 9.86 12.06c6.22 6.95 14.71 7.04 23.29 6.91 7.2-.12 10.52.12 15.91-6.08q7.02-8.08 11.75-17.14a.45.45 0 0 0-.56-.63q-12.13 4.8-24.7 6.02c-11.76 1.15-24.18 1.22-35.17-1.69" transform="matrix(1.80707 0 0 1.81544 -412.423 -343.711)" vector-effect="non-scaling-stroke"/><path stroke="#5d425a" d="M636.49 510.96c2.1-2.75 5.52-5.38 7.25-8.18q2.1-3.39 2.07-4.02-.16-4.68-4.03-4.41c-8 .57-8.41 10.55-6.66 16.36a.78.78 0 0 0 1.37.25" transform="matrix(1.80707 0 0 1.81544 -412.423 -343.711)" vector-effect="non-scaling-stroke"/><path stroke="#7c4d8d" d="M356.68 519.2q4.1 2.38 2.12 6.8-1.57 3.49-4.59 8.62a1.25 1.24-53.8 0 0 .24 1.56l1.84 1.67a1.01 1 49.5 0 0 1.21.1l16.71-10.75a.33.33 0 0 0 .07-.48l-9.19-11.22" transform="matrix(1.80707 0 0 1.81544 -412.423 -343.711)" vector-effect="non-scaling-stroke"/><path stroke="#8a5e9b" d="m365.09 515.5-6.47-8.5a.93.93 0 0 0-1.24-.22l-13.74 8.84a1.8 1.8 0 0 0-.69 2.22l1.73 4.1a1.54 1.54 0 0 0 2.17.75q4.49-2.52 9.83-3.49" transform="matrix(1.80707 0 0 1.81544 -412.423 -343.711)" vector-effect="non-scaling-stroke"/><path stroke="#bd79ad" d="m365.09 515.5-8.41 3.7" transform="matrix(1.80707 0 0 1.81544 -412.423 -343.711)" vector-effect="non-scaling-stroke"/><path stroke="#a498bc" d="M602.27 619.21 620 615a3.83 3.81 19.3 0 0 1.4-.67q.89-.63 2.44-2.99c5.2-7.88 10.39-14.71 12.39-21.5 3.17-10.8 2.71-23.09.2-34.05-2.65-11.56-10.57-20.6-18.91-28.64-1.54-1.48-2.98-1.87-5.03-1.53q-9.94 1.66-18.15 2.24a.33.33 0 0 0-.21.57c5.96 5.77 13.36 15.03 16.18 23.65 2.42 7.39 3.6 17.72 3.72 26.89.12 9.18-2.33 17.92-6.15 26.46q-5.04 11.27-6.05 13.22a.39.39 0 0 0 .44.56" transform="matrix(1.80707 0 0 1.81544 -412.423 -343.711)" vector-effect="non-scaling-stroke"/><path stroke="#987459" d="M644.45 560.4c1.14 11.58 1.32 23.91-2.77 34.81-1.84 4.89-4.35 8.17-7.82 13.73a.39.39 0 0 0 .45.58c13.93-4.25 22.09-14.99 27.5-28.48" transform="matrix(1.80707 0 0 1.81544 -412.423 -343.711)" vector-effect="non-scaling-stroke"/><path stroke="#9f887b" d="M661.81 581.04q3.79-12.69.81-25.43c-1.07-4.55-2.92-7.82-5.73-11.33q-11.91-14.89-30.14-18.73a.35.35 0 0 0-.34.58c4.13 4.75 7.84 8.43 10.74 13.43q5.65 9.75 7.3 20.84" transform="matrix(1.80707 0 0 1.81544 -412.423 -343.711)" vector-effect="non-scaling-stroke"/><path stroke="#eec95a" d="M661.81 581.04q-1.78.8-2.06-1.09-1.16-7.96-5.95-13.25-2.66-2.94-9.35-6.3" transform="matrix(1.80707 0 0 1.81544 -412.423 -343.711)" vector-effect="non-scaling-stroke"/><path stroke="#a498bc" d="M409.24 529.64c-6.33-.59-14.13-1.29-19.81.55a2.58 2.56 8.7 0 0-1.29.94c-9.22 12.84-18.38 29.02-17.77 45.37q.32 8.66 2.04 13.83 2.9 8.69 12.67 27.11 1.38 2.61 4.72 3.56 9.27 2.62 17.26 4.36a.4.4 0 0 0 .39-.64q-9.68-12.21-14.79-26.76c-8.39-23.91-.48-49.84 16.81-67.7a.37.37 0 0 0-.23-.62" transform="matrix(1.80707 0 0 1.81544 -412.423 -343.711)" vector-effect="non-scaling-stroke"/><path stroke="#987459" d="M528.02 544.75q2.63 6.11 3.77 11.23c4.6 20.59 6.23 42.31-.41 62.4q-2.8 8.47-3.69 11.33a.74.74 0 0 0 .77.95q32.28-2.69 62.73-8.77a2.56 2.52 7.9 0 0 1.75-1.3q5.19-9.84 10.8-22.84c5.77-13.38 4.09-32.41-1.03-45.88" transform="matrix(1.80707 0 0 1.81544 -412.423 -343.711)" vector-effect="non-scaling-stroke"/><path stroke="#9f887b" d="M602.71 551.87q-4.33-9.22-11.34-16.25-4.29-4.31-6.1-6.34a1.16 1.15-22 0 0-.9-.38l-63.7 2.41a.26.25-18.7 0 0-.2.4q4.7 6.63 7.55 13.04" transform="matrix(1.80707 0 0 1.81544 -412.423 -343.711)" vector-effect="non-scaling-stroke"/><path stroke="#eec95a" d="M602.71 551.87q-.34.85-2.49-.56-.27-.18-.75-1.9-.65-2.33-2.98-2.53c-9.57-.85-18.3-.82-26.99-1.28q-20.49-1.06-41.48-.85" transform="matrix(1.80707 0 0 1.81544 -412.423 -343.711)" vector-effect="non-scaling-stroke"/><path stroke="#987459" d="M406.34 545.78c-11.82 16.92-11.89 35.67-5.17 54.69 3.16 8.95 10.29 18.17 15.58 25.27a4.14 4.12 75.6 0 0 2.73 1.62q12.85 1.8 23.52 2.59 28.76 2.14 56.2 1.92a.44.44 0 0 0 .42-.56c-.71-2.5-3.54-5.91-6.34-10.09q-12.2-18.22-13.98-41-.94-12.12 1.09-20.8 1.34-5.77 5.31-14.16" transform="matrix(1.80707 0 0 1.81544 -412.423 -343.711)" vector-effect="non-scaling-stroke"/><path stroke="#9f887b" d="m485.7 545.26 5.55-12.38a.42.42 0 0 0-.4-.59c-22.37.78-48.1.93-71.64-1.91a1.33 1.32 22.6 0 0-1.2.49l-11.67 14.91" transform="matrix(1.80707 0 0 1.81544 -412.423 -343.711)" vector-effect="non-scaling-stroke"/><path stroke="#eec95a" d="M485.7 545.26q-7.03-.69-11.7-.57-33.77.84-67.66 1.09" transform="matrix(1.80707 0 0 1.81544 -412.423 -343.711)" vector-effect="non-scaling-stroke"/><path stroke="#a498bc" d="m511.25 531.63-11.07.42a1.26 1.25-78.1 0 0-1.08.71c-7.69 15.89-14.06 26.81-13.68 41.49q.59 22.65 12.79 41.82 4.64 7.29 9.96 15.06a.85.82-17.1 0 0 .71.36l10.46-.4a1.04 1.04 0 0 0 .93-.68q3.91-10.94 6.8-22.08c3.98-15.34 1.99-33.76-1.55-49.34-2.35-10.33-7-17.4-13.13-26.77a1.33 1.31-17.1 0 0-1.14-.59" transform="matrix(1.80707 0 0 1.81544 -412.423 -343.711)" vector-effect="non-scaling-stroke"/><path stroke="#987459" d="M356.39 550.25c-4.96 7.76-6.94 18.78-6.29 27.55.9 11.97 3.1 21.94 12.92 28.9q5.96 4.23 11.42 7.14a.42.42 0 0 0 .58-.56c-4.86-9.89-9.15-18.96-11.07-30.65-2.12-12.87 1.34-23.94 6.75-35.61" transform="matrix(1.80707 0 0 1.81544 -412.423 -343.711)" vector-effect="non-scaling-stroke"/><path stroke="#9f887b" d="m370.7 547.02 6.89-13.12a.39.38-89.1 0 0-.51-.53q-12.16 6.15-20.69 16.88" transform="matrix(1.80707 0 0 1.81544 -412.423 -343.711)" vector-effect="non-scaling-stroke"/><path stroke="#eec95a" d="M370.7 547.02q-5.64-.42-10.94 1.45a.82.75 5 0 0-.39.3l-1.63 2.29a.65.65 0 0 1-1.14-.17l-.21-.64" transform="matrix(1.80707 0 0 1.81544 -412.423 -343.711)" vector-effect="non-scaling-stroke"/><path stroke="#7f5f6e" d="M303.85 584.93q-1.83 1.53-2.68 3.93" transform="matrix(1.80707 0 0 1.81544 -412.423 -343.711)" vector-effect="non-scaling-stroke"/><path stroke="#5d425a" d="M301.17 588.86q-2.21 1.7-1.03 4.31a1.18 1.16-1.7 0 0 .66.61c10.31 3.7 21.59-4.79 30.71-10.23a.86.8-34.7 0 0 .27-1.22q-.17-.23-.82-.5c-5.9-2.5-12.59-4.47-19.15-3.22q-5.76 1.09-7.96 6.32" transform="matrix(1.80707 0 0 1.81544 -412.423 -343.711)" vector-effect="non-scaling-stroke"/><path stroke="#936f4e" d="M301.17 588.86c2.31 6.19 14.08-2.46 8.53-6.41-1.59-1.13-5.02 1.58-5.85 2.48" transform="matrix(1.80707 0 0 1.81544 -412.423 -343.711)" vector-effect="non-scaling-stroke"/><path stroke="#5d425a" d="M648.58 610.63q-6.56 3.47-8.38 4.07-8.01 2.67-14.83 6.1a7.59 7.24 24.6 0 1-1.88.65c-5.23 1.03-10.9 2.39-15.9 4.89a2.78 2.62 27.3 0 1-.94.27q-10.55.94-19.58 2.96c-6.38 1.44-11.45 2.13-16.61 3.22q-6.33 1.35-12.51 1.96-8.97.89-32.19 2.92-12.86 1.13-30.69.83-32.12-.53-40.07-.86-18.32-.75-25.25-1.66-13.8-1.83-16.28-2.06-8.88-.86-16.04-3.09-17.42-5.42-32.09-13.66-3.98-2.23-11.46-9.55" transform="matrix(1.80707 0 0 1.81544 -412.423 -343.711)" vector-effect="non-scaling-stroke"/><path stroke="#7f5f6e" d="M353.88 607.62c-3.21-3.43-5.72-8.5-10.85-8-2.75.27-5.79 1.35-6.54 4.15-2 7.43-5.04 13.82-12.97 15.75q-2.68.65-10.21 1.81c-5.46.83-11.07 5.35-14.76 9.43a1.31 1.3-49.4 0 0 .14 1.9q1.4 1.14 3.29 1.73" transform="matrix(1.80707 0 0 1.81544 -412.423 -343.711)" vector-effect="non-scaling-stroke"/><path stroke="#5d425a" d="M301.98 634.39q1.61 1.82 3.24 2.18 5.04 1.08 13.39 3 6.03 1.38 14.86-.22 5.56-1 18.03-5.02 2.92-.94 9.69-1.68c3.07-.34 5.36.74 6 3.85q.4 2 .09 3.77-.74 4.25-1.87 11.98c-.83 5.68 2.16 7.86 6.96 10.54 3.4 1.91 8.62 1.67 12.4 1.26q8.29-.89 14.71-2.11 7.87-1.49 23.4-5.61c9.2-2.43 20.95-7.55 31.14-10.06 4.99-1.23 10.14-1.93 14.87-.37a3.35 3.2-34.2 0 0 .95.16q4.89.16 8.8 2.91a3.32 3.22 1.2 0 1 .78.79q4.35 6.32 4.29 12.24-.08 7.73.22 10.46" transform="matrix(1.80707 0 0 1.81544 -412.423 -343.711)" vector-effect="non-scaling-stroke"/><path stroke="#7f5f6e" d="M483.93 672.46c1.26 4.5 4.69 7.85 9.48 8.02 7.24.25 14.78-2.43 21.56-6.03q8.89-4.73 17.53-9.09c6.52-3.29 16.01-6.33 24-9.83" transform="matrix(1.80707 0 0 1.81544 -412.423 -343.711)" vector-effect="non-scaling-stroke"/><path stroke="#5d425a" d="M556.5 655.53q5.8-2.3 11.94-4.76 6.67-2.67 12.18-4.01 13.23-3.22 26.63-3.01 8.2.12 24.58 3.29 9.23 1.78 12.89 1.75 8.21-.08 13.02-.92 1.57-.27 9.56-2.21c6.21-1.5 11.27-4.62 17.07-7.12 4.19-1.8 7.28-4.67 5.96-9.42q-1.53-5.5.1-11.02 1.29-4.37 6.52-6.4 4.71-1.82 9.11-2.67 4.02-.77 7.07-1.57 7.89-2.06 15.79-4.02" transform="matrix(1.80707 0 0 1.81544 -412.423 -343.711)" vector-effect="non-scaling-stroke"/><path stroke="#7f5f6e" d="M728.92 603.44q3.87-.41 6.64-2.86c4.41-3.89 1.79-10.11-2.87-12.27q-2.85-1.32-6.76-1.66-8.01-.7-19.92-.02c-9.03.51-18.06.75-26.9 2.18q-6.78 1.09-12.69 2.35-1.81.39-3.07 2.19c-4.38 6.28-7.55 13-14.77 17.28" transform="matrix(1.80707 0 0 1.81544 -412.423 -343.711)" vector-effect="non-scaling-stroke"/><path stroke="#936f4e" d="M728.92 603.44q-1.51.5-3.03-.15a2 2 0 0 0-.96-.16q-1.41.12-2.14.09-21.22-.84-35.3.57-4.8.48-12.91 1.95c-6.42 1.16-13.01 1.91-19.46 3.47q-3.19.77-6.54 1.42m-92.08 44.9q-6.34.21-9.51 1.07c-5.45 1.49-12.46 3.28-18.52 5.66q-14.96 5.87-30.1 10.04a3.84 3.73-53 0 1-.77.12q-6.51.29-12.82-3.15a.49.48 23.6 0 0-.7.27q-.45 1.39-.15 2.92m-130.05-64.84q-7.67-.36-10.63.61-3.84 1.26-6.26 4.51-4.16 5.57-8.39 9.11-5.38 4.51-5.74 4.82c-5.4 4.64-14.26 6.3-20.88 7.72" transform="matrix(1.80707 0 0 1.81544 -412.423 -343.711)" vector-effect="non-scaling-stroke"/><path stroke="#5067b2" d="M550.27 393.55q-.11-2.48-1.42-4.67c-4.11-6.79-12.81-15.28-20.84-10.32q-6.08 3.75-9.95 10.02a2.68 2.32-53.9 0 0 .27 3.21q2.36 2.1 5-.36 2.41-2.27 5.62-5.58c4.05-4.19 6.58-1.07 9.89 2.22q3.35 3.32 6.41 6.4 1.45 1.46 3.15 1.25a2.13 2.09-4.7 0 0 1.87-2.17m-107.83 4.15a2.58 2.58 0 0 0 4.04.38q3.71-3.89 7.7-8.56c3.67-4.31 7.33-2.86 10.75.97 1.41 1.58 4.43 5.41 6.91 5.03a2.49 2.21-7.2 0 0 2.13-2.44c-.4-4.25-3.87-7.2-7.19-10.21-3.76-3.4-8.13-4.32-12.27-1.83q-5.7 3.42-11.95 11.58a4.32 4.32 0 0 0-.2 4.96l.08.12" transform="matrix(1.80707 0 0 1.81544 -412.423 -343.711)" vector-effect="non-scaling-stroke"/><path stroke="#7c4d8d" d="M487.48 425.68a20.89 10.11-90 0 0-10.11 20.89 20.89 10.11-90 0 0 10.11 20.89 20.89 10.11-90 0 0 10.11-20.89 20.89 10.11-90 0 0-10.11-20.89" transform="matrix(1.80707 0 0 1.81544 -412.423 -343.711)" vector-effect="non-scaling-stroke"/><path stroke="#7c4d8d" d="M518.656 425.542a20.76 10.06-90.7 0 0-9.805 20.88 20.76 10.06-90.7 0 0 10.313 20.636 20.76 10.06-90.7 0 0 9.805-20.88 20.76 10.06-90.7 0 0-10.313-20.636" transform="matrix(1.80707 0 0 1.81544 -412.423 -343.711)" vector-effect="non-scaling-stroke"/><path stroke="#7f5f6e" d="M690.12 489.08q-7.57 1.63-12.6 7.96" transform="matrix(1.80707 0 0 1.81544 -412.423 -343.711)" vector-effect="non-scaling-stroke"/><path stroke="#5d425a" d="M677.52 497.04q-1.14.85-1.5 1.72-5.3 12.61-7.3 26.14a.88.87-18.5 0 0 1.49.74q4.98-5.08 14.81-14.75c6.23-6.14 18.73-10.99 11.99-21.26a2.94 2.92 2.3 0 0-.66-.71q-3.5-2.62-6.23.16" transform="matrix(1.80707 0 0 1.81544 -412.423 -343.711)" vector-effect="non-scaling-stroke"/><path stroke="#936f4e" d="M677.52 497.04q1.12 4.07 5.77 2.44 3.92-1.37 7.09-3.23c3.25-1.92 4.1-5.72-.26-7.17" transform="matrix(1.80707 0 0 1.81544 -412.423 -343.711)" vector-effect="non-scaling-stroke"/><path stroke="#7f5f6e" d="M288.89 543.74q-6.01 2.28-8.55 8.12" transform="matrix(1.80707 0 0 1.81544 -412.423 -343.711)" vector-effect="non-scaling-stroke"/><path stroke="#5d425a" d="M280.34 551.86q-3 3.85-2.19 10.56a1.92 1.91-89.4 0 0 1.62 1.66q5.61.84 11.36-1.2 9.58-3.41 14.78-5.67c6.52-2.84 12.55-3.68 19.01-3.84a.73.73 0 0 0 .51-1.23c-2.48-2.63-4.67-3.7-8.39-5.56q-12.34-6.16-26-3.78a1.27 1.12-59.9 0 0-.33.11l-1.82.83" transform="matrix(1.80707 0 0 1.81544 -412.423 -343.711)" vector-effect="non-scaling-stroke"/><path stroke="#936f4e" d="M280.34 551.86q.07 2.83 1.46 3.7c2.88 1.79 11.23-4.4 10.18-7.75q-.87-2.77-3.09-4.07" transform="matrix(1.80707 0 0 1.81544 -412.423 -343.711)" vector-effect="non-scaling-stroke"/><path stroke="#5d425a" d="M677.66 568.27a.38.38 0 0 0 .6.36q8.35-5.71 18.05-9.86 3.58-1.53 6.84-3.34a3.38 3.37-16 0 0 1.73-3.11c-.21-4.62-2.38-12-8.95-9.43-3.19 1.25-5.03 2.71-9.04 5.49a8.39 8.17-86.4 0 0-1.58 1.43q-6.4 7.57-7.65 18.46" transform="matrix(1.80707 0 0 1.81544 -412.423 -343.711)" vector-effect="non-scaling-stroke"/></g><g fill="#49327a" transform="matrix(1.80707 0 0 1.81544 -412.423 -343.711)"><path d="M343.21 579.35q.01-.03-.14-5.8c-.18-6.52 1.03-12.95 3.25-19.19 1.42-3.99 3.65-7.23 6.26-10.55a.62.62 0 0 0-.16-.92q-3.38-2.05-5.8-4.93c-1.96-2.33 1.54-6.14 2-7.49a.34.34 0 0 0-.5-.39q-3.07 1.95-5.51 1.19-1.33-.41-3.18-4.4-3.18-6.84-3.71-8.33-1.7-4.79 2.63-7.71 12.68-8.57 29.13-18.35 14.29-8.51 26.67-13.57 12.31-5.05 26.37-9.3a.46.46 0 0 0 .2-.76c-22.08-22.97-32.16-49.89-28.54-81.99a.49.48-89 0 0-.51-.54q-6.34.43-6.61.44c-9.02.46-17.97-1.13-18.71-11.63q-.56-7.89 1.88-16.18 5.74-19.49 16.04-36.68c4.72-7.88 13.54-18.94 22.23-21.53 7.77-2.31 13.49.51 18.97 5.8q5.08 4.92 10.07 11.57a.92.92 0 0 0 1.18.25c4.99-2.76 8.58-5 13.06-7.04q30.01-13.65 62.59-9.42c11.1 1.44 21.77 5.52 31.94 9.79q4 1.68 7.9 4.18a.75.75 0 0 0 1.01-.18q4.1-5.43 8.95-10.87c7.77-8.72 16.41-13.2 27.18-7.59 6.44 3.35 13.41 12.01 17.47 18.9q13.06 22.18 17.96 45.11c1.7 7.93.89 17.29-8.7 18.95q-6.57 1.14-14.88.36a.67.67 0 0 0-.73.79q4.22 22.25-1.74 43.61c-1.55 5.56-3.16 11.45-6.03 16.75a.26.26 0 0 0 .38.33q21.62-14.61 24.18-16.31c3.46-2.29 7.71-4.31 11-.08q4.02 5.18 6.28 8.6 1.26 1.9.1 4.41-1.99 4.29-2.54 8.12a.49.49 0 0 0 .69.52q2.34-1.11 4.15-1.77c3.05-1.11 4.42-2.08 6.36.68q1.83 2.61 4.06 6.21c3.22 5.2.27 8.12-3.42 12.37q-2.84 3.28-4.62 5.04c-14.13 14.06-31.43 33.2-45.53 47.97q-1.35 1.42-1.66 2.81a.48.47-81.9 0 0 .42.57q1.98.18 5.13-.28 4.12-.59 12.84-1.82 10.93-1.54 21.86.68a.25.25 0 0 0 .26-.38c-5.9-8.72-7.78-20.71 1.03-28.44q4.98-4.37 11.4-3c7.15 1.53 8.63 8.71 6.33 14.75q-.78 2.06-4.69 6.53-6.02 6.89-7.24 8.52-1.06 1.42-3.41 2.51a.21.2 42.2 0 0 .02.38c12.24 4.48 23.05 13.44 29.71 24.56q3.22 5.38 4.43 13.36 1.98 13.03-2.08 24.59a.53.52-87.4 0 0 .62.69q9.08-2.32 17.99-2.79 19.58-1.01 23-1.19 10.76-.57 18.15.25c8.65.96 16.11 6.41 16.55 15.63.43 9.16-8.56 13.03-15.95 14.79q-7.2 1.73-28.96 7.28-4.18 1.06-3.56 4.67c.38 2.17 1.41 6.57 1.17 9.07-.89 9.27-8.76 13.52-16.83 16.83-12.98 5.32-29.54 8.96-43.63 6.31-17.16-3.22-35.61-6.77-51.83-2.05-23.15 6.74-45.89 16.76-67.22 28.02q-3.6 1.9-12.12 4.87c-5.7 1.98-13.9 3.38-19.32-.11q-7.53-4.85-9.15-12.81a7.5 7.45-50.5 0 1-.16-1.72c.08-4.89 1.26-15.29-4.01-17.63-7.51-3.35-16.85-1-24.82 1.82-6.49 2.29-13.55 5.28-20.53 7.24q-19.62 5.51-37.2 7.8-6.68.88-12.31.67c-9.11-.33-18.54-5.62-19.41-15.38-.48-5.49 1.32-10.07 2.55-15.34a.63.63 0 0 0-.69-.76q-2.36.32-5.7 1.24-1.76.49-18.08 4.92c-12.88 3.5-27.93.22-39.56-5.54-7.69-3.82-7.18-10.99-1.38-16.46q6.65-6.29 15.14-8.12.77-.17 11.12-2.26c5.07-1.03 6.34-4.98 7.31-9.59q2.05-9.73 12.22-10.08 1.51-.05 2.75-.19a.41.41 0 0 0 .37-.46l-1.3-11.57a.25.25 0 0 0-.48-.05q-.92 2.47-2.13 3.59c-3.76 3.49-9.26 6.41-13.08 8.89q-9.02 5.88-19.62 7.65-3.22.54-8.39-.9c-7.21-2.01-8.26-8.45-5.2-14.7 5.14-10.48 15.65-16.54 27.41-14.03q1.5.31 8.71 3.13a6.86 6.77-30.7 0 0 1.74.43c3.11.33 8.8.75 10.21 4.13a.38.37-42.1 0 0 .68.03m197.45-221.28q11.55 2.03 20.61 7.21 4.32 2.47 6.61 3.02c13.03 3.14 26.13 5.19 39.36 5.35q5.95.08 10.05-1.35 1.76-2.97.96-7.57-3.13-17.96-9.11-29.35-7.76-14.77-9.83-18.16-3.38-5.54-9.79-11.53c-6.71-6.28-13.75-4.72-19.87 1.22q-5.51 5.36-9.88 11.36-10.94 15.05-22.38 32.62-1.46 2.24-3.29 5.83a.55.55 0 0 0 .44.8zm-167.42 14.16q-.89 1.7-.08 4.39c1.07 3.52 8.07 3.19 11.1 3.02 15-.84 27.1-3.14 41.84-6.57a9.05 8.93 23.6 0 0 2.24-.86c3.48-1.92 7.33-4.54 10.92-6q8.17-3.33 17-3.59a.39.39 0 0 0 .36-.5q-.66-2.04-2.04-3.9c-2.96-5.58-6.58-10.02-9.52-15.16-1.44-2.53-3.48-5.34-4.72-6.9q-6.78-8.45-13-17.26-3.34-4.74-7.84-8.61c-12.14-10.43-25.03 7.82-29.66 16.7-3.12 6.01-6.12 11.24-9.51 18.32q-3.71 7.75-6.11 16.21-1.41 4.98-.98 10.71m68.27-45.89 23.9 35.88a2.25 2.25 0 0 0 1.56.98c9.46 1.36 21.76 6.33 27.22 14.71a.32.32 0 0 0 .56-.04c5.68-11.77 16.77-17.02 28.97-19.19a3.47 3.42-78.5 0 0 2.31-1.55l11.82-18.83 10.95-15.94a.6.59-57.8 0 0-.19-.85c-11.82-6.93-24.55-10.8-37.87-12.71-23.47-3.37-50.11 2.13-69.84 15.38a.82.82 0 0 0-.34.88q.18.73.95 1.28M501.56 378a34.15 22.82.2 0 0 0 16.96 34.13 22.81.2 0 0 11.38 9.87 34.12 22.81.1 0 0 21.31 4.49 34.14 22.8.2 0 0 19.9-4.73 34.13 22.8.2 0 0 10.27-8.73 34.14 22.82.2 0 0 2.9-10.6 34.23 22.87.2 0 0-6.09-11.74 34.12 22.81.2 0 0-25.72-9.74 34.11 22.79.2 0 0-20.14 3.3A34.09 22.74.1 0 0 501.56 378m-74.39 4.73a34.05 22.73.3 0 0-2.55 10.25 34.18 22.82 0 0 0 5.7 11.2 34.2 22.8.1 0 0 16.94 8.81 34.17 22.79.2 0 0 27.78-1.42 34.22 22.79.1 0 0 14.02-9.52 34.19 22.81.1 0 0-1.21-22.43 34.17 22.81.1 0 0-32.36-10.8 34.17 22.81.1 0 0-28.32 13.91m146.15 2.42-.8 8.48a.68.67.7 0 0 .72.73l20.82-1.32a.65.65 0 0 0 .61-.69l-.27-4.96-1.08-7.03a.67.66-89.5 0 0-.54-.56l-21.31-3.78a.29.28-1.9 0 0-.33.35zm-174.43 7.86-.24 13.54a.64.63 86.9 0 0 .71.64l22.07-2.49a.64.63-18.5 0 0 .48-.95q-4.86-8.22-2.69-18.16l1.54-3.68a.64.64 0 0 0-.71-.87l-19.72 3.95a.84.83 87.2 0 0-.67.74zm180.82 7.84-11.04.13a1.56 1.53 18.6 0 0-1.22.59c-6.35 8.03-16.88 11.68-27.15 13.43a.25.25 0 0 0-.07.47c13.22 6.56 22.39 19.42 21.79 34.55-1.15 11.67-9.9 22.08-19.38 28.51q-23.56 14.32-51.64 10.86c-15.06-1.86-31.22-8.9-39.81-21.76q-10.89-16.29-1.25-33.15 4.82-8.43 12.35-13.85a.17.17 0 0 0-.11-.31q-18.93 1.27-33.62-9.81a1.75 1.74-32 0 0-1.41-.32q-12.67 2.65-26.99 3.59a.57.56-3.6 0 0-.53.59q.06 1.27.53 3.22c3.19 13.27 7.75 23.95 15.85 34.83 21.61 29.02 58.43 43.82 94.48 38.79q16.58-2.31 32.54-9.87 10.78-4.84 19.96-12.85 20.26-17.67 28.59-42.63 3.95-11.85 3.71-25.44a.48.48 0 0 0-.51-.47zm-87.57 7.65 12.49-.79a.31.31 0 0 0 .14-.57q-4.62-2.82-7.11-7.09a.47.47 0 0 0-.81 0l-4.79 8.31a.09.09 0 0 0 .08.14m-17.42 11.96a51 33.68-4.2 0 0-13.84 9.44 51.02 33.71-4.2 0 0-8.73 14.99 51.03 33.71-4.1 0 0 3.99 18.48 51.07 33.77-4.2 0 0 20.11 14.2 51.02 33.76-4.1 0 0 24.74 3.83 51.02 33.74-4.2 0 0 35.61-10.05 51.14 33.75-4.2 0 0 7.69-6.06 50.72 33.42-4.3 0 0 5.91-7.59 51.1 33.76-4.2 0 0 3.19-14.97 51.14 33.81-4.3 0 0-5.47-12.44 51 33.63-4.1 0 0-17.73-12.22 51.03 33.72-4.2 0 0-55.47 2.39m134.08 20.53 22.83 26.07a.84.83 45.4 0 0 1.25.01l8.75-9.69a1.4 1.39-39.7 0 0 .16-1.65c-1.2-1.98-3.06-3.77-5.65-2.29-6.21 3.54-12.9-.4-10.91-7.72q.22-.79 2.7-7.32a3.18 3.16 34.9 0 0-.58-3.22l-3.44-3.93a.78.78 0 0 0-.93-.19q-8.11 3.93-14.12 9.1a.59.58 49.4 0 0-.06.83m-27.6 61.81 6 10.34a.62.62 0 0 0 .96.13q14.92-14.6 28.88-30.23 4.59-5.14 9.77-10.37a.68.68 0 0 0 .04-.92l-4.86-5.82-19.26-21.64a.67.66-38.9 0 0-.89-.09q-6.63 4.95-10.1 6.77-1.45.76-3.03.22a1.34 1.33-61.1 0 0-1.48.43q-4.71 5.87-9.37 11.75-4.99 6.3-13.27 12.54a1.21 1.21 0 0 0-.27 1.63zm-208.91 10.8 8.31 10.36a1.04 1.03-25.5 0 0 1.03.36c5.79-1.23 11.79-2.2 18.22-1.96q8.79.32 18.38 1.14a.52.52 0 0 0 .56-.44c.82-5.41 2.2-10.92 4.29-16.12q4.71-11.72 10.99-23.95l1.36-2.1a.63.62-54.8 0 0-.14-.84l-7.52-5.63a.94.94 0 0 0-.99-.08q-.99.48-17.06 6.17-11.36 4.02-22.6 9.26c-8.28 3.86-15.24 8.51-22.94 13a.35.35 0 0 0-.1.52zm174.21-26.74q-8.18 15.41-16.36 26.28-7.29 9.69-19.13 9.33-11.14.24-17.25-.73-7.55-1.18-13.05-6.67-9.12-9.1-15.75-19.79a4.28 4.27-5.7 0 0-2.14-1.75l-13.92-5.18-7.62-4.15a.49.48 28.5 0 0-.65.19q-9.81 18.01-15.57 38.85a.76.76 0 0 0 .66.96q19.28 1.79 38.98 1.35l49.12-.78 48.96-1.84 21.78-.61a.51.5-17.4 0 0 .41-.78l-26.05-40.51a.71.71 0 0 0-1.04-.17q-5.13 4.05-11.38 6m-71.58 9.64a.36.35-10.8 0 0-.38.55q4.81 6.41 9.86 12.06c6.22 6.95 14.71 7.04 23.29 6.91 7.2-.12 10.52.12 15.91-6.08q7.02-8.08 11.75-17.14a.45.45 0 0 0-.56-.63q-12.13 4.8-24.7 6.02c-11.76 1.15-24.18 1.22-35.17-1.69m161.57 14.46c2.1-2.75 5.52-5.38 7.25-8.18q2.1-3.39 2.07-4.02-.16-4.68-4.03-4.41c-8 .57-8.41 10.55-6.66 16.36a.78.78 0 0 0 1.37.25m-279.81 8.24q4.1 2.38 2.12 6.8-1.57 3.49-4.59 8.62a1.25 1.24-53.8 0 0 .24 1.56l1.84 1.67a1.01 1 49.5 0 0 1.21.1l16.71-10.75a.33.33 0 0 0 .07-.48l-9.19-11.22-6.47-8.5a.93.93 0 0 0-1.24-.22l-13.74 8.84a1.8 1.8 0 0 0-.69 2.22l1.73 4.1a1.54 1.54 0 0 0 2.17.75q4.49-2.52 9.83-3.49m245.59 100.01L620 615a3.83 3.81 19.3 0 0 1.4-.67q.89-.63 2.44-2.99c5.2-7.88 10.39-14.71 12.39-21.5 3.17-10.8 2.71-23.09.2-34.05-2.65-11.56-10.57-20.6-18.91-28.64-1.54-1.48-2.98-1.87-5.03-1.53q-9.94 1.66-18.15 2.24a.33.33 0 0 0-.21.57c5.96 5.77 13.36 15.03 16.18 23.65 2.42 7.39 3.6 17.72 3.72 26.89.12 9.18-2.33 17.92-6.15 26.46q-5.04 11.27-6.05 13.22a.39.39 0 0 0 .44.56m42.18-58.81c1.14 11.58 1.32 23.91-2.77 34.81-1.84 4.89-4.35 8.17-7.82 13.73a.39.39 0 0 0 .45.58c13.93-4.25 22.09-14.99 27.5-28.48q3.79-12.69.81-25.43c-1.07-4.55-2.92-7.82-5.73-11.33q-11.91-14.89-30.14-18.73a.35.35 0 0 0-.34.58c4.13 4.75 7.84 8.43 10.74 13.43q5.65 9.75 7.3 20.84m-235.21-30.76c-6.33-.59-14.13-1.29-19.81.55a2.58 2.56 8.7 0 0-1.29.94c-9.22 12.84-18.38 29.02-17.77 45.37q.32 8.66 2.04 13.83 2.9 8.69 12.67 27.11 1.38 2.61 4.72 3.56 9.27 2.62 17.26 4.36a.4.4 0 0 0 .39-.64q-9.68-12.21-14.79-26.76c-8.39-23.91-.48-49.84 16.81-67.7a.37.37 0 0 0-.23-.62m118.78 15.11q2.63 6.11 3.77 11.23c4.6 20.59 6.23 42.31-.41 62.4q-2.8 8.47-3.69 11.33a.74.74 0 0 0 .77.95q32.28-2.69 62.73-8.77a2.56 2.52 7.9 0 0 1.75-1.3q5.19-9.84 10.8-22.84c5.77-13.38 4.09-32.41-1.03-45.88q-4.33-9.22-11.34-16.25-4.29-4.31-6.1-6.34a1.16 1.15-22 0 0-.9-.38l-63.7 2.41a.26.25-18.7 0 0-.2.4q4.7 6.63 7.55 13.04m-121.68 1.03c-11.82 16.92-11.89 35.67-5.17 54.69 3.16 8.95 10.29 18.17 15.58 25.27a4.14 4.12 75.6 0 0 2.73 1.62q12.85 1.8 23.52 2.59 28.76 2.14 56.2 1.92a.44.44 0 0 0 .42-.56c-.71-2.5-3.54-5.91-6.34-10.09q-12.2-18.22-13.98-41-.94-12.12 1.09-20.8 1.34-5.77 5.31-14.16l5.55-12.38a.42.42 0 0 0-.4-.59c-22.37.78-48.1.93-71.64-1.91a1.33 1.32 22.6 0 0-1.2.49zm104.91-14.15-11.07.42a1.26 1.25-78.1 0 0-1.08.71c-7.69 15.89-14.06 26.81-13.68 41.49q.59 22.65 12.79 41.82 4.64 7.29 9.96 15.06a.85.82-17.1 0 0 .71.36l10.46-.4a1.04 1.04 0 0 0 .93-.68q3.91-10.94 6.8-22.08c3.98-15.34 1.99-33.76-1.55-49.34-2.35-10.33-7-17.4-13.13-26.77a1.33 1.31-17.1 0 0-1.14-.59m-154.86 18.62c-4.96 7.76-6.94 18.78-6.29 27.55.9 11.97 3.1 21.94 12.92 28.9q5.96 4.23 11.42 7.14a.42.42 0 0 0 .58-.56c-4.86-9.89-9.15-18.96-11.07-30.65-2.12-12.87 1.34-23.94 6.75-35.61l6.89-13.12a.39.38-89.1 0 0-.51-.53q-12.16 6.15-20.69 16.88m-52.54 34.68q-1.83 1.53-2.68 3.93-2.21 1.7-1.03 4.31a1.18 1.16-1.7 0 0 .66.61c10.31 3.7 21.59-4.79 30.71-10.23a.86.8-34.7 0 0 .27-1.22q-.17-.23-.82-.5c-5.9-2.5-12.59-4.47-19.15-3.22q-5.76 1.09-7.96 6.32m344.73 25.7q-6.56 3.47-8.38 4.07-8.01 2.67-14.83 6.1a7.59 7.24 24.6 0 1-1.88.65c-5.23 1.03-10.9 2.39-15.9 4.89a2.78 2.62 27.3 0 1-.94.27q-10.55.94-19.58 2.96c-6.38 1.44-11.45 2.13-16.61 3.22q-6.33 1.35-12.51 1.96-8.97.89-32.19 2.92-12.86 1.13-30.69.83-32.12-.53-40.07-.86-18.32-.75-25.25-1.66-13.8-1.83-16.28-2.06-8.88-.86-16.04-3.09-17.42-5.42-32.09-13.66-3.98-2.23-11.46-9.55c-3.21-3.43-5.72-8.5-10.85-8-2.75.27-5.79 1.35-6.54 4.15-2 7.43-5.04 13.82-12.97 15.75q-2.68.65-10.21 1.81c-5.46.83-11.07 5.35-14.76 9.43a1.31 1.3-49.4 0 0 .14 1.9q1.4 1.14 3.29 1.73 1.61 1.82 3.24 2.18 5.04 1.08 13.39 3 6.03 1.38 14.86-.22 5.56-1 18.03-5.02 2.92-.94 9.69-1.68c3.07-.34 5.36.74 6 3.85q.4 2 .09 3.77-.74 4.25-1.87 11.98c-.83 5.68 2.16 7.86 6.96 10.54 3.4 1.91 8.62 1.67 12.4 1.26q8.29-.89 14.71-2.11 7.87-1.49 23.4-5.61c9.2-2.43 20.95-7.55 31.14-10.06 4.99-1.23 10.14-1.93 14.87-.37a3.35 3.2-34.2 0 0 .95.16q4.89.16 8.8 2.91a3.32 3.22 1.2 0 1 .78.79q4.35 6.32 4.29 12.24-.08 7.73.22 10.46c1.26 4.5 4.69 7.85 9.48 8.02 7.24.25 14.78-2.43 21.56-6.03q8.89-4.73 17.53-9.09c6.52-3.29 16.01-6.33 24-9.83q5.8-2.3 11.94-4.76 6.67-2.67 12.18-4.01 13.23-3.22 26.63-3.01 8.2.12 24.58 3.29 9.23 1.78 12.89 1.75 8.21-.08 13.02-.92 1.57-.27 9.56-2.21c6.21-1.5 11.27-4.62 17.07-7.12 4.19-1.8 7.28-4.67 5.96-9.42q-1.53-5.5.1-11.02 1.29-4.37 6.52-6.4 4.71-1.82 9.11-2.67 4.02-.77 7.07-1.57 7.89-2.06 15.79-4.02 3.87-.41 6.64-2.86c4.41-3.89 1.79-10.11-2.87-12.27q-2.85-1.32-6.76-1.66-8.01-.7-19.92-.02c-9.03.51-18.06.75-26.9 2.18q-6.78 1.09-12.69 2.35-1.81.39-3.07 2.19c-4.38 6.28-7.55 13-14.77 17.28"/><path d="M550.27 393.55a2.13 2.09-4.7 0 1-1.87 2.17q-1.7.21-3.15-1.25-3.06-3.08-6.41-6.4c-3.31-3.29-5.84-6.41-9.89-2.22q-3.21 3.31-5.62 5.58-2.64 2.46-5 .36a2.68 2.32-53.9 0 1-.27-3.21q3.87-6.27 9.95-10.02c8.03-4.96 16.73 3.53 20.84 10.32q1.31 2.19 1.42 4.67m-107.83 4.15-.08-.12a4.32 4.32 0 0 1 .2-4.96q6.25-8.16 11.95-11.58c4.14-2.49 8.51-1.57 12.27 1.83 3.32 3.01 6.79 5.96 7.19 10.21a2.49 2.21-7.2 0 1-2.13 2.44c-2.48.38-5.5-3.45-6.91-5.03-3.42-3.83-7.08-5.28-10.75-.97q-3.99 4.67-7.7 8.56a2.58 2.58 0 0 1-4.04-.38"/><ellipse rx="20.89" ry="10.11" transform="rotate(-90 467.025 -20.455)"/><ellipse rx="20.76" ry="10.06" transform="rotate(-90.7 479.895 -33.154)"/><path d="M665.41 534.35c-8.55-2.08 1.1-30 3.4-35.39q2.62-6.11 5.39-8.78c4.49-4.34 10.81-8.58 16.91-9.05 10.4-.8 15.19 7.28 14.22 16.66-.57 5.56-4.44 9.04-9.02 12.24q-3.24 2.26-4.21 3.38c-4.95 5.7-9.77 9.84-16.62 16.56-2.76 2.7-5.95 5.38-10.07 4.38m24.71-45.27q-7.57 1.63-12.6 7.96-1.14.85-1.5 1.72-5.3 12.61-7.3 26.14a.88.87-18.5 0 0 1.49.74q4.98-5.08 14.81-14.75c6.23-6.14 18.73-10.99 11.99-21.26a2.94 2.92 2.3 0 0-.66-.71q-3.5-2.62-6.23.16m-356.99 65.44q-.91 3.91-4.9 4.52c-6.98 1.06-13.05 1.46-18.28 3.64-10.16 4.25-18.13 7.81-27.68 8.7-10.03.94-10.88-8.49-10.47-15.75q.18-3.23 1.91-6.69c8.57-17.08 29.92-15.75 44.8-9.2 4.47 1.96 15.99 8.87 14.62 14.78m-44.24-10.78q-6.01 2.28-8.55 8.12-3 3.85-2.19 10.56a1.92 1.91-89.4 0 0 1.62 1.66q5.61.84 11.36-1.2 9.58-3.41 14.78-5.67c6.52-2.84 12.55-3.68 19.01-3.84a.73.73 0 0 0 .51-1.23c-2.48-2.63-4.67-3.7-8.39-5.56q-12.34-6.16-26-3.78a1.27 1.12-59.9 0 0-.33.11zm390.81 33.13c-3.19 2.09-7.47 2.27-8.14-2.39q-.65-4.5.64-12.75c1.65-10.48 8.46-19.39 17.93-23.63 7.6-3.4 14.52-3.68 18.66 4.38 3.81 7.44 4.3 16.77-4.97 20.34q-9.61 3.69-14.07 6.26c-3.77 2.17-7.09 5.86-10.05 7.79m-2.04-8.6a.38.38 0 0 0 .6.36q8.35-5.71 18.05-9.86 3.58-1.53 6.84-3.34a3.38 3.37-16 0 0 1.73-3.11c-.21-4.62-2.38-12-8.95-9.43-3.19 1.25-5.03 2.71-9.04 5.49a8.39 8.17-86.4 0 0-1.58 1.43q-6.4 7.57-7.65 18.46"/></g><path fill="#e7a9dc" d="m559.51 270.454-21.36 34.184a6.181 6.299 8.751 0 1-4.174 2.814c-22.046 3.94-42.087 13.47-52.35 34.839a.578.58 0 0 1-1.013.072c-9.866-15.213-32.093-24.236-49.188-26.705a4.066 4.085 0 0 1-2.82-1.779l-43.188-65.138q12.035-3.704 24.648-4.757c36.63-3.05 74.018-4.484 110.936 8.896 12.306 4.448 27.052 7.516 38.509 17.574m75.644 113.556q1.446 6.1 1.03 9.04-2.295 16.176-7.644 34.15c-3.867 12.998-12.053 26.977-18.324 37.706q-2.8 4.774-7.03 8.369c1.085-27.468-15.486-50.814-39.375-62.724a.452.454 0 0 1 .126-.853c18.559-3.177 37.587-9.803 49.062-24.381a2.82 2.776 23.636 0 1 2.205-1.071zm-66.988 141.023.705 5.102q-28.841 13.725-58.802 17.918c-65.145 9.132-131.682-17.737-170.733-70.42C324.7 457.88 316.46 438.49 310.694 414.4q-.849-3.54-.957-5.846a1.03 1.017-4.865 0 1 .957-1.07q25.878-1.707 48.773-6.518a3.17 3.152-56.142 0 1 2.548.58q26.546 20.116 60.754 17.81a.307.309 0 0 1 .199.563q-13.608 9.84-22.318 25.144-17.42 30.608 2.26 60.182c15.522 23.347 44.724 36.127 71.939 39.504q50.742 6.282 93.317-19.716m143.391-22.874c-5.168 5.029-10.065 9.785-15.848 14.45q-27.45 22.022-52.044 47.275-2.566 2.632-5.818 5.21l-30.504-45.858a2.187 2.197 0 0 1 .488-2.96q14.963-11.327 23.98-22.765 8.42-10.675 16.932-21.331a2.431 2.405-71.827 0 1 2.675-.78q2.855.98 5.475-.4 6.27-3.304 18.252-12.29a1.213 1.196-47.808 0 1 1.608.163zM371.972 533.13q-11.348 22.203-19.86 43.48c-3.776 9.44-6.27 19.444-7.752 29.265a.94.944 0 0 1-1.012.799q-17.33-1.489-33.214-2.07c-11.62-.435-22.462 1.326-32.925 3.559a1.882 1.867-39.508 0 1-1.861-.654l-15.017-18.808c6.994-3.413 14.077-8.514 19.986-11.492 7.626-3.83 14.855-7.715 22.444-12.472q20.745-13.017 42.593-21.295 3.162-1.216 11.583-5.592 7.391-3.848 15.035-4.72m73.819 24.527c19.86 5.283 42.304 5.156 63.555 3.068q22.715-2.215 44.634-10.929a.813.817 0 0 1 1.012 1.144q-8.547 16.448-21.233 31.117c-9.74 11.255-15.74 10.82-28.75 11.037-15.505.236-30.847.073-42.087-12.544q-9.126-10.258-17.818-21.895a.65.635-12.84 0 1 .687-.998"/><path fill="#715239" d="M811.904 558.637q2.024 7.39 10.427 4.43 7.083-2.487 12.812-5.864c5.873-3.486 7.409-10.384-.47-13.017q4.933-5.047 11.258-.29a5.313 5.301 7.045 0 1 1.193 1.289c12.18 18.644-10.41 27.45-21.667 38.596q-17.764 17.556-26.763 26.778a1.591 1.578-28.39 0 1-2.693-1.343q3.615-24.563 13.192-47.456.65-1.58 2.71-3.123m-74.143 25.271a1.41 1.416 0 0 1-2.476-.454c-3.162-10.547-2.422-28.665 12.035-29.7q6.993-.49 7.282 8.006.055 1.144-3.74 7.298c-3.126 5.083-9.307 9.858-13.101 14.85M94.171 658.16q.126 5.138 2.638 6.717c5.205 3.25 20.294-7.988 18.396-14.07q-1.572-5.028-5.584-7.388l3.29-1.507a2.303 2.026-60.802 0 1 .596-.2q24.684-4.32 46.984 6.862c6.722 3.377 10.68 5.32 15.16 10.094a1.32 1.325 0 0 1-.92 2.233c-11.674.29-22.571 1.816-34.353 6.972q-9.397 4.102-26.709 10.293-10.39 3.704-20.528 2.179a3.452 3.486.318 0 1-2.927-3.014Q88.75 665.15 94.17 658.16m717.987 29.791q2.259-19.77 13.824-33.513a14.764 15.231 3.067 0 1 2.855-2.596c7.246-5.047 10.571-7.697 16.336-9.967 11.872-4.665 15.794 8.733 16.173 17.12a6.121 6.105-71.674 0 1-3.126 5.646q-5.891 3.286-12.36 6.064-17.529 7.534-32.618 17.9a.687.69 0 0 1-1.084-.654m-680.345 37.38c4.175 11.238 25.444-4.466 15.415-11.637-2.874-2.051-9.072 2.869-10.572 4.503q3.976-9.495 14.385-11.474c11.854-2.27 23.943 1.307 34.605 5.846q1.175.49 1.482.908a1.557 1.45-36.454 0 1-.488 2.214c-16.48 9.876-36.864 25.29-55.495 18.572a2.132 2.106-2.33 0 1-1.193-1.107q-2.132-4.738 1.861-7.825M904.787 751.8q-14.276 3.559-28.533 7.299-5.512 1.452-12.776 2.85-7.952 1.543-16.463 4.847-9.45 3.686-11.782 11.619-2.946 10.021-.18 20.006c2.385 8.624-3.2 13.834-10.77 17.102-10.482 4.538-19.626 10.203-30.848 12.926q-14.438 3.522-17.275 4.012-8.692 1.525-23.528 1.67-6.614.054-23.293-3.177-29.6-5.755-44.418-5.973-24.215-.381-48.123 5.465-9.956 2.432-22.01 7.28-11.095 4.466-21.576 8.641-11.457.381-17.185 1.943c-9.849 2.705-22.516 5.954-33.467 10.275q-27.034 10.657-54.393 18.227a6.96 6.75-57.168 0 1-1.392.218q-11.764.526-23.166-5.719a.886.87 29.092 0 0-1.265.49q-.813 2.524-.271 5.302-.542-4.957-.398-18.99.109-10.747-7.752-22.221a6 5.846 1.414 0 0-1.41-1.434q-7.065-4.993-15.902-5.283a6.063 5.8-36.985 0 1-1.717-.29c-8.547-2.833-17.854-1.562-26.87.671-18.415 4.557-39.648 13.852-56.273 18.263q-28.064 7.48-42.285 10.185-11.602 2.215-26.583 3.83c-6.83.745-16.263 1.18-22.407-2.287-8.674-4.865-14.077-8.823-12.577-19.135q2.042-14.033 3.379-21.749.56-3.213-.163-6.844c-1.156-5.646-5.295-7.607-10.842-6.99q-12.234 1.344-17.51 3.05-22.535 7.299-32.582 9.114-15.957 2.905-26.853.4-15.09-3.486-24.197-5.447-2.946-.653-5.855-3.957c11.963-2.578 27.973-5.592 37.732-14.016q.65-.562 10.372-8.75 7.644-6.427 15.162-16.539 4.373-5.9 11.312-8.187 5.349-1.761 19.209-1.108 13.517 13.29 20.71 17.338 26.509 14.959 57.988 24.799 12.939 4.048 28.985 5.61 4.482.417 29.42 3.74 12.523 1.651 45.628 3.013 14.366.599 72.41 1.561 32.22.545 55.459-1.507 41.96-3.685 58.17-5.3 11.167-1.108 22.606-3.56c9.324-1.978 18.486-3.23 30.015-5.845q16.318-3.667 35.383-5.374a5.029 4.752 29.207 0 0 1.698-.49c9.036-4.538 19.282-7.007 28.733-8.877a13.728 13.132 26.866 0 0 3.397-1.18q12.324-6.227 26.799-11.074 3.289-1.09 15.143-7.39 6.054-1.18 11.818-2.577c11.656-2.832 23.565-4.194 35.166-6.3q14.655-2.669 23.33-3.54 25.443-2.56 63.789-1.035 1.319.055 3.867-.163a3.632 3.649 0 0 1 1.735.29q2.747 1.18 5.475.273"/><path fill="#569bea" d="M588.965 390.8a61.693 41.392.202 0 1-35.96 8.586 61.657 41.41.101 0 1-38.51-8.15 61.675 41.41.202 0 1-20.564-17.92 61.712 41.428.202 0 1 0-30.79q2.711-.072 5.494-1.107 4.192-1.561 5.295-1.797 21.178-4.484 41.291-3.576 11.132.508 23.348 7.407c16.57 9.367 22.66 28.665 18.558 46.239q-.126.58 1.048 1.107m-7.011-20.043q-.199-4.502-2.566-8.478c-7.427-12.327-23.149-27.74-37.66-18.736q-10.987 6.808-17.98 18.191a4.858 4.199-54.771 0 0 .488 5.828q4.265 3.812 9.035-.654 4.355-4.12 10.156-10.13c7.319-7.607 11.89-1.943 17.872 4.03q6.054 6.028 11.583 11.62 2.62 2.65 5.693 2.268a3.85 3.794-6.201 0 0 3.379-3.94m-135.946 32.716a61.748 41.374.202 0 1-50.2 2.578 61.802 41.392.101 0 1-30.612-15.994 61.766 41.428 0 0 1-10.3-20.333 61.53 41.265.304 0 1 4.607-18.608q27.034-11.583 54.447-9.295c11.493.962 21.252 5.137 30.648 10.202 5.837 3.141 12.523 6.845 14.493 13.634q2.132 7.444-1.283 15.214-4.608 10.511-11.8 22.602m-58.91-25.18a4.662 4.684 0 0 0 7.3.69q6.704-7.062 13.914-15.54c6.632-7.825 13.246-5.193 19.426 1.76 2.548 2.869 8.006 9.822 12.487 9.132a4.5 4.012-7.488 0 0 3.85-4.43c-.724-7.715-6.994-13.07-12.994-18.535-6.794-6.173-14.691-7.843-22.172-3.322q-10.3 6.208-21.595 21.023a7.807 7.843 0 0 0-.361 9.004zM661.7 359.574l.488 9.004a1.175 1.18 0 0 1-1.102 1.253l-37.624 2.396a1.229 1.216 1.017 0 1-1.3-1.325l1.445-15.395c14.131.4 25.064 1.053 38.093 4.067m-316.563-3.268q-3.921 18.045 4.861 32.968a1.157 1.143-24.997 0 1-.867 1.725l-39.882 4.52a1.138 1.162-2.397 0 1-1.283-1.161l.433-24.581q6.578-3.668 12.776-6.01 11.584-4.393 23.962-7.461m131.627 41.338 8.656-15.087a.85.853 0 0 1 1.464 0q4.5 7.752 12.848 12.872a.56.563 0 0 1-.253 1.035l-22.57 1.434a.163.163 0 0 1-.145-.254m-77.993 145.217q2.656 9.84 5.349 19.353c5.024 17.773 12.975 33.132 23.203 48.182q-35.6.798-70.44-2.451a1.373 1.38 0 0 1-1.193-1.743q10.41-37.834 28.137-70.53a.887.87 34.545 0 1 1.174-.345zm176.37-2.705q9.325 18.754 15.704 36.4 2.819 7.788 6.469 14.687 3.759 7.098 7.246 14.396l-88.474 3.34q-1.482.436-5.078-4.175 21.396.654 34.57-16.938 14.781-19.734 29.563-47.71"/><path fill="#e7b538" d="M676.717 658.178c9.252 24.454 12.288 59.002 1.861 83.293q-10.138 23.6-19.516 41.464a4.627 4.574 11.078 0 1-3.163 2.36q-55.025 11.038-113.357 15.922a1.337 1.343 0 0 1-1.392-1.725q1.608-5.192 6.668-20.569c12-36.472 9.054-75.903.741-113.283q-2.06-9.295-6.812-20.388 37.93-.381 74.957 1.543c15.703.835 31.479.78 48.773 2.324q4.21.363 5.385 4.593.867 3.123 1.355 3.45 3.885 2.56 4.5 1.016m-211.446-12q-7.174 15.232-9.595 25.707-3.669 15.758-1.97 37.761 3.217 41.356 25.263 74.433c5.06 7.589 10.174 13.78 11.457 18.318a.795.799 0 0 1-.76 1.017q-49.585.4-101.557-3.486-19.281-1.434-42.502-4.702a7.446 7.515-7.37 0 1-4.933-2.941c-9.56-12.89-22.444-29.628-28.155-45.876-12.143-34.53-12.017-68.57 9.343-99.287q61.242-.454 122.266-1.979 8.44-.218 21.143 1.035m-207.813 3.195c-9.776 21.186-16.029 41.283-12.198 64.648 3.47 21.223 11.222 37.689 20.005 55.644a.759.762 0 0 1-1.049 1.016q-9.866-5.283-20.636-12.962c-17.746-12.636-21.721-30.736-23.348-52.466-1.174-15.922 2.404-35.928 11.367-50.016l.38 1.162a1.175 1.18 0 0 0 2.06.309l2.945-4.158a1.482 1.362 5.272 0 1 .705-.544q9.577-3.395 19.769-2.633m526.057 61.762c-9.777 24.49-24.522 43.988-49.695 51.704a.705.708 0 0 1-.813-1.053c6.27-10.094 10.806-16.049 14.131-24.927 7.391-19.788 7.066-42.172 5.006-63.195q12.09 6.1 16.896 11.437 8.656 9.604 10.752 24.055.506 3.431 3.723 1.979"/><path fill="#e8d1b2" d="M929.526 969.963q-16.336 11.927-34.19 21.93-1.608.908-26.528 11.492c-17.402 7.389-39.267 9.821-55.929 11.42q-11.818 1.143-32.726 1.18-198.832.199-316.11-.055-109.744-.236-193.375-1.07c-8.204-.092-26.619.308-37.66.762-18.974.78-37.515-1.834-56.922-6.39-16.3-3.813-33.92-11.347-46.171-17.483-12.812-6.41-27.305-17.23-43.207-30.228-18.396-15.032-33.756-34.44-44.978-54.917q-5.62-10.24-12.903-25.217c-4.626-9.55-6.451-18.971-9.668-28.648q-2.313-6.917-4.21-17.283-2.765-14.959-2.964-17.555-.325-4.248-.289-28.775.163-120.836.145-531.925c0-19.807-.705-44.606 2.855-64.013q4.445-24.309 10.571-42.282 1.283-3.74 9.253-20.187 5.023-10.385 10.914-19.317Q53.35 99.384 56.168 94.32a27.575 27.27 85.348 0 1 4.518-6.045C80.564 68.16 92.798 54.308 113.76 42.398c6.92-3.94 13.806-9.24 21.63-12.726q29.763-13.27 58.134-17.828c15.613-2.487 31.732-3.322 49.297-3.304q208.735.182 548.211.091 10.156 0 18.017.381c9.27.454 16.064.363 23.943 1.925q33.54 6.68 59.615 20.35c9.506 4.975 20.746 10.839 30.25 18.1q17.168 13.108 25.68 21.423 1.39 1.362 11.872 13.108c12.523 14.07 21.377 29.101 30.738 47.128q10.3 19.861 14.529 39.05 5.168 23.438 6.542 41.32 1.716 22.167 1.752 78.373.127 250.422-.09 502.061-.037 26.342-3.886 45.913-8.041 40.866-30.196 76.448c-10.011 16.085-24.016 30.59-36.575 44.097q-4.77 5.138-13.698 11.656zm-722.973-261.95c-2.548-6.137-12.83-6.9-18.45-7.499a12.271 12.416 49.167 0 1-3.145-.78q-13.029-5.12-15.74-5.683c-21.25-4.556-40.243 6.445-49.531 25.471-5.53 11.347-3.632 23.038 9.397 26.687q9.342 2.614 15.16 1.634 19.156-3.213 35.456-13.888c6.903-4.503 16.842-9.804 23.636-16.14q2.187-2.033 3.85-6.517a.452.454 0 0 1 .867.09l2.349 21.005a.74.744 0 0 1-.669.836q-2.24.254-4.97.344-18.377.636-22.082 18.3c-1.753 8.37-4.048 15.54-13.21 17.41q-18.703 3.795-20.094 4.103-15.342 3.322-27.36 14.742c-10.48 9.93-11.402 22.947 2.495 29.882 21.016 10.457 48.212 16.411 71.487 10.057q29.492-8.042 32.672-8.932 6.036-1.67 10.3-2.25a1.138 1.144 0 0 1 1.247 1.379c-2.222 9.567-5.475 17.882-4.608 27.849 1.573 17.719 18.613 27.322 35.076 27.921q10.174.382 22.245-1.216 31.768-4.157 67.223-14.16c12.613-3.559 25.371-8.987 37.099-13.144 14.402-5.12 31.28-9.386 44.852-3.304 9.523 4.248 7.39 23.128 7.246 32.006a13.48 13.599 24.03 0 0 .289 3.123q2.927 14.45 16.535 23.255c9.794 6.336 24.612 3.795 34.912.2q15.397-5.392 21.902-8.841c38.545-20.442 79.638-38.633 121.471-50.869 29.311-8.569 62.652-2.124 93.66 3.722 25.463 4.81 55.388-1.798 78.843-11.456 14.584-6.009 28.805-13.724 30.413-30.554.434-4.538-1.427-12.526-2.114-16.466q-1.12-6.553 6.433-8.478 39.322-10.076 52.333-13.216c13.354-3.195 29.6-10.221 28.823-26.85-.795-16.74-14.276-26.633-29.907-28.376q-13.354-1.489-32.798-.454-6.18.327-41.563 2.16-16.101.854-32.51 5.065a.94.962 2.092 0 1-1.12-1.252q7.337-20.987 3.759-44.642-2.187-14.487-8.005-24.254c-12.035-20.188-31.57-36.454-53.688-44.588a.38.362 44.92 0 1-.037-.69q4.247-1.978 6.163-4.556 2.204-2.96 13.083-15.468 7.065-8.115 8.475-11.855c4.156-10.965 1.482-24-11.439-26.778q-11.601-2.487-20.6 5.447c-15.92 14.033-12.523 35.8-1.862 51.631a.452.454 0 0 1-.47.69q-19.75-4.03-39.502-1.235-15.758 2.233-23.203 3.305-5.692.835-9.27.508a.85.871 6.652 0 1-.76-1.035q.561-2.523 3-5.101c25.48-26.814 56.743-61.562 82.276-87.087q3.217-3.195 8.35-9.15c6.667-7.716 11.998-13.017 6.18-22.457q-4.03-6.536-7.337-11.274c-3.506-5.01-5.982-3.25-11.493-1.235q-3.271 1.199-7.5 3.214a.885.89 0 0 1-1.247-.944q.994-6.953 4.59-14.742 2.097-4.556-.18-8.006-4.084-6.209-11.349-15.613c-5.945-7.679-13.625-4.012-19.878.146q-4.626 3.086-43.695 29.61a.47.472 0 0 1-.686-.6c5.186-9.621 8.095-20.314 10.896-30.408q10.77-38.778 3.145-79.172a1.21 1.216 0 0 1 1.319-1.434q15.017 1.416 26.89-.654c17.329-3.013 18.793-20.006 15.72-34.402q-8.854-41.628-32.454-81.895c-7.337-12.508-19.932-28.23-31.57-34.312-19.462-10.185-35.075-2.051-49.116 13.78q-8.764 9.875-16.173 19.733a1.355 1.362 0 0 1-1.826.327q-7.047-4.539-14.275-7.589c-18.378-7.751-37.66-15.158-57.718-17.773q-58.875-7.68-113.105 17.102c-8.096 3.703-14.583 7.77-23.6 12.78a1.663 1.67 0 0 1-2.133-.453q-9.017-12.073-18.197-21.005c-9.903-9.604-20.239-14.723-34.28-10.53-15.703 4.702-31.642 24.781-40.171 39.087q-18.613 31.207-28.986 66.59-4.409 15.05-3.397 29.374c1.337 19.062 17.51 21.949 33.81 21.114q.488-.018 11.945-.799a.867.89.817 0 1 .922.98c-6.542 58.276 11.673 107.148 51.574 148.849a.831.835 0 0 1-.362 1.38q-25.407 7.715-47.652 16.883-22.372 9.186-48.195 24.636-29.726 17.755-52.64 33.313-7.824 5.301-4.752 13.997.957 2.705 6.704 15.123 3.343 7.244 5.746 7.988 4.41 1.38 9.957-2.16a.614.617 0 0 1 .904.708c-.831 2.45-7.156 9.367-3.614 13.597q4.373 5.229 10.48 8.95a1.12 1.126 0 0 1 .29 1.67c-4.717 6.028-8.746 11.91-11.313 19.154-4.011 11.328-6.198 23.001-5.872 34.838q.27 10.475.253 10.53a.67.688 42.92 0 1-1.23-.055M790.02 626.37c7.445 1.816 13.21-3.05 18.197-7.951 12.379-12.2 21.089-19.716 30.034-30.064q1.753-2.033 7.608-6.136c8.276-5.81 15.27-12.127 16.3-22.221 1.752-17.029-6.904-31.698-25.697-30.245-11.023.853-22.444 8.55-30.558 16.43q-5.005 4.847-9.74 15.939c-4.156 9.785-21.594 60.472-6.144 64.248m-600.454 36.62c2.476-10.73-18.341-23.274-26.42-26.832-26.888-11.891-65.47-14.306-80.956 16.702q-3.126 6.281-3.451 12.145c-.741 13.18.795 30.3 18.92 28.593 17.257-1.615 31.66-8.078 50.02-15.794 9.45-3.958 20.42-4.684 33.033-6.608q7.21-1.108 8.854-8.206m611.568 36.236c1.21 8.46 8.945 8.134 14.71 4.34 5.348-3.505 11.347-10.204 18.16-14.143q8.06-4.666 25.426-11.365c16.751-6.48 15.866-23.419 8.98-36.926-7.48-14.632-19.985-14.124-33.72-7.952-17.112 7.698-29.418 23.874-32.4 42.9q-2.331 14.977-1.156 23.146" style="stroke-width:1.81125"/><path fill="#ae689f" d="M703.064 332.179q-7.41 2.596-18.161 2.45c-23.908-.29-47.58-4.012-71.127-9.712q-4.138-.999-11.944-5.483-16.372-9.404-37.244-13.09 14.24-27.34 34.894-49.633 2.314-2.506 5.205-4.34 11.637-7.406 23.33-15.34a21.29 21.22 41.549 0 1 3.667-1.997q9.849-4.212 14.511-5.718c5.946-1.925 9.795-.128 13.282 5.337 6.632 10.366 12.903 20.406 17.095 32.297 4.68 13.307 10.156 26.142 14.529 35.51 4.463 9.53 8.096 19.588 11.963 29.719m-294.029-25.562q2.494 3.377 3.687 7.08a.705.708 0 0 1-.651.908q-15.956.472-30.72 6.518c-6.488 2.65-13.445 7.407-19.733 10.892a16.37 16.195 32.791 0 1-4.048 1.562c-26.636 6.227-48.502 10.402-75.608 11.927-5.476.309-18.125.908-20.059-5.483q-1.463-4.883.145-7.97 5.024-13.742 12.162-24.453a16.008 15.834 79.575 0 0 1.608-3.123c6.541-17.428 11.746-32.406 25.57-45.786q13.535-13.107 20.203-17.954 5.674-4.121 13.734-4.34 5.746-.144 13.535 4.939c19.1 12.508 31.226 32.75 45.646 47.8 4.41 4.612 9.993 13.308 12.379 18.954a.994.998 0 0 0 1.247.526q1.247-.49.903-1.997m148.216 205.381a92.2 61.252-4.25 0 1-64.35 18.246 92.199 61.288-4.149 0 1-44.707-6.953 92.29 61.306-4.25 0 1-36.34-25.78 92.217 61.197-4.149 0 1-7.21-33.55 92.2 61.197-4.25 0 1 15.776-27.213 92.163 61.143-4.25 0 1 25.01-17.138q6.975-.054 13.806-1.089 6.541-.998 9.36-.962 4.753.036 9.451-.672c8.168-1.234 17.999-.4 26.835-.145 14.53.454 26.727 5.301 39.43 11.22 17.674 8.224 28.354 21.131 28.751 41.628q.127 6.081-3.994 19.806a5.055 3.114-50.19 0 1-.253.617zm-88.763-82.91a18.27 37.925 0 0 0-18.27 37.924 18.27 37.925 0 0 0 18.27 37.924 18.27 37.925 0 0 0 18.27-37.924 18.27 37.925 0 0 0-18.27-37.925m56.338-.252a18.18 37.689-.695 0 0-17.72 37.909 18.18 37.689-.695 0 0 18.636 37.463 18.18 37.689-.695 0 0 17.72-37.91 18.18 37.689-.695 0 0-18.636-37.462m162.896 28.047a1.07 1.05 56.597 0 1 .108-1.507q10.86-9.386 25.516-16.52a1.41 1.416 0 0 1 1.68.344l6.217 7.135a5.76 5.723 56.216 0 1 1.048 5.846q-4.481 11.854-4.88 13.289c-3.595 13.289 8.494 20.442 19.716 14.015 4.68-2.687 8.042.563 10.21 4.157a2.537 2.517-57.562 0 1-.29 2.996l-15.811 17.591a1.522 1.503 55.901 0 1-2.259-.018zM232.123 598.868l15.197-6.718 16.607 20.37a.596.6 0 0 1-.126.871l-30.196 19.516a1.83 1.81 61.08 0 1-2.187-.181l-3.325-3.032a2.267 2.243-66.323 0 1-.434-2.832q5.458-9.314 8.295-15.65 3.578-8.024-3.831-12.344"/><path fill="#fefefe" d="M675.126 779.414q1.826-3.54 10.933-24c6.903-15.505 11.33-31.372 11.114-48.037-.217-16.648-2.35-35.402-6.723-48.818-5.096-15.649-18.468-32.46-29.238-42.935a.596.6 0 0 1 .38-1.035q14.836-1.053 32.798-4.066c3.704-.618 6.307.09 9.09 2.777 15.07 14.596 29.382 31.008 34.171 51.995 4.536 19.897 5.367 42.209-.361 61.816-3.614 12.326-12.993 24.726-22.39 39.032q-2.8 4.284-4.41 5.428a6.93 6.908 49.618 0 1-2.529 1.216l-32.04 7.643a.705.708 0 0 1-.795-1.016M327.103 617.82a.669.672 0 0 1 .415 1.126c-31.244 32.424-45.538 79.499-30.377 122.906q9.234 26.415 26.727 48.581a.723.726 0 0 1-.705 1.162q-14.438-3.159-31.19-7.915-6.036-1.725-8.53-6.463-17.654-33.44-22.895-49.217-3.108-9.386-3.686-25.107c-1.103-29.683 15.45-59.057 32.111-82.367a4.663 4.646 19.85 0 1 2.331-1.707c10.265-3.34 24.36-2.07 35.799-.998m186.399 4.684c11.077 17.01 19.48 29.846 23.727 48.6 6.397 28.284 9.993 61.724 2.8 89.573q-5.222 20.224-12.287 40.085a1.88 1.888 0 0 1-1.68 1.235l-18.903.726a1.537 1.488-19.414 0 1-1.283-.654q-9.613-14.106-17.998-27.34-22.047-34.802-23.113-75.922c-.686-26.651 10.825-46.476 24.721-75.323a2.26 2.287 7.552 0 1 1.952-1.289l20.004-.762a2.405 2.377-23.56 0 1 2.06 1.07"/><path fill="#a4d0f6" d="M588.965 390.8q-1.174-.527-1.048-1.108c4.102-17.574-1.988-36.872-18.558-46.24q-12.216-6.898-23.348-7.406-20.113-.908-41.291 3.576-1.103.236-5.295 1.797-2.783 1.035-5.494 1.108a61.603 41.283.101 0 1 24.956-19.825 61.64 41.374.202 0 1 36.394-5.99 61.657 41.41.202 0 1 46.478 17.682 61.856 41.52.202 0 1 11.005 21.313 61.693 41.428.202 0 1-5.24 19.244 61.675 41.392.202 0 1-18.559 15.848m-142.957 12.672q7.192-12.09 11.8-22.602 3.415-7.77 1.283-15.214c-1.97-6.79-8.656-10.493-14.493-13.634-9.396-5.065-19.155-9.24-30.648-10.202q-27.413-2.288-54.447 9.295a61.748 41.41.101 0 1 51.177-25.253 61.748 41.41.101 0 1 58.476 19.607 61.784 41.41.101 0 1 2.187 40.72 61.838 41.374.101 0 1-25.335 17.283M661.7 359.574c-13.03-3.014-23.962-3.667-38.093-4.067l-3.94-15.94a.524.508-2.188 0 1 .597-.635l38.508 6.863a1.193 1.216.382 0 1 .976 1.016zm-316.563-3.268q-12.378 3.068-23.962 7.461-6.198 2.342-12.776 6.01l1.392-13.217a1.5 1.525-2.02 0 1 1.21-1.343l35.636-7.171a1.157 1.162 0 0 1 1.283 1.58zM604.56 605.64q-3.487-7.299-7.246-14.397-3.65-6.899-6.47-14.687-6.378-17.646-15.703-36.4 11.294-3.54 20.565-10.893a1.283 1.289 0 0 1 1.879.309l47.074 73.544a.922.907-22.08 0 1-.74 1.416zm-93.552-.836q3.596 4.611 5.078 4.176l-88.763 1.416c-10.228-15.05-18.18-30.41-23.203-48.182q-2.693-9.513-5.349-19.353l25.154 9.404a7.734 7.752 5.612 0 1 3.868 3.177q11.98 19.407 28.46 35.928 9.94 9.967 23.583 12.109 11.041 1.76 31.172 1.325"/><path fill="#b58c62" d="M834.673 544.186c7.879 2.633 6.343 9.531.47 13.017q-5.729 3.377-12.812 5.864-8.403 2.96-10.427-4.43 9.09-11.492 22.769-14.45m-725.052 99.232q4.012 2.36 5.584 7.388c1.898 6.082-13.191 17.32-18.396 14.07q-2.512-1.58-2.638-6.717 4.59-10.602 15.45-14.741m22.191 81.912q1.536-4.357 4.843-7.134c1.5-1.634 7.698-6.554 10.572-4.503 10.029 7.171-11.24 22.875-15.415 11.637M904.787 751.8q-2.728.908-5.475-.272a3.632 3.649 0 0 0-1.735-.29q-2.548.218-3.867.163-38.346-1.525-63.79 1.035-8.674.871-23.33 3.54c-11.6 2.106-23.51 3.468-35.165 6.3q-5.764 1.398-11.818 2.578c13.047-7.77 18.776-19.97 26.69-31.371q2.277-3.268 5.548-3.976 10.68-2.288 22.932-4.266c15.974-2.596 32.292-3.032 48.61-3.958q21.522-1.235 35.997.036 7.066.618 12.216 3.014c8.42 3.921 13.155 15.213 5.186 22.275q-5.005 4.448-11.999 5.193m-677.724 7.589q-13.86-.654-19.21 1.107-6.938 2.287-11.311 8.187-7.518 10.112-15.162 16.539-9.722 8.188-10.372 8.75c-9.759 8.424-25.77 11.438-37.732 14.016q-3.415-1.071-5.945-3.141a2.375 2.352-63.713 0 1-.253-3.45c6.668-7.406 16.806-15.612 26.672-17.12q13.607-2.105 18.45-3.285c14.33-3.504 19.824-15.105 23.438-28.593 1.355-5.084 6.849-7.044 11.818-7.534 9.27-.908 13.806 8.296 19.607 14.523m366.149 86.978c-14.439 6.354-31.588 11.873-43.37 17.846q-15.613 7.915-31.678 16.502c-12.252 6.536-25.877 11.401-38.96 10.947-8.656-.308-14.854-6.39-17.131-14.56q-.542-2.777.27-5.3a.886.87 29.092 0 1 1.266-.49q11.402 6.244 23.166 5.718a6.96 6.75-57.168 0 0 1.392-.218q27.359-7.57 54.393-18.227c10.95-4.32 23.618-7.57 33.467-10.275q5.728-1.562 17.185-1.943"/><path fill="#f5dd7b" d="M783.515 711.135q-3.217 1.452-3.723-1.98-2.096-14.45-10.752-24.054-4.807-5.337-16.896-11.437-2.982-20.133-13.192-37.834c-5.24-9.077-11.945-15.758-19.408-24.381a.632.635 0 0 1 .615-1.053q32.943 6.97 54.465 34.003c5.078 6.372 8.42 12.309 10.354 20.569q5.385 23.129-1.463 46.167m-106.798-52.957q-.615 1.543-4.5-1.017-.488-.326-1.355-3.449-1.175-4.23-5.385-4.593c-17.294-1.543-33.07-1.489-48.773-2.324q-37.027-1.924-74.957-1.543-5.15-11.637-13.644-23.673a.47.454-20.96 0 1 .362-.726l115.11-4.376a2.098 2.085-37.528 0 1 1.626.69q3.271 3.686 11.024 11.51 12.667 12.763 20.492 29.501m-211.446-12q-12.703-1.253-21.143-1.035-61.024 1.525-122.266 1.979l21.089-27.068a2.406 2.393 41.302 0 1 2.168-.89c42.539 5.156 89.034 4.884 129.459 3.468a.759.762 0 0 1 .722 1.07zm-207.813 3.195q-10.192-.762-19.77 2.633a1.482 1.362 5.272 0 0-.704.544l-2.946 4.158a1.175 1.18 0 0 1-2.06-.309l-.38-1.162q15.415-19.48 37.39-30.645a.687.708.764 0 1 .92.963z"/><path fill="#edc6e8" d="M559.51 270.454c-11.457-10.058-26.203-13.126-38.509-17.574-36.918-13.38-74.306-11.946-110.936-8.896q-12.613 1.053-24.648 4.757-1.392-.999-1.717-2.324a1.482 1.489 0 0 1 .614-1.598c35.654-24.054 83.794-34.04 126.206-27.921 24.07 3.467 47.075 10.493 68.434 23.074a1.088 1.067-64.05 0 1 .343 1.543zm9.36 259.681-.704-5.102c17.13-11.673 32.943-30.572 35.02-51.758q4.23-3.595 7.03-8.37c6.271-10.728 14.457-24.707 18.324-37.706q5.35-17.973 7.644-34.148.416-2.941-1.03-9.041l27.233-1.634a.867.871 0 0 1 .921.853q.434 24.672-6.704 46.185-15.053 45.313-51.664 77.392-16.59 14.542-36.07 23.329m142.687-27.976 8.782 10.566a1.229 1.235 0 0 1-.072 1.67q-9.36 9.495-17.655 18.826-25.227 28.375-52.188 54.88a1.12 1.126 0 0 1-1.735-.235l-10.842-18.772q3.252-2.578 5.818-5.21 24.595-25.253 52.044-47.274c5.783-4.666 10.68-9.422 15.848-14.451M371.972 533.13q-7.644.872-15.035 4.72-8.42 4.376-11.583 5.592-21.848 8.278-42.593 21.295c-7.59 4.757-14.818 8.642-22.444 12.472-5.909 2.978-12.992 8.079-19.986 11.492l-14.836-18.717a.632.635 0 0 1 .18-.944c13.915-8.152 26.493-16.593 41.455-23.601q20.312-9.513 40.84-16.811 29.04-10.33 30.829-11.201a1.699 1.707 0 0 1 1.789.145l13.589 10.22a1.142 1.122-61.768 0 1 .253 1.526z"/><path fill="#cb89bb" d="M703.064 332.179c-3.867-10.13-7.5-20.188-11.963-29.72-4.373-9.367-9.849-22.202-14.529-35.51-4.192-11.89-10.463-21.93-17.095-32.296-3.487-5.465-7.336-7.262-13.282-5.337q-4.662 1.506-14.51 5.718a21.29 21.22 41.549 0 0-3.669 1.997q-11.692 7.934-23.33 15.34-2.89 1.834-5.204 4.34-20.654 22.293-34.894 49.634l-11.06-.999a.994.998 0 0 1-.794-1.452q3.306-6.517 5.945-10.584 20.673-31.897 40.442-59.22 7.897-10.892 17.854-20.623c11.06-10.784 23.781-13.616 35.906-2.215q11.584 10.874 17.692 20.932 3.74 6.154 17.763 32.968 10.806 20.678 16.463 53.284 1.445 8.35-1.735 13.743m-294.029-25.562q.344 1.507-.903 1.997a.994.998 0 0 1-1.247-.526c-2.386-5.646-7.97-14.342-12.379-18.954-14.42-15.05-26.546-35.292-45.646-47.8q-7.789-5.083-13.535-4.938-8.06.218-13.734 4.339-6.668 4.847-20.203 17.954c-13.824 13.38-19.029 28.358-25.57 45.786a16.008 15.834 79.575 0 1-1.608 3.123q-7.138 10.71-12.162 24.454-.777-10.403 1.77-19.444 4.338-15.358 11.042-29.428c6.126-12.854 11.547-22.348 17.185-33.26 8.367-16.12 31.66-49.252 53.598-30.317q8.132 7.026 14.168 15.63 11.24 15.995 23.491 31.335c2.241 2.833 5.928 7.934 8.53 12.527 5.313 9.331 11.854 17.392 17.203 27.522m148.216 205.381 11.565-21.985a5.055 3.114-50.19 0 0 .253-.617q4.12-13.725 3.994-19.806c-.397-20.497-11.077-33.404-28.75-41.628-12.704-5.919-24.902-10.766-39.43-11.22-8.837-.254-18.668-1.09-26.836.145q-4.698.708-9.45.672-2.82-.036-9.361.962-6.831 1.035-13.806 1.09a92.217 61.215-4.25 0 1 100.238-4.34 92.163 61.052-4.148 0 1 32.04 22.185 92.416 61.379-4.351 0 1 9.884 22.584 92.344 61.288-4.25 0 1-5.765 27.178 91.657 60.67-4.35 0 1-10.68 13.779 92.416 61.27-4.25 0 1-13.896 11.001M247.32 592.15l-15.197 6.718q-9.65 1.76-17.764 6.335a2.783 2.796 0 0 1-3.921-1.361l-3.126-7.443a3.253 3.268 0 0 1 1.247-4.03l24.829-16.05a1.68 1.688 0 0 1 2.24.4z"/></svg>